<?xml version="1.0" encoding="UTF-8"?>
<svg id="a" data-name="Layer 1" xmlns="http://www.w3.org/2000/svg" viewBox="0 0 504 360">
  <defs>
    <style>
      .b {
        fill: #405b27;
      }

      .c {
        fill: #4f6b33;
      }

      .d {
        fill: #e1e5dd;
      }

      .e {
        fill: #405b26;
      }

      .f {
        fill: #3f5a26;
      }

      .g {
        fill: #415c28;
      }

      .h {
        fill: #fbfbfa;
      }

      .i {
        fill: #4f6b34;
      }

      .j {
        fill: #e8ece4;
      }

      .k {
        fill: #60813c;
      }

      .l {
        fill: #405a26;
      }

      .m {
        fill: #60823c;
      }

      .n {
        fill: #506c34;
      }
    </style>
  </defs>
  <path class="l" d="M289.22,169.33c.04-2.12-1.62-2.18-3.14-2.73-.48-.18-.83-.19-.25-.66-1.01-.47,1.83-2.72,2.54-2.2,1.12-.58,1.37.16,2.29.52,1.36.53,5.09,1.44,4.9-1.11-.02-.25-.62-1.63-.74-1.78,5.08-.52,4.92,2.99.93,5.18-1.4.77-5.69,2.02-6.53,2.79Z"/>
  <path class="g" d="M253.43,216.65c-.55,3.06-2.03,6.59-2.77,9.75-1.55,6.66-2.3,13.7-2.41,20.52-.01.8.35,4.64.14,4.93s-1.01.31-1.16-.17c-.13-.41-.17-3.26-.17-3.91,0-7.97,1.39-18.64,3.82-26.2.54-1.68,1.4-4.72,2.13-6.19.42-.84.47,1.01.42,1.27Z"/>
  <path class="f" d="M201.53,179.67c.09,1.7,1.55,3.08,2.63,4.33.3.35.87.49.25.93-.1.83-2.34,1.62-2.88.85-2.09-1.67-5.09-3.24-7.72-3.82-.39-.09-.9.18-.25-.42.33-.1.78-.54,1.44-.71,1.93-.5,4.55-.23,6.53-1.16Z"/>
  <path class="g" d="M227.99,221.39c.26.92-.29,7.81-.43,9.24-.48,4.89-1.5,9.83-2.71,14.59-.24-.08-1.25-.35-1.27-.42-.03-.19.93-3.03,1.07-3.65,1.18-5.23,2.85-16.14,2.15-21.29.63-.1,1.05,1.02,1.19,1.53Z"/>
  <path class="l" d="M222.39,153.04c-1.71.53-3.62.11-5.43.34-.06-1.28-.04-3.57,1.36-4.07.5-.18,1.72-.07,2.2.17,1.52-.28,2.48,2.43,1.87,3.56Z"/>
  <path class="n" d="M258.52,168.82c.5.32.08.91-.1,1.27-.59,1.2-1.5,2.47-2.11,3.65-2.44,2.66-5.09,5.25-7.74,7.75-.13.12-.3.19-.48.26s-.39.11-.6.14c-.26-.26-1.2-.09-.85-1.19.15-.46,1.21-2.32,1.53-2.8,3.1-4.67,5.66-6.44,10.35-9.07Z"/>
  <path class="n" d="M260.72,177.13c-.98,1.33-2.28,1.67-3.48,2.55-.38.28-.85.42-.25.85-.46.42-1.03.75-1.7.68-.09.05-.32.07-.51.17.23-1.97,1.32-4.23,2.19-6.03.15-.31.51-.38.52-.41.77-.38,3.31-1.02,3.98-.36.62.61.26,2.79-.75,2.57Z"/>
  <path class="n" d="M252.58,183.57c-.3.22-1.18.34-1.02,1.02.15.68-.62,1.64-1.36,1.36l-.76.25c-.18-.82-.71-1.07-.6-1.95.22-1.69,3.84-4.73,5.09-6.11l.59.09c-.56,1.81-1.73,3.41-1.95,5.34Z"/>
  <path class="b" d="M213.74,188.49c.53.76-.95,1.61-1.36.68-.52-1.2-1.3-3.18-1.87-4.24l2.04-2.71,1.61,5.69c-.06.26-.25.4-.42.59Z"/>
  <path class="h" d="M253.77,190.53c.92,1.76-.27,2.8-1.53,3.9-.11,0-.91-1.46-.85-1.53l2.37-2.37Z"/>
  <path class="d" d="M265.64,189.85c-.46-.5-1.2-.33-.51-.85.82-.32,1.34-1.43,2.2-1.19l-1.69,2.04Z"/>
  <path class="j" d="M244.95,191.2l-.34-2.71c1.18.8,1.08,1.62.34,2.71Z"/>
  <path class="k" d="M253.69,217.75c.09,2.36.31,4.77.34,7.12.22,19.86-5.48,39.71-16.34,56.39l1.07.59c2.15-3.84,4.54-7.57,6.46-11.53,7.87-16.23,11.1-35.36,9.48-53.26.39-.46.25-.13.43.17,1.08,1.74,1.48,3.34,3.29,4.72,1.84,1.39,5.62,1.44,6.08-1.33.51-3.03-4.41-3.46-6.42-4.83-1.05-.71-1.96-1.78-2.8-2.72l3.98,1.73c2.51.73,8.7,2.07,10.65-.1.88-.99,1.13-2.5.3-3.59-1.21-1.6-3.6-.38-5.18-.18-2.62.32-5.91-.01-8.39-.91l7.88-2.11c2.52-1.11,4.89-1.85,5.71-4.75.82-2.9-1.65-4.1-3.85-2.53-2.83,2.03-5.15,5.86-8.99,6.42-.15-.65.23-.52.5-.77,3.35-3.06,8.22-8.2,8.49-12.96.11-2.07-.59-1.54.76-3.65-.48.03-.99.09-1.53.17.24-.39.07-.67-.51-.85-.62-.83-2.02-.39-2.81.14-.73.48-2.44,2.57-1.6,3.25-.26.57-.61,1.49-.93,2.38-1.41,1.48-2.5,1.69-1.13-.66l-.15-.53c.15-.78.25-1.6.3-2.46.42-.92.36-1.64-.18-2.17.21-2.3-.03-4.44-.73-6.43l-.57.03c-.25-.91-1.01-2.09-2.04-1.36-.2-.45-.35-.23-.51.17-.86-.95-1.44.13-1.58,1.1l-.62,1.1c-.65-.75-2.1.6-1.02,1.02.29-.03.2.25-.28.83-.48,2.84-.88,3.31-1.2,1.4.3-.32.34-.61.12-.88-.46-.61-.91-1.18-1.36-1.7,0-.83-.81-1.93-1.36-2.37-.09-.42-.37-.82-.85-1.19-.38-.28-.77-.67-1.16-1.17l-.54.16c.11-.65-.3-.89-.68-.34.02-.64-.05-1.22-.68-.68-.2-.41-.71-.83-1.02-.34l-.33-.5c-.83.32-1.39.34-2.21.33-.79.26-.58,1.27,0,1.7-.6.35-.3,1.14.04,1.76-.07-.03-.14-.02-.21.11-.83.35-.19.91.32,1.32-.35.47.75,1.4,1.15,1.6-.12.05-.27.15-.29.31l.02.62c1.44.97,2.34,2.24,1.98,4.03-2.63-3.13-5.5-5.98-8.61-8.55.21-.65-1.15-1.44-1.72-1.68-1.96-.85-4.75-.69-6.41.75-.56.49-1.57,1.51-.87,2.12.05.04.51,1.13.5,1.19-.02.1-1.39.44-.91,1.6,1.06,2.62,4.77,2.04,6.95,2.99,2.87,1.25,9.62,6.11,11.54,8.55.41.52.74,1.78.5,2.38-.19.46-.45.03-.67-.08-2.96-1.49-5.78-3.39-8.82-4.86-2.49-1.2-5.07-2.22-7.65-3.22-.38-.24.04-.61.03-1-.06-2.94-1.72-4.85-4.51-2.81-.44.2-.78.89-.68,1.36l-.56.43c-.48,2.87-1.04,5.87-2.79,8.26,1.67-5.33,2.78-12.07-.83-16.78-.12-.16-.37-.12-.57-.05-.55-1.19-1.97-1.84-3.05-1.02-.99.07-2.56,2.63-1.36,3.05l-.25.79c.54,1.91,1.02,3.73,1.44,5.49.79-.21,1.93,7.84,1.57,7.11l-2.11-5.72c-.2-.31-.48-.55-.81-.71l.31-.49c-.5-1.25-1.04-2.48-1.61-3.69l-.57-.06c.39-.76-.69-2.73-1.53-2.54.64-.7-2.53-3.86-2.83-3.85,0,.34-.09.26-.23-.22-.83.27-2.43-1.44-3.66-.93-.61.26-.79,1.7-.75,2.29l-.44.41c.62,1.86,1.72,3.48,3.32,4.85,2.7,3.12,5.41,6.54,7.34,10.29-3.07-3.25-6.28-6.57-9.74-9.37-.14-.11-.32-.1-.49-.07l-.17-.74c-1.32-1.13-5.89-3.69-7.68-3.33,0-.04-.04-.09-.12-.17-1.5.47-4.16-.18-4.83,1.61-.27.72.5,2.2,1.01,2.71,1.5,1.48,6.92,3.07,9.16,4.15,4,1.93,7.73,4.4,11.11,7.3l-7.55-3.54c-4.99-1.74-18.87-7.58-23.41-3.84-1.89,1.56-2.41,4.53.17,5.59,2,.83,9.53-.13,12.38,0,5.56.24,11.39,1.52,16.54,3.66-5.78-.57-11.62-.43-17.38.29-2.05.25-7.5.91-8.99,2.02-2.38,1.77-1.09,4.4,1.53,5.01,3.58.84,8.55-2.08,12.04-3.05,3.7-1.04,8.38-1.52,12.21-1.3.62.04,3.19.21,3.56.35.13.05.32.26.17.33-3.4.77-6.84,1.51-10.18,2.54-3.27,1.01-9.27,2.74-11,5.77-1.57,2.74.86,3.55,3.2,2.71,3.39-1.22,7.97-4.41,11.53-6.09,2.81-1.32,5.74-2.39,8.57-3.66.49.29.2.36.17.6-.36,3.29-8,7.89-10.94,9.3-1.59.77-8.11,2.3-6.13,4.9,1.41,1.85,5.19,1.45,7.14.89,6.52-1.88,9.99-7.01,12.47-12.98.29,2.89-.61,5.88-1.62,8.56-.62,1.65-2.49,3.64-.86,5.41,1.08,1.18,3.83-.92,4.6-1.85,1.48-1.78,1.61-5.1,1.3-7.29l-1.05-4.49c2.37,2.8,4.7,5.94,6.6,9.07.76,1.25,1.51,2.2,1.71,3.65.32.86.71,1.37,1.19,1.53l2.95,5.51c6.25,13.37,8.94,25.76,9.52,40.37.04.96.01,3.35.16,4.07.14.68.93.42,1.04-.17.08-.45.14-2.16.15-2.72.22-15-4.66-31.75-11.29-45.12-.67-1.35-2.14-3.26-2.6-4.58-.23-.66-.11-5.13-.18-6.28-.04-.62-.16-1.37-.4-1.96.04-.2,2.27-.87,2.73-1.25.49-.4.66-1.12,1.39-1.38,1.01-.35,8.46,3.46,9.58,4.5-.97.12-1.99.13-2.97.07-2.43-.13-5.16-1.1-7.29-1.18-3.29-.12-2.79,2.46-.85,4.25,2.39,2.2,5.55,2.68,8.65,2.88l5.04-.7c.17.28.15,2.78.04,3.07-.24.65-1.78,1.3-1.89,2.54-.12,1.47,1.3,1.34,1.52,1.57.28.29-.23,6.99-.31,7.93-.11,1.3-1.49,9.45-1.14,9.8.04.04,1.03.37,1.14.04l1.57-17.48c.06-.08,1.91-.5,2.01-.5.45,0,.67.83,1.36.49l.21-1.17,2.74-2.45.56-.19,1.56-4.87.42.14c.33.33.24.7.26,1.1ZM244.85,192.39c.01-.16,1.17-1.69,1.29-1.69.96,1.43,2.17,2.88.68,4.41-.31-.49-1.99-2.38-1.97-2.71ZM247.24,206.55c-1.47-.06-2.97-1.18-1.52-2.37.2.54,1.65,1.14,1.73,1.44.03.1-.33.65-.21.94ZM254.45,196.3l.09,2.1-1.45,1.29c-.61-1.96-.5-2.32,1.36-3.39ZM250.89,201.21c-.33-.37-1.38-1.2-.68-1.69l.68,1.69ZM246.82,201.21c-1.03-.78-2.35-1.12-1.02-2.37.17,0,1.81,1.94,1.02,2.37ZM248.85,195.45c.21.3-.08,2.05-.34,2.03-1.09-.82-.48-1.31.34-2.03ZM219.08,201.28c-.36.12-.39.46-.75-.08,2.1-1.47,3.84-3.44,5.43-5.43l.82,2.89c-.07.45-4.71,2.35-5.49,2.62ZM225.11,196.8l1.35.68c-1.19.91-.76.25-1.35-.68ZM219.51,204.43l2.8-.28,3.05-.65c-.09.6,0,1.45-.66,1.7-.77.29-4.44-.02-5.18-.77ZM226.64,216.3l-5.77-8.48c1.61,1.35,3.63,1.84,5.46,2.78.03,1.91.65,3.78.31,5.69ZM227.74,202.93c-.38.1-1.81.79-1.17-.11.11-.15,2.57-1.13,3.04-1.43.46-.3,1.47-1.08,1.88-1.45.49-.44.44-1.13,1.17-1.18.7-.05,4.25,1.13,5.09,1.46,1.65.65,5.14,2.37,6.1,3.79.24.35.34,1.55-.08,1.61-4.71-1.53-11.11-3.97-16.03-2.69ZM243.25,212.49c-.56,0-2.79-3.09-3.47-3.76-.52-.51-1.27-.45-.6-.91l4.81.79c-.31.97.66,3.85-.74,3.87ZM245.21,212.15c-.31-1.56.55-2.15,1.61-3.13,0,1.4.42,3.5-1.61,3.13ZM247.92,211.47l.42-2.28,2.37.67c-.71.82-1.65,1.58-2.79,1.61ZM256.72,200.98l2.14-1.29-1.09,2.96-1.97,2.46.91-4.13ZM244.95,220.04c.19-1.45-.52-3.54,1.61-3.47.11,1.66.18,2.72-1.61,3.47ZM247.84,217.83c-.9-2.72,2.2-3.11,3.73-4.75.27.18-.04.59-.17.76-.23.32-.96,1.38-1.1,1.53l-2.46,2.46Z"/>
  <path class="c" d="M243.98,176.76c1.63-3.38,3.54-6.59,5.71-9.64.78-.88,1.58-1.78,2.37-2.71.63.27,1.61-.46,1.02-1.02l1.21-1.11c.17-.2.26-.32-.02-.42l.26-.47c-1.55-3.07.9-3.84,3.53-3.27,1.07.08,1.56-.19,1.47-.83.62.31,1.07-.11.68-.68.2-.13.41-.37.31-.54-.26-.44-3.66-1.29-3.86-1.09-.08.07-.13.17-.18.27-1.92.05-3.91,2.19-5.24,3.64-3.66,3.97-6.22,9.44-7.6,14.59l-.76-5.31c2.78-5.19,6.51-9.36,10.46-13.56.12-.13.03-.37-.08-.54,1.21-.34,1.04-.96-.5-1.85-.38-1.4-.89-1.91-1.54-1.54-3.05,3.74-4.98,6.06-6.93,10.6-.73,1.7-1.38,3.79-1.81,5.6-.08.15-.26-.02-.33-.17-.12-.23-.82-4.68-.76-4.92,2.43-4.42,4.93-8.82,7.93-12.89,1.75-2.37,4.08-3.91,4.5-7.12.24-1.83-.05-3.31-2.26-2.97,1.46-1.17,4.43-3.43,4.14-5.52-.23-1.65-1.89-.86-2.87-.34-6.79,3.58-10.37,11.66-12.44,18.66-.21.71-.28,1.48-.45,2.2-.1.15-.27-.06-.33-.17-.14-.28-1.39-5.63-1.38-5.94.03-.49.91-2.15,1.21-2.71,1.81-3.42,5.06-7.96,7.63-10.85,1.82-2.05,6.05-4.96,6.68-7.29.97-3.61-3.32-1.11-4.65-.13-4.89,3.63-8.25,9.82-9.96,15.56-.43,1.43-.69,2.93-.89,4.41-.1.15-.27-.05-.34-.17-.22-.34-1.38-4.61-1.29-4.92,2.33-4.82,4.71-9.59,7.66-14.08,1.65-2.51,4.4-4.81,3.83-8.31-.59-3.56-3.6-.41-4.76,1.02-4.68,5.75-5.57,12.87-6.79,19.84-.04.23.12.78-.34.68-.18-1.26-1.69-4.13-1.69-5.17,0-1.11,2.75-8.02,3.39-9.41,2.13-4.62,4.44-7.38,7.3-11.35.77-1.07,2.4-4.43.32-4.94-1.04-.26-3.7,2.6-4.4,3.4-4.96,5.62-6.54,14.28-6.62,21.54l-.34-.17c-.24-1.87-2.37-4.96-2.51-6.57-.02-.2.67-2.5.81-2.93,1.53-4.67,4.3-10.19,7.06-14.25,1.28-1.89,3.59-3.77,3.81-6.11.39-4.1-3.56-.47-4.77.85-3.24,3.53-5.15,8.08-6.06,12.72l-1.22,8.65c-.59-1.26-2.07-3.62-2.03-4.92.06-2.15,3.08-10.97,4.06-13.23,1.29-2.97,4.35-7.11,3.25-10.51-1.58-4.86-5.18,2.6-5.86,4.41-2.17,5.76-2.14,12.51-2.04,18.57-4.62-7.63-6.89-18-15.35-22.56-3.55-1.91-2.53.75-1.2,2.8,2.86,4.38,8.19,8.41,11.51,13.06,1.15,1.62,2.18,3.59,2.92,5.43-4.79-4.76-10.27-9.71-16.96-11.54-1.49-.41-5.77-1.44-4.89,1.53,1.01,3.45,8.27,4.73,11.34,5.95,1.42.57,2.85,1.22,4.24,1.87,1.36.64,6.29,2.86,7.11,3.62.69.64,1.71,4.16,2.47,5.1l-4.49-3.38c-4.49-3.01-9.46-5.63-14.93-6.04-1.19-.09-7.04-.37-6.28,1.87.78,2.28,5.43,1.94,7.29,2.23,4.23.65,8.91,1.89,12.89,3.48,1.17.46,5.24,2.16,5.86,2.93.97,1.2,1.44,4.27,2.36,5.7l-7.88-5.5c-3.89-2.04-7.94-3.64-12.38-3.76-1.31-.03-6.98.11-4.72,2.55,1.66,1.79,6.94,1.61,9.47,2.1,3.6.69,7.64,1.93,11.02,3.34,1.15.48,3.53,1.35,4.43,2.01,1.18.87,1.81,5.63,2.78,7.06,0,.36-.25.41-.55.08-2.74-3.05-8.72-6.62-12.59-8.09-2.72-1.03-8.22-2.1-11.02-1.35-4.34,1.17-.19,3.45,2.21,3.81,6.68,1,11.38,1.49,17.81,4.28.77.33,3.89,1.75,4.25,2.23.45.6,1.3,4.05,1.59,5.06.41,1.44-1.29-.75-1.64-1.08-5.25-4.87-13.13-10.35-20.65-9.78-1.52.11-3.83.84-2.05,2.51,1.72,1.62,7.42,2.08,10.03,2.86,3.67,1.1,7.85,2.85,11.19,4.72.88.49,2.95,1.54,3.4,2.28.23.38.79,2.6.95,3.23.28,1.1.59,2.59.8,3.72.25,1.33-.43-.04-.74-.35-5.06-5.11-12.97-10.36-20.37-10.49-5.83-.1-4.25,2.85.17,4.03.42.11.88-.11.25.46.3.52,1.91.72,2.2.17,3.1.78,6.4,2.01,9.48,3.16,1.43.53,8.24,3.64,8.78,4.62.26.46.78,3.15.4,2.94-4.93-3.6-10.65-6.68-16.8-7.16l-.52-.36c-1.49.16-2.99.22-4.51.18l-.4.52c-.96.12-1.92.58-2.88.51-2.08.39-1.04,3.12.51,3.22.66.35,2.24,1.05,2.71.34.08.22.22.39.43.5.25.14,4.37.1,4.66-.5l.64.52c1.19.04,2.22.09,3.09.16.28.3.72.43,1.33.37.49.39.95.61,1.39.64.18-.35.49-.38.89-.18,2.93.62,7.5,1.69,10.07,3,.19.1.69,3.94.62,4.14-.02.06-.13.1-.26.13-3.27-2.56-6.82-4.59-10.65-6.09l-.51.19c-.04-.2-.1-.47-.26-.51-.89-.25-3.84-.45-4.49.17-.41-.73-2.19-.11-2.71.34-1.76-.24-4.02,1.85-1.77,3.28-.13.27-.02.46.25.62.8.26,1.48.26,2.04,0-.95,1,1.68,3.25,2.28,2.88.03.05.05.1.09.17l.51.32c1.14.23,3.14.47,4.24.36l.2.57,2.86,1.26.49-.31.31.45c2.24.79,4.57,2.1,6.58,3.41,2.24,1.46,2.35,2.1,2.44,4.77l.51.18c.08.01.24.28.43.35.29.1.56-.03.58-.01.49-.33.62-.96.39-1.89ZM239.96,155.12c1.69-3.41,3.59-6.75,6-9.71l-2.81,6.7-2.11,8.05-1.08-5.04ZM233.16,165.34c2.79.69,5.54,1.59,8.09,2.95l.65,5.62c-2.28-3.47-5.46-6.1-8.74-8.57Z"/>
  <path class="l" d="M228.83,159.15c.15.28.16.85.17,1.19-.24-.06-4.26-.35-4.75-.34.28-.81,1.05-1.59,1.87-1.87,1.18-.39,2.12-.08,2.71,1.02Z"/>
  <path class="i" d="M249.11,173.82c.94-.7,1.46-1.73,2.19-2.54,2.17-2.44,5.54-4.49,5.7-8.06-.7-.13-1.74-1.1-2.54-.85-.38.43-.79.85-1.36,1.02-.33.51-.56.44-1.02,1.02-.66.83-1.56,1.96-2.2,2.88-2.58,3.69-4.26,7.77-5.6,12.04.26.18.65.31.68.34l4.16-5.85Z"/>
  <path class="m" d="M318.5,217.08c-2.41-3.57-10.5-6.36-14.61-7.81-1.81-.64-3.7-1.32-5.6-1.69-.15-.1.06-.29.17-.33,1.4-.53,9.24.46,11.03.87,4.56,1.05,7.29,2.91,11.36,4.55,2.32.93,6.35,1.76,7.89-.84,1.61-2.72-2.9-4.15-4.67-4.7-6.92-2.16-14.93-2.82-22.13-3.02,1.77-.64,3.66-1.06,5.51-1.38,3.83-.67,8.33-.97,12.21-.74,3.1.18,6.5,1.1,9.5,1.18,5.15.14,4.85-5.12.51-6.85-4.07-1.63-14.33.86-18.66,2.05l-10.09,3.37c3.3-2.53,7.22-4.52,11.11-5.97,2.49-.93,8.68-2.08,10.02-4.11,2.3-3.48-3.43-3.72-5.61-3.35-4.43.75-12.12,7.11-15.6,10.12-1.09.95-2,2.2-3.15,3.07-.27.2-.43.51-.84.24,1.62-2.27,3.03-4.73,4.84-6.87,2.07-2.45,7.92-6.99,8.46-9.67.17-.85,0-2.07-.99-2.33-.67-.18-1.04.15-1.63.27-.13.03-.31-.23-.33-.23-1.18.29-3.47,1.79-3.39,3.05-3.97,4.21-6.81,10.81-8.99,16.11-.38-.01-.28-2.44-.25-2.8.1-1.04,1.07-4.78,1.7-5.42.69-.69,2.61-.14,2-2.39-.13-.48-.62-.99-.65-1.27-.13-1.13,1.85-3.02.93-5.09.9-1.6-2.38-2.35-3.22-1.19-.73-.14-2.85,2.07-2.98,2.56l.27.49-.56.13c-.36.63-1.09,4.12-.46,4.62l-.49.27-.04,3.61c-.4-.21-.8-.47-1.01-.89-.3-2.25-.9-5.04-3.55-5.03-.51-.71-1.39-.07-1.83.45-.47.55-1.51,2.47-.72,2.77-.21.05-.39.15-.51.32-.49.69,1.77,6.44,3.23,6.46l.09.94,3.04,3.66c-2.5-1.2-4.89-2.51-6.53-4.77l-1.35-.84c.49-.74-1.21-1.61-1.7-1.02.1.41-.74.27-1.1.5-1.11.69-1.94,2.44-1.3,3.66,1.86,3.54,8.51,6.26,12.41,6.53-.06.64-3.39.65-3.98.6-1.79-.16-5.59-1.83-6.96-.83-3.7,2.7,1.84,6.7,4.92,5.38l4.15-1.58c-13.74,15.52-23.27,35.28-25.67,55.88-.22,1.88-.14,3.89-.6,5.69l1.24.05c1.6-23.18,11.34-45.53,27.5-62.38l-1.63,5.43c-.36,2.75-.17,5.56,1.96,7.63,1.13,1.09,3.48,2.23,3.92,0,.42-2.16-1.75-6.69-2.01-9.5-.04-.42-.18-3.63.23-3.64,1.8,6.38,5.57,12.45,12.3,14.39,1.68.49,6.41.97,6.6-1.58.13-1.8-2.58-2.51-3.72-3.15-4.71-2.62-11.17-6.4-12.55-11.94.45-.46,10.31,5.28,11.36,5.93,2.36,1.46,7.25,5.49,9.67,5.77,2.45.28,2.67-1.73,1.55-3.39ZM292.12,202.32c-.34-.42-1.75-2.59-1.67-2.97.09-.39,1.04-.66,1.32-1.01.34,1.45.33,3.06,1.01,4.41-.28.35-.5-.22-.66-.42Z"/>
  <path class="e" d="M279.89,160.34c.28-.19.57-.83.97-.77.19.03,3.3,1.45,3.54,1.6.47.3.34.4.24.86.08.94-1.53,3.17-2.54,2.88-1.76-.75-2.48-1.1-4.07-2.04.52-.87,1.35-1.7,1.87-2.54Z"/>
  <path class="b" d="M273.44,166.78c.88.52-.17,3.05-1.02,3.39-1.02-1.29-3.82-6.89-3.22-8.31-.12-.19-.05-.25.17-.17.1-.13.42-.54.59-.42.3,1.73,3.36,4.19,3.48,5.51Z"/>
  <path class="n" d="M260.72,168.65c.43.28.1,1.48-.17,1.87-.23.33-.71.7-1.02,1.02l-.59-.09c.26-1.14,1.29-1.99,1.78-2.8Z"/>
  <path class="m" d="M288.37,163.73c2.03,1.07,8.01,3.37,7.61-.87-.05-.57-.51-1.54-1.17-1.5-2.13-2.71-10.54-4.56-13.99-5.32l-7.38-1.47c0-.28,1-.33,1.27-.38,4.99-.94,10.68-.73,15.6.5,3.56.89,10.58,4.42,13.32.48.8-1.15.13-2.73-.93-3.48-1.36-.97-7.9-1.51-9.84-1.61-3.26-.16-6.57.14-9.84,0l-7.04.94c5.46-2.8,11.79-4.34,17.89-4.84,2.54-.21,8.6.27,10.51-.44,2.58-.96,2.66-3.76.68-5.43-3.44-2.89-10.82-.22-14.58,1.12-5.56,1.99-11.28,4.6-16.2,7.89-.33-.24.23-.6.42-.77,3.43-3.05,7.15-5.74,11.19-7.89,2.57-1.36,6.36-2.36,8.15-4.65,1.08-1.38.65-3.06-1.2-3.39-2.58-.47-5.73.83-7.8,2.3-5.31,3.77-9.66,9.46-13.82,14.41.37-2.27,1.82-4.87,3.03-6.87,1.96-3.26,4.93-6.15,6.74-9.16.95-1.59,1.1-5.58-1.88-4.23-3.48,1.57-6.19,8.03-7.54,11.52-1.16,3-1.82,6.22-2.89,9.24-1.16-4.25.56-8.1,1.42-12.13.39-1.84,1.41-6.55-1.84-6.3-2.39.19-3.47,3.48-3.84,5.45-.81,4.31.82,10.07,2.57,13.99-.35.26-1.07-.69-1.26-.93-.53-.64-1.3-1.81-1.69-2.54-1.1-2.05-2.01-8.59-4.76-8.64-3.17-.06-2.73,6.17-.6,7.54l-2.12.6c-.81,1.03-3,.82-3.57,1.16-.73.44-1.17,1.91-1.78,2.65.87.29.63,1.26,1.27,1.97.48.52,1.85.69.76,1.43.91.26,1.74.7,2.49,1.32l.73-.13c.57.25,2.18.52,2.98.8.35.12.71.04.75.56.19-.13.32-.3.59-.25l4.59.5c-1.48.62-3.48,1.28-5.09,1.03-.47-.07-.68-.01-.76-.61-1.32.97-3.82-.5-5.19.75-1.13,1.04-.9,2.69-.07,3.82.09.15.15.32.17.51.5.52,2,1.51,2.54.85.22.82,1.84.38,2.56.17l3.11-1.63c-1.37,1.92-2.56,3.93-3.57,6.01-.51.33-.7.67-.57,1.04-.68,1.44-1.52,2.83-2.37,4.21l.16.71c-.87,1.23-1.7,2.51-2.49,3.82l.12.59c-.59,1.58-1.18,3.22-1.76,4.9l.4.53c1.63-1.2.7-1.17,1.27-1.96.18-.25.42.03.94-.24.66-.98,1.16-2.12,1.51-3.41.6-1.06,1.01-2.07,1.2-3.04.59-.04.99-.61,1.22-1.69.68-.62.95-1.19.81-1.7l-.04-.47c.74-.74,1.15-1.54,1.23-2.42.9-.11,1.55-1.39,1.19-2.2,1.32-1.73,2.59-3.53,3.79-5.41-1.11,3.06-.7,7.69,1.16,10.41.41.59,1.09,1.39,1.83,1.1.41.96,2.98,1.68,3.22.51.73-.21,1.17-2.55.51-2.88l-.02-.86c-1.43-2.21-2.36-4.57-2.8-7.06l-.4-.39c-.64-.65-.86-2.2-.68-3.05.73.78,1.33,1.85.85,2.88,1.16,1.58,2.34,3.21,3.53,4.88l.55.21c.35.69,1.4,1.8,2.21,1.53l.08.64,2.3,1.4c.94.69,1.78.86,2.54.51.77,1.18,3.15,1.33,4.41.68,1-.05,2.31-.34,3.14-.92.73-.51.73-.96,1.1-1.29,1.47-1.77-1.95-3.17-3.3-3.15l-.09-.25c-1.15-.27-2.23-.72-3.3-1.22l-.43.21-.19-.6-3.3-1.65-.58.22v-.55c-1.86-.64-2.92-1.59-4.02-3.14-.81-.25-2.41-1.36-2.4-2.3,0-.42,7.36,2.47,7.93,2.78.03.29.14.52.36.68.47.27.66.04.92-.29.3-.03,3.36,1.46,3.83,1.99,1.25.28,2.85.82,3.73,1.7ZM261.48,152.27c-1.03-.6-2.51-1.06-3.4-1.86-.39-.35-.2-.22,0-.51.35-.49.7-.73,1.04-1.36.17-.32.1-1.5.66-.85.27.31.4.72.68,1.02,1.71,1.87,3.81,3.31,5.68,5l-4.66-1.45Z"/>
  <path class="l" d="M241.63,184.67c-.14-.96-.67-.75-.99-1.16-.11-.13.22-.4.12-.57-.25-.4-1.01-.68-.9-1.24l-.09-.74c-.91-.94-1.91-1.8-2.97-2.55.82.49,1.63.99,2.42,1.52l.81-.1v-1.7s-.08-.73-.08-.73c-1.97-2.42-4.34-4.07-6.9-5.67.39-1.32.29-2.07-.31-2.26-1.35-.58-1.94-1.03-3.56-1.53-3.09,2.31-7,3.15-10.77,3.47.34-.72,1.34-.91,2.04-1.35,1.28-.8,2.79-2.14,3.99-2.8.69-.6.01-.32-.25-.51-.67-.48-1.14-.76-1.68-1.44-.26-.33-.32-.97-.44-1.1-1.16,1.73-2.32,3.23-4.07,4.41l2.04-4.41c.58-1.02-.11-.92-.6-1.61-.8-1.14,1.56-1.66,2.12-2.29,1.01,0,1.43-2.23.85-2.88-1.74-.1-3.65.12-5.09,0-.12,3.21.45,6.73-1.19,9.67-.19-1.7-.2-3.66-.45-5.34-.15-1.05-.65-3.88-1.08-4.66-.32-.58-1.26-1.56-1.3-1.78-.07-.42.75-.93.79-1.44.02-.27-1.21-3.97-1.43-4.49-.69-1.61-1.52-3.12-2.9-4.26-1.73-1.43-2.77-.68-3.06,1.37-.36,2.5,1.83,4.95,2.88,7.12,1.94,4.03,3.79,8.17,4.34,12.63-2.09-3.32-3.88-6.86-6.12-10.09-2.32-3.34-5.29-7.53-9.07-9.22-4.98-2.23-7.94.46-3.39,4.47,4.21,3.71,10.06,6.28,13.39,11.39l1.79,2.44c-1.33-1.06-2.61-2.22-3.99-3.25-4.58-3.41-17.25-12.11-22.9-11.06-2.59.48-4.91,3.23-2.8,5.58,1.1,1.22,8.91,2.21,11.11,2.78,6.06,1.57,11.96,4.11,17.04,7.82l-4.49-1.5c-5.08-1.45-15.55-3.26-20.69-2.66-3.39.4-4.2,3.43-1.36,5.28,2.89,1.88,8.76.19,12.04-.02,5.44-.35,11.33.72,16.37,2.81-3.91.21-7.88.07-11.79.42-2.93.26-10.76.89-11.52,4.41-.29,1.35.68,1.78,1.85,2.01,1.88.37,10.13-2.42,12.72-3,3.53-.79,7.11-1.33,10.68-1.89-.42,2.31-4.77,4.66-6.87,5.34-.68.52.01.49.27.76.88.93,2.08,2.27,2.79,3.31l.88-.08c1.52-1.26,2.81-2.78,3.99-4.36-.33.55-.31.96.05,1.21.42.52.8-.06,1.44.15.6.2.99.83,1.61.87.41-.23.52-.7.33-1.42l3.89,9.53.53.02c.53-.08.87-.91.68-1.36l.35-.44c-.93-2.99-2.18-5.79-3.74-8.38.65,1.09,1.33,2.16,2.31,2.99l.49-.19c-.18,1.06,3.03,1.97,3.65,1.27.93-2.91,4.77-3.51,7.22-2.37.41.19,1.03.79,1.77,1.18,1.8,1.39,3.68,2.65,5.65,3.79l.96.11c.33-.02.68.41.58-.26ZM227.22,175.95c-1.89.66-1.42.85-3.73.57-1.99-.24-3.68-.74-5.34-1.94,1.61.21,3.01.48,4.66.44,4.8-.14,5.63-1.16,10.43,1.43-1.66-.51-4.37-1.08-6.02-.5Z"/>
  <path class="f" d="M306.91,183.4c.2-.12.26-.5.28-.5-.42-2.79-3.75-3.03-6.02-3.44-6.89-1.25-14.51-1.22-21.45-.63,4.97-2.2,10.77-3.51,16.2-3.82,2.94-.17,9.95.62,12.21-.09,1.77-.56,2.53-3.05,1.51-4.48-2.72-3.77-8.77-2.23-12.53-1.25-6.45,1.68-13.38,4.51-19.08,7.94l-.25-.42,7.21-5.18c-1.49.08-2.99-.31-4.41-.68l-.7.04-4.01,4.23c-.17.17,2.06-4.06,2.32-4.24l-.16-.55c.19-.73.15-.4-.24-.67-.63-.45-1.48-.88-2.13-1.36l-.74.45c-1.12,2.23-1.97,4.54-2.55,6.94.12-1.05-.02-1.94-.44-2.64-1.28.36-2.05-.28-3.22-.51l-.39.45.79,3.59c-1.65-3.2-2.97-6.52-3.97-9.97-.78-.96-2.65-1.51-3.21-.18-.41.71-.76,1.49-1.19,2.2-.34.79-.4,1.42-.17,1.87,1.71,4.39,5.36,7.47,8.65,10.69l-4.15-1.44c-1.55-.7-2.99-1.59-4.33-2.64-.51-.04-1.02.22-1.52.79l-2.63,1.64c-.54.56-.4.88.42.96-.21.74.67,1.42,1.36,1.02.17.25.34.42.52.55-.11-.03-.23-.06-.35-.04-.38-.57-1.45-.16-1.19.51,1.44,1.71.4,5.64.94,6.86.1.23.58.32.58.43,0,.08-.33.35-.38.6-.2.98-.5,2.33.05,3.15.76.52,2.34-.18,2.2-1.19.38-1.23,1.36-2.86,2.63-3.26.46-.15,1.36.04,1.78-.13.28.12.45.4.51.85.07.07.1.72.51.85l1.02-1.02c.48-.75,1.21-1.79,1.79-2.46.17-.2.51-.76.75-.42-1.75,4.21-2.68,10.3,1.62,13.33,2.22,1.56,4.38.89,3.46-2.05-.78-2.49-2.08-4.49-2.73-7.29-.09-.39-.99-4.32-.31-4.32,1.67,4.79,4.31,8.3,8.48,11.19.5.35,1.06.37,1.7,1.02,1.15.9,3.68,2.23,4.75,1.02-1.21-1.73-3.05-4.63-2.71-6.78l-.5-.77c-3.75-1.78-6.68-4.25-8.8-7.44,3.84,1.41,7.63,2.94,11.36,4.6l.82.04c1.43,1.36,3.01,2.15,4.75,2.37.09-.77.76-4.26,1.02-4.75l-.55-.55c-4.21-1.72-8.57-2.98-13.09-3.78,2.98-.59,6.04-.73,9.09.05l6.53,1.57.74-.35c1.32.23,2.34-.82,3.22,1.19.93,1.3,3.88,1.58,5.26.85,1.12-1.19,1.76-1.7,3.11-2.55ZM259.64,184.52c-.14-.22.22-1.1.24-1.45-.25-.23-.38-.41-.41-.55-.1-.1-.19-.2-.3-.27.18.05.36.06.54-.02,2.75,1.28,5.61,2.06,8.65,2.2-.94,1.22-8.33.72-8.72.1Z"/>
  <path class="k" d="M259.71,182.22c0,.27.19.6.17.85-.37-.16-1.11-.75-1.36-1.02-.03-.04-.03-.4-.17-.51.44.22.92.47,1.36.68Z"/>
</svg>