<?xml version="1.0" encoding="UTF-8"?>
<svg id="a" data-name="Layer 1" xmlns="http://www.w3.org/2000/svg" viewBox="0 0 504 360">
  <defs>
    <style>
      .b {
        fill: #bcc790;
      }

      .c {
        fill: #bac68e;
      }

      .d {
        fill: #f8f9f5;
      }

      .e {
        fill: #fefefe;
      }

      .f {
        fill: #f1f3e8;
      }
    </style>
  </defs>
  <path class="e" d="M167.44,200.06c.03.19.15,1.04-.24.96-1.12-3.13-5.81-4.54-8.77-3.6-.17.05-.54-.07-.35.36.75,1.71,4.49,3.9,6.37,3.97,1.43.05,1.93-.69,3.23.83.25.29,1.42,2.11.6,2.05s-1.64-.43-2.52-.24l.96,1.92-2.64-.24c.67,1.57,1.92,3.33,3.6,3.84l-2.65,1.06-.94.73c.21.57,1.84.77,1.92.84.48.45-1.02.63-.72,1.19l2.64.97c-.1.7-1.29.36-1.42.49-.06.06.01.63-.14.93-.25.49-1.18.92-1.07,1.69h3.12c.15,1.24-.99,1.52-1.92,1.92.66.67,1.19.77.96,1.92,1.39-.44,2.6-.6,4.08-.48-.35.4-2.37,2.19-1.92,2.64h2.16c-.4.61-.97,1.02-1.35,1.66-.16.28-.51.33-.1.63,1.74.41,3.46-.37,5.04-.97-.2,1.1-1.05.9-1.67,1.68,0,.36,1.72.59,1.19,1.08-.07.06-.79-.23-1.08-.24-1.67-.08-2.83.09-4.39.66-.23.09-.72-.05-.53.42.67,1.65,6.41,3.64,8.16,2.52.07,1.24-1.23,1.25-1.77,1.66-.75.57.67.59.79.76.22.31-.34,1.3-.22,1.42.69.01,1.14-.67,1.81-.71.63-.04,1.52.44,2.27.23l-1.92,2.28,1.44.12c.27.23-1.04,1.11-.08,1.41,1.19.37,3.72-.74,4.88-1.17l-.24,2.88c.91.26,1.94-1.44,2.51-1.44.75,0,4.35,3.6,6.14,1.78-.82-2.13-1.53-2.44.7-3.94.05.95-.21,2.04.36,2.88l1.62-1.74,1.38-2.81c.57.53.61,2.77.72,2.88.06.06,1.63.19,1.7.14.28-.23.31-1.29,1.18-1.34-.37,1.41-.24,2.67,0,4.08l.94-.38,1.7-2.26c.53,1.24.48,1.88,0,3.12.99-.15,1.47.08,2.16.72l.61-1.68,1.79-1.44c.12.67-.22,2.13.11,2.65.54.84,1.33-1.13,2.05-.97.02.42-.17,2.41.36,2.39.12,0,1.49-1.45,1.66-1.69.43-.6.69-2.16,1.42-1.87.91.35.99,1.6.64,2.37.38-.28,1.57,0,1.65-.04.08-.05.74-1.27,1.47-1.04-.42.53-.28,3.75,0,3.96l1.08-.72,1.55-2.16c.41.62-.11,3.24,0,3.36.1.1,1.45-.63,1.8.72.65-1.39,1.15-2.24,2.52-3.12l.24,2.88,1.92-1.44.36,2.64c1.88-.9,1.39-3.12,4.03-2.35.6.18.87,1.22,1.61,1.15-.44-1.87,1.89-1.69,3.25-2.15,4.37-1.49,8.74-3.97,13.43-4.33,2.1-.16,4.39.18,6.47,0,5.95-.53,10.38-5.44,15.32-8.2,3.69-2.06,8.36-3.07,11.19-6.33,3.2-3.68,3.96-9.52,8.09-12.55,1.55-1.14,3.51-1.65,4.99-2.93,1.15-.99,2.01-2.47,3.24-3.48,5.05-4.14,13.03-2.37,19.03-4.73,6.36-2.51,9.05-10.31,10.72-16.4.16-.6.61-3.56.75-3.69.22-.21,1.95.1,2.39.23.05-1.18-1.01-1.89-1.44-2.88.57.16,3.71-.28,3.84-.85s-2.53-1.88-3.12-1.8c.08-.36,1.08-.61,1.38-.66.66-.11,1.32-.05,1.98-.06-.76-.97-.27-1.26.24-2.16-1.67.03-2.41-.85-3.6-1.8,2.28-.43,4.38-.45,1.2-2.16.18-.41,2.18-.55,2.4-.84.39-.52-1.78-1.45-2.09-1.62-.21-.12-.41.08-.28-.38.03-.11.88-1.74.97-1.8.26-.16,3.8-.17,3.8-.88-.46-.82-1.68-1.1-2.25-1.54-.65-.51.7-.62,1.22-.93.3-.18,1.98-1.44,1.98-1.61-.96-1.01-3.03.13-2.87-1.67.05-.53.6-.97.48-1.57-1.7.39-2.34-1.19-3.84-1.44l2.87-2.28-1.43-.72c0-.54,3.85-1.81-1.2-2.04,2.22-2.47,2.02-5.93.96-8.88-.72-.54-2.09,2.89-2.63,3.12v-2.64c-.43-.47-2.42,1.98-2.88,2.16-.27-1.26.42-2.17.48-3.36-.08-.09-.61.31-.96.14-.41-.2-.38-1.06-.84-.86-.32.15-.48.87-.73,1.19-.11.13-1.15.76-.59.13v-4.56c0-.24-.72-1.64-.84-2.04-.97.54-1.81,3.16-2.65,3.35s.1-.99-.12-1.19l-3.36.48c.33-2.16.88-3.63-1.55-1.67l-1.32,1.43c-.2-1.26.21-2.19.48-3.36-.3-.04-.79.15-.99-.14-.35-.48-.33-2.93-.93-3.7-.26-.19-2.22,2.59-2.16,3.12-.51.08.07-.95-.59-.72-.3.11-1.55,1.46-1.8,1.2l.24-2.64c-.37-.41-2.51,1.78-2.99,1.92-.55-.13-2.69-5.16-1.56-6-1.78.18-2.8-1.74-2.4-3.36-1.15-.26-1.72,1.5-2.73,1.18-1.09-.34.61-2.14.33-2.38-1.25.23-1.28-.15-2.04-.72-.71,1.12-.96,1.85-2.51,1.7l-.25.7.24-2.4c1.08,1.34,1.72.21,2.21-1.03.83-2.11.53-5.39-.72-7.3-.8-1.22-1.22.23-1.6,1.13-.63,1.48-.97,3.03-.82,4.65.18,1.91,1.09,1.77-1.11,3.26l.12-2.88c-1.66.67-2.81,2.12-3.72,3.6-.15,0-.82-1.59-.96-1.92-.61-1.44-.37-2.93-1.66-.93-.23.35-.69,1.8-1.1,1.42-.34-.31-1.03-3.02-2.28-3.12l-.37,1.2c-.5-.18-3.07-1.23-3.36-.96l.24,1.44-.72-.24c.35,1.55.05,2.58-.24,4.08l-2.04-2.4-.6,2.16-1.91-1.92-.49,2.4c-1.34-.67-2.75-1.49-4.32-1.44l.12.96,1.32,3.48c-.5.09-.89-1.47-1.43-1.08-.11.08-.81,2.23-.89,2.59-.46,2.01,0,2.58-1.08,4.44-.26.45-.54,1.83-.94.79-.33-.87.09-1.36.04-2.17-.11-1.58-.87-3.63-1.81-4.93-.84.8-1.28,2-1.57,3.11l-3.59-.95c-.19.18,1.27,3.51,1.67,3.96l-1.43-.36c.74,1.61.11,2.69,0,4.32-.4-.2-.46-.77-.83-1.21-.16-.19-1.34-1.46-1.57-1.19l-.24,2.16-1.43-1.44c-.09.07-.29,2.21-.72,1.92-1.01-2.59-4.15-3.91-6.72-4.32-.36.36,1.74,4.13,2.15,4.62.39.46,1.18.63,1.44,1.14l-3.12-1.68c-.14,1.26.2,2.43.6,3.59-1.2.02-1.93-1.71-2.41-1.91-.55-.23-.41.79-.63.93-.24.15-.84-.02-1.17.03.68,1.33.89,2.3.72,3.84l-1.25-2.71c-1.3-2.28-3.91-3.42-6.43-3.77.41,2.35,1.84,4.57,3.84,5.88l-.96-.12.24,3.36c-.33.04-.4-.57-.48-.83-.56-1.78-.84-3.53-2.27-4.92-.7.01-1.74,4.92-1.56,5.76l-.84-.96c-.59-.16-.24.62-.58.85-1.09.75-3.08-1.36-4.17-1.86-.44-.2-2.53-.94-2.81-.67.1,1.51.94,3.06,1.91,4.2.76.89,2.2,1.53,2.17,2.63s-1.75-1.14-2.41-.84c-.09,1.66.63,3.21.96,4.8h-3.36c.1.52.72,1.32,1.08,1.68,1.37,1.32,2.82.92,2.28,3.6l-2.64-1.44c-.18,1.18.36,2.22.48,3.36-1.23.24-1.77-1.46-2.28-1.68-.55-.23-.4.77-.63.92s-.85-.02-1.16.03h-.24c-.1-1.24-.61-2.81-1.37-3.78-.15-.19,0-.44-.55-.3-.56,1.56-1.5,3.01-1.66,4.7-.08.9.28,1.91.23,2.34-.02.16-.44.13-.49.31-.26,1.01.48,2.05.41,2.8-.02.23-.62,1.81-.89,1.47-.45-.58-.89-1.17-1.38-1.72-.1-.12-.16-.66-.55-.31-.12.11-.25,1.16-.24,1.44l-1.2-.48c-.11,1.31.32,2.58.6,3.83-1.18-.93-2.7-1.47-4.2-1.19.52,1.33,1.01,2.11.48,3.6-1.28-.88-2.75-1.36-3.72-2.63-.58,0-1.01,3.92-.84,4.56-1.03-.33-1.4-1.12-1.44-2.16l-1.44.96c.11-.42-.12-3.13-.6-3.12l-1.8,1.91c-.29-2.9-4.33-5.93-7.08-5.77-.36.02-.43-.09-.34.34.31,1.41,1.43,2.53,1.9,3.87l-1.2-.36c.48,1.63-.28,2.55-.48,4.08-.45-.23-.53-.96-.85-1.42-1.66-2.35-1.05.05-2.02.94.01-.46-1.25-2.24-1.68-1.92l-.6,2.64c-.53-.51-1.68-.78-2.17-1.19s-.7-1.34-1.19-1.93c-.24-.29-2.28-2.41-2.52-2.15l-.48,6.72c-.96-.6-1.61-1.46-1.44-2.64-.97.14-1.34.76-2.4.24.38,1.36.24,2.67-.6,3.84l-1.68-2.4-.72,2.4c-.19-.26-1.53-2.61-1.8-2.4-.67,1.89-.92,3.56-.36,5.51-.32-.65-3.35-2.04-3.72-1.67.31,1.41.44,3.23,1.92,3.84.06.42-.26.2-.49.13-.61-.2-1.19-.7-1.91-.61.17,1.07.58,2.1,1.19,3-1.45-.28-2.85-.57-4.31-.12l.71,1.09,1.93,1.55c-1,.66-2.39-.18-3.19,0-.18.04-.14.43-.33.48-.58.14-2.81-.3-2.95.37-.11.51,3.19,3.41,4.08,3.24.06.41-.87.28-1.08.24-.69-.11-1.12-.51-1.79-.49-.2,2.01.15,3.62.91,5.45.21.5,1.04,1.51,1.02,1.86-.01.2-.75.23-.94.77-.28.78.32.48.45.57.03.02-.02.16,0,.24ZM345.76,150.63c-3.46,0-8.16,1.44-8.4,5.52,3.77.51,7.34-1.97,8.4-5.52ZM214,168.14c-.61-3.85-4-6.07-7.68-6.47.64,3.47,3.87,7.34,7.68,6.47ZM189.76,247.82c-1.4-3.56-5.98-4.44-9.36-3.35-.31.44,2.33,2.55,2.8,2.83,2.13,1.28,4.26,1.65,6.56.52Z"/>
  <path class="c" d="M224.56,159.5c.32-.05.94.12,1.16-.03s.09-1.16.63-.92c.51.22,1.05,1.92,2.28,1.68-.11-1.14-.66-2.18-.48-3.36l2.64,1.44c.54-2.68-.91-2.28-2.28-3.6-.37-.35-.98-1.16-1.08-1.68h3.36c-.33-1.59-1.05-3.14-.96-4.8.66-.31,2.38,1.9,2.41.84s-1.41-1.74-2.17-2.63c-.98-1.15-1.81-2.7-1.91-4.2.27-.27,2.36.47,2.81.67,1.1.5,3.08,2.61,4.17,1.86.34-.23-.01-1.02.58-.85l.84.96c-.18-.84.86-5.74,1.56-5.76,1.43,1.39,1.72,3.15,2.27,4.92.08.26.15.87.48.83l-.24-3.36.96.12c-2-1.31-3.42-3.53-3.84-5.88,2.52.34,5.13,1.48,6.43,3.77l1.25,2.71c.17-1.53-.04-2.5-.72-3.84.33-.05.92.12,1.17-.03.22-.14.08-1.16.63-.93.47.2,1.2,1.93,2.41,1.91-.4-1.17-.75-2.33-.6-3.59l3.12,1.68c-.27-.51-1.05-.67-1.44-1.14-.41-.49-2.52-4.25-2.15-4.62,2.57.41,5.71,1.73,6.72,4.32.43.3.63-1.85.72-1.92l1.43,1.44.24-2.16c.22-.27,1.4,1,1.57,1.19.37.43.43,1,.83,1.21.11-1.62.74-2.71,0-4.32l1.43.36c-.41-.45-1.86-3.78-1.67-3.96l3.59.95c.29-1.11.73-2.31,1.57-3.11.94,1.29,1.7,3.35,1.81,4.93.05.81-.37,1.3-.04,2.17.4,1.04.68-.34.94-.79,1.08-1.86.63-2.43,1.08-4.44.08-.36.78-2.51.89-2.59.54-.39.93,1.17,1.43,1.08l-1.32-3.48-.12-.96c1.56-.05,2.97.76,4.32,1.44l.49-2.4,1.91,1.92.6-2.16,2.04,2.4c.29-1.49.6-2.53.24-4.08l.72.24-.24-1.44c.28-.27,2.85.78,3.36.96l.37-1.2c1.25.1,1.94,2.81,2.28,3.12.41.38.87-1.07,1.1-1.42,1.29-1.99,1.05-.51,1.66.93.14.32.8,1.92.96,1.92.91-1.48,2.06-2.93,3.72-3.6l-.12,2.88c2.19-1.49,1.29-1.35,1.11-3.26-.15-1.62.19-3.17.82-4.65.38-.9.8-2.36,1.6-1.13,1.25,1.91,1.55,5.19.72,7.3-.49,1.24-1.13,2.38-2.21,1.03l-.24,2.4.25-.7c1.54.15,1.8-.58,2.51-1.7.76.57.79.95,2.04.72.28.24-1.42,2.04-.33,2.38,1.01.32,1.58-1.44,2.73-1.18-.39,1.63.62,3.54,2.4,3.36-1.12.84,1.01,5.87,1.56,6,.48-.14,2.63-2.33,2.99-1.92l-.24,2.64c.26.26,1.5-1.09,1.8-1.2.66-.23.08.8.59.72-.06-.53,1.9-3.31,2.16-3.12.6.77.58,3.22.93,3.7.21.29.69.1.99.14-.27,1.17-.68,2.1-.48,3.36l1.32-1.43c2.44-1.96,1.88-.48,1.55,1.67l3.36-.48c.22.2-.69,1.38.12,1.19s1.68-2.82,2.65-3.35c.12.4.84,1.8.84,2.04v4.56c-.56.63.49,0,.59-.13.25-.32.41-1.04.73-1.19.46-.21.43.65.84.86.35.17.87-.23.96-.14-.06,1.19-.75,2.1-.48,3.36.46-.17,2.45-2.63,2.88-2.16v2.64c.54-.23,1.92-3.66,2.64-3.12,1.06,2.94,1.26,6.41-.96,8.88,5.06.23,1.21,1.5,1.2,2.04l1.43.72-2.87,2.28c1.5.26,2.14,1.83,3.84,1.44.13.61-.43,1.04-.48,1.57-.16,1.79,1.91.66,2.87,1.67,0,.17-1.68,1.43-1.98,1.61-.52.31-1.87.41-1.22.93.56.44,1.79.72,2.25,1.54,0,.71-3.54.72-3.8.88-.09.05-.94,1.69-.97,1.8-.13.46.07.26.28.38.32.18,2.48,1.1,2.09,1.62-.22.29-2.22.43-2.4.84,3.18,1.7,1.08,1.73-1.2,2.16,1.19.96,1.93,1.83,3.6,1.8-.51.9-1,1.18-.24,2.16-.66,0-1.32-.05-1.98.06-.3.05-1.3.3-1.38.66.59-.08,3.25,1.25,3.12,1.8s-3.27,1-3.84.85c.43.98,1.49,1.69,1.44,2.88-.44-.13-2.17-.44-2.39-.23-.14.13-.58,3.09-.75,3.69-1.67,6.09-4.36,13.89-10.72,16.4-5.99,2.37-13.98.6-19.03,4.73-1.23,1.01-2.09,2.49-3.24,3.48-1.48,1.28-3.44,1.79-4.99,2.93-4.13,3.03-4.89,8.87-8.09,12.55-2.83,3.26-7.5,4.26-11.19,6.33-4.94,2.76-9.37,7.67-15.32,8.2-2.08.19-4.38-.15-6.47,0-4.7.36-9.06,2.83-13.43,4.33-1.36.47-3.69.28-3.25,2.15-.73.07-1.01-.97-1.61-1.15-2.64-.77-2.14,1.45-4.03,2.35l-.36-2.64-1.92,1.44-.24-2.88c-1.37.88-1.87,1.73-2.52,3.12-.34-1.35-1.7-.62-1.8-.72-.12-.12.41-2.74,0-3.36l-1.55,2.16-1.08.72c-.29-.21-.43-3.44,0-3.96-.73-.23-1.38.99-1.47,1.04-.07.04-1.27-.24-1.65.04.35-.77.27-2.02-.64-2.37-.73-.28-.99,1.27-1.42,1.87-.17.24-1.55,1.69-1.66,1.69-.53.01-.34-1.97-.36-2.39-.71-.17-1.51,1.81-2.05.97-.33-.52,0-1.98-.11-2.65l-1.79,1.44-.61,1.68c-.69-.64-1.17-.87-2.16-.72.47-1.24.53-1.88,0-3.12l-1.7,2.26-.94.38c-.25-1.41-.38-2.67,0-4.08-.87.05-.9,1.1-1.18,1.34-.07.05-1.63-.08-1.7-.14-.11-.11-.15-2.35-.72-2.88l-1.38,2.81-1.62,1.74c-.58-.84-.31-1.93-.36-2.88-2.23,1.5-1.52,1.81-.7,3.94-1.79,1.82-5.39-1.78-6.14-1.78-.57,0-1.6,1.7-2.51,1.44l.24-2.88c-1.16.42-3.69,1.54-4.88,1.17-.96-.3.35-1.17.08-1.41l-1.44-.12,1.92-2.28c-.75.21-1.64-.27-2.27-.23-.67.04-1.12.72-1.81.71-.12-.12.44-1.11.22-1.42-.12-.17-1.54-.19-.79-.76.55-.42,1.84-.42,1.77-1.66-1.75,1.12-7.49-.87-8.16-2.52-.19-.47.29-.33.53-.42,1.56-.57,2.72-.73,4.39-.66.29.01,1.01.3,1.08.24.53-.49-1.19-.72-1.19-1.08.62-.78,1.47-.58,1.67-1.68-1.58.59-3.3,1.38-5.04.97-.41-.3-.07-.35.1-.63.38-.64.95-1.05,1.35-1.65h-2.16c-.45-.45,1.57-2.24,1.92-2.64-1.48-.12-2.69.03-4.08.48.23-1.15-.3-1.24-.96-1.92.93-.41,2.07-.68,1.92-1.92h-3.12c-.11-.77.83-1.21,1.07-1.69.15-.3.08-.87.14-.93.14-.13,1.32.21,1.42-.49l-2.64-.97c-.3-.57,1.19-.74.72-1.19-.08-.07-1.7-.27-1.92-.84l.94-.73,2.65-1.06c-1.68-.52-2.93-2.27-3.6-3.84l2.64.24-.96-1.92c.88-.19,1.72.18,2.52.24s-.35-1.76-.6-2.05c-1.3-1.52-1.81-.78-3.23-.83-1.88-.07-5.62-2.26-6.37-3.97-.19-.43.18-.31.35-.36,2.97-.93,7.65.48,8.77,3.6.39.08.27-.77.24-.96,1.22.3,1.97,1.03,3.36.72-.53-1.04-2.31-.84-3.36-.96-.12-.08-.72.21-.45-.57.19-.53.93-.57.94-.77.02-.35-.81-1.36-1.02-1.86-.76-1.83-1.11-3.44-.91-5.45.67-.02,1.11.38,1.79.49.21.03,1.14.16,1.08-.24-.89.17-4.19-2.73-4.08-3.24.14-.67,2.38-.23,2.95-.37.18-.05.15-.44.33-.48.8-.18,2.19.66,3.19,0l-1.93-1.55-.71-1.09c1.46-.45,2.86-.16,4.31.12-.61-.9-1.02-1.93-1.19-3,.72-.09,1.3.41,1.91.61.23.08.55.29.49-.13-1.47-.61-1.61-2.44-1.92-3.84.37-.36,3.4,1.03,3.72,1.67-.56-1.96-.31-3.63.36-5.51.27-.21,1.61,2.14,1.8,2.4l.72-2.4,1.68,2.4c.85-1.17.99-2.48.6-3.84,1.05.52,1.42-.1,2.4-.24-.17,1.18.48,2.04,1.44,2.64l.48-6.72c.25-.26,2.29,1.86,2.52,2.15.49.59.71,1.52,1.19,1.93s1.64.69,2.17,1.19l.6-2.64c.43-.32,1.7,1.46,1.68,1.92.98-.89.36-3.3,2.02-.94.32.46.41,1.2.85,1.42.21-1.53.96-2.45.48-4.08l1.2.36c-.46-1.34-1.59-2.46-1.9-3.87-.09-.43-.02-.32.34-.34,2.75-.16,6.79,2.87,7.08,5.77l1.8-1.91c.48-.01.71,2.69.6,3.12l1.44-.96c.04,1.04.41,1.83,1.44,2.16-.17-.64.26-4.56.84-4.56.97,1.27,2.44,1.76,3.72,2.63.53-1.49.05-2.27-.48-3.6,1.5-.28,3.02.26,4.2,1.19-.28-1.26-.71-2.52-.6-3.83l1.2.48c0-.28.13-1.33.24-1.44.38-.36.44.19.55.31.49.55.92,1.14,1.38,1.72.27.34.86-1.24.89-1.47.07-.75-.66-1.79-.41-2.8.05-.19.47-.15.49-.31.06-.44-.31-1.45-.23-2.34.16-1.7,1.09-3.14,1.66-4.7.55-.14.39.11.55.3.76.97,1.27,2.54,1.37,3.78.13,1.59-.57,3.2,1.2,4.08.14-1.64.05-2.76-.96-4.08ZM329.43,144.14c.17-.34-.15-.64-.24-.48-.17.34.15.64.24.48ZM329.19,144.86c.17-.34-.15-.64-.24-.48-.17.34.15.64.24.48ZM191.44,237.74l-.36-2.64-1.32,1.32c.25.2,1.39,1.62,1.67,1.32Z"/>
  <path class="b" d="M189.76,247.82c-2.29,1.13-4.43.76-6.56-.52-.47-.28-3.12-2.39-2.8-2.83,3.38-1.08,7.95-.21,9.36,3.35Z"/>
  <path class="b" d="M345.76,150.63c-1.06,3.54-4.63,6.03-8.4,5.52.24-4.08,4.94-5.52,8.4-5.52Z"/>
  <path class="b" d="M214,168.14c-3.81.86-7.04-3-7.68-6.47,3.68.4,7.07,2.63,7.68,6.47Z"/>
  <path class="d" d="M224.56,159.5c1,1.32,1.09,2.44.96,4.08-1.77-.88-1.06-2.49-1.2-4.08h.24Z"/>
  <path class="f" d="M167.44,199.82c1.05.11,2.83-.09,3.36.96-1.39.31-2.14-.42-3.36-.72-.02-.08.03-.22,0-.24Z"/>
  <path class="d" d="M191.44,237.74c-.28.3-1.42-1.12-1.67-1.32l1.32-1.32.36,2.64Z"/>
  <path class="e" d="M329.43,144.14c-.08.16-.41-.14-.24-.48.08-.16.41.14.24.48Z"/>
  <path class="e" d="M329.19,144.86c-.08.16-.41-.14-.24-.48.08-.16.41.14.24.48Z"/>
</svg>