<?xml version="1.0" encoding="UTF-8"?>
<svg id="a" data-name="Layer 1" xmlns="http://www.w3.org/2000/svg" viewBox="0 0 504 360">
  <defs>
    <style>
      .b {
        fill: #fcfcfc;
      }

      .c {
        fill: #f9faf7;
      }

      .d {
        fill: #f5f6f0;
      }

      .e {
        fill: #ccd4b0;
      }

      .f {
        fill: #e7ebda;
      }

      .g {
        fill: #fafaf7;
      }
    </style>
  </defs>
  <path class="e" d="M260.12,153.5c.72-.04,1.44.03,2.16,0-.26-1.03-2.32-2.76-2.28-3.62.05-1.02,1.5-4.31,2-5.42,2.77-6.12,7.45-12.59,12.52-17,.22-.19,1.76-1.49,1.92-1.32l-4.32,12c.44.35,4.05-2.92,4.56-2.4l2.65,16.42-6.24,4.22,5.76-.48.72,11.83-8.4,6.41,7.68-1.8c7.86-9.68,18.92-16.58,30.61-20.75l-2.28,12.36c-4.44,1.6-8.91,3.13-13.44,4.44-.05.22.06.36.24.48.56.02,1.12-.01,1.68,0l1.2.24c.48.01.96-.03,1.44,0l1.2.24c.39.03.81-.05,1.2,0l1.44.24c.27.09.56-.24.45.32-.15.73-2.78,7.23-3.1,7.47-4.56,1.47-9.09,3.06-13.67,4.45-.18.5.8.45,1.2.24.39-.04.81.04,1.2,0,.42,0,.82-.07,1.2-.24.39-.04.81.04,1.2,0,.42,0,.82-.08,1.2-.24.47-.05.97.04,1.44,0l1.2-.24c.39-.03.8.03,1.2,0l1.2-.24c.32.03.59-.15.46.33-.88,1.23-2.96,8.51-3.81,8.91l-15.48,2.52c-.4.34.21.2.36.24l1.68.24c.56.02,1.12,0,1.68,0l1.68.24c.56,0,1.12,0,1.68,0l1.68.24c.56,0,1.12,0,1.68,0l1.68.24c.4.02.8-.02,1.2,0,.44.43-2.55,7.78-3.01,8.87-3.77,9.05-9.66,19.15-16.79,25.93-.66.63-5.88,5.15-6.36,4.79-1.69-4.15-2.48-8.26-2.64-12.72-.22-2.07-.27-4.2,0-6.24.01-.56-.03-1.12,0-1.68l.24-1.2c.06-.4-.02-.81.24-1.2-8.09-2.25-15.94-5.99-23.02-10.46-.82-.52-5.43-3.49-5.68-3.93-.16-.28-.11-.41.12-.61,3.17-2.71,6.31-5.48,9.61-8.03.03-.18-.05-.26-.24-.24-4.54,2.09-8.98,4.36-13.44,6.62l-.78.06-7.86-5.12c3.29-2.07,6.66-4.09,10.08-5.88.14-.19-.02-.27-.48-.24-3.83,1.15-9.36,3.56-12.95,4.22-.42.08-.79.21-1.22,0l-6.47-4.1c-.12-.52,5.62-5.22,6.48-5.88.04-.19-.12-.27-.48-.24-4.3,1.32-8.59,2.68-12.87,4.08-.21.04-.38-.03-.56-.11-.16-.07-2.26-2.04-2.65-2.4-2.14-1.96-4.11-4.15-6.24-6.12,4.67-1.51,9.51-2.43,14.4-2.88l1.2-.24c.55-.04,1.12,0,1.68,0l2.64-.24c1.2,0,2.4,0,3.6,0l2.64.24c.48,0,.97-.03,1.44,0l1.2.24c3.91.4,8.25,1.26,12,2.4.47.07.63-.01.48-.24-.42-.47-2.5-2.6-2.15-3.11,1.65-.68,3.39-1.24,5.03-1.93-1.55-.35-3.15-.51-4.8-.48-.78-.01-3.12.16-3.6-.12l-4.95-8.03c-.17-.31-.05-.38.14-.6.48-.53,2.6-1.45,3.36-1.81l.02-.22c-.8-.11-1.61-.12-2.42-.02-.8,0-1.6,0-2.4,0-.37.2-.83.2-1.2,0l-6.2-12.17-.04-.55c.64-.02,1.28.02,1.92,0,.73-.07,1.45-.15,2.16-.24-.47-.51-9.32-5.92-8.88-6.24.64,0,1.28-.02,1.92,0l1.2.24c5.41.55,11.28,2.58,16,5.24.62.35,3.86,2.32,4.04,2.68.38.77-.03,2.45.12,3.36.3.34,2.64-2.14,3.35-1.57l12.24,11.53c-1.33.88-2.71,1.7-4.08,2.52-.28.22-.12.3.48.24.87-.1,5.63-.66,5.97-.45.84,1.96,1.6,4.29,2.91,5.97.53-1.64,1.73-11.34,2.4-12l1.92-.24Z"/>
  <path class="b" d="M262.52,220.94c-.42-1.48-.26-3.35-.24-4.92,0-.41-.15-1.07.24-1.32-.05,2.02-.07,4.22,0,6.24Z"/>
  <path class="b" d="M233.72,165.98c1.84.03,3.68-.02,5.52,0,.05.32-.47.37-.72.48l-4.8-.48Z"/>
  <path class="b" d="M226.28,155.18l3.12-.24c.04.33-.46.36-.72.48-.55-.44-1.65-.24-2.4-.24Z"/>
  <path class="b" d="M285.8,181.82c.21.39.82.23,1.2.24-.02,0,.03.2-.36.23-.68.06-1.37-.02-2.04,0,.03-.39.86-.37,1.2-.48Z"/>
  <path class="b" d="M214.28,168.86c-.63.44-1.81.23-2.64.24.63-.44,1.81-.24,2.64-.24Z"/>
  <path class="b" d="M220.52,169.1c-.83,0-2,.21-2.64-.24.83,0,2.01-.2,2.64.24Z"/>
  <path class="b" d="M220.52,142.22c0,.41-1.65.22-2.16.24.49-.5,1.48-.15,2.16-.24Z"/>
  <path class="b" d="M231.32,182.78c.38-.11.86-.65,1.44-.48-.12.43-.62.54-.96.72l-.48-.24Z"/>
  <path class="b" d="M260.12,153.5c-.41.48-1.32.16-1.92.24.45-.45,1.28-.21,1.92-.24Z"/>
  <path class="b" d="M216.68,176.78c.33-.1.71-.61,1.2-.48-.08.36-.46.52-.72.72l-.48-.24Z"/>
  <path class="b" d="M280.04,193.34c-.8-.03-.95-.04-1.68-.24.53.06,1.34-.22,1.68.24Z"/>
  <path class="b" d="M283.4,193.58c-.53,0-1.35.18-1.68-.24.53,0,1.35-.18,1.68.24Z"/>
  <path class="b" d="M286.76,193.82c-.53,0-1.35.18-1.68-.24.53,0,1.35-.18,1.68.24Z"/>
  <path class="b" d="M290.12,194.06c-.53-.03-1.34.2-1.68-.24.57,0,1.22-.16,1.68.24Z"/>
  <path class="b" d="M246.92,160.22c-.21.02-.7.47-1.2.24-.08-.33.4-.29.72-.48l.48.24Z"/>
  <path class="f" d="M293.72,168.38l.24.48c-.32-.01-.64.01-.96,0,.05-.4.43-.39.72-.48Z"/>
  <path class="b" d="M302.12,169.58c-.45-.03-1.17.18-1.44-.24.63.08.73-.01,1.44.24Z"/>
  <path class="b" d="M235.64,171.5c.19.21.63.2.48.72-.07.08-.8-.43-.96-.48l.48-.24Z"/>
  <path class="b" d="M243.8,187.34c.27-.13.48-.64.96-.48-.08.36-.46.52-.72.72l-.24-.24Z"/>
  <path class="b" d="M214.76,136.22c-.38-.04-.99.17-1.2-.24.42.01.85-.11,1.2.24Z"/>
  <path class="b" d="M223.88,155.18c-.19.38-1,.38-1.2,0h1.2Z"/>
  <path class="b" d="M296.84,169.1c-.39,0-1,.14-1.2-.24.39,0,1-.14,1.2.24Z"/>
  <path class="b" d="M209.96,169.1c-.21.39-.82.23-1.2.24.17-.02.67-.2,1.2-.24Z"/>
  <path class="b" d="M223.16,169.34c-.38-.01-1,.15-1.2-.24.55.04.93.21,1.2.24Z"/>
  <path class="b" d="M299.48,169.34c-.38-.01-.99.15-1.2-.24.53.03,1.06.23,1.2.24Z"/>
  <path class="b" d="M296.84,181.1c-.21.39-.82.23-1.2.24.13,0,.55-.29,1.2-.24Z"/>
  <path class="b" d="M294.44,181.34c-.21.39-.82.23-1.2.24.16-.01.7-.2,1.2-.24Z"/>
  <path class="b" d="M291.8,181.58c-.21.39-.82.23-1.2.24.18-.02.72-.19,1.2-.24Z"/>
  <path class="b" d="M289.4,181.82c-.21.39-.82.23-1.2.24.2-.02.71-.19,1.2-.24Z"/>
  <path class="b" d="M262.52,213.02c.03-.61.19-.84.24-1.2-.01.38.15,1-.24,1.2Z"/>
  <path class="g" d="M260.84,173.19c-.13.37-.84.65-1.19.84-.28.16-1.8.97-1.92.83-.53-2.21,1.54-1.58,3.12-1.68Z"/>
  <path class="c" d="M255.08,169.83c0,2.29-2.14.59-3.6.72-.06-.31.44-.38.66-.42.94-.15,1.99-.19,2.94-.3Z"/>
  <path class="d" d="M262.76,186.39c.09.08-.91,1.21-1.2.96-.38-.34,1.04-1.09,1.2-.96Z"/>
</svg>