<?xml version="1.0" encoding="UTF-8"?>
<svg id="Layer_2" data-name="Layer 2" xmlns="http://www.w3.org/2000/svg" viewBox="0 0 853.44 495.84">
  <defs>
    <style>
      .cls-1 {
        fill: #ced4b1;
      }
    </style>
  </defs>
  <g id="Background">
    <g id="BL_L3_3">
      <path class="cls-1" d="M370.22,428.4c.14-.16.28-.33.41-.48,0,0,.01-.01.02-.02.19-.23.37-.45.55-.66,0,0,0,0,0,0,1.43-1.73,2.29-2.87,2.29-2.87l-6.74-2.79,10.14-.1,5.74-9.29-4.89-2.84,7.32.37,7.07-13.92-5.15-.28s3.69-2.06,10.44-6.93c-15.07.46-25.59,9-25.59,9v3.97s-3.36-2.24-3.36-2.24l-13.84,12.83,5.59,3.35-7.93-.97-3.32,7.24-2.68-13.73-4.79-.21,2.78-3.79s-4.11-15.52-18.2-26.49c3.06,9.38,5.15,13.92,5.15,13.92l-5.12-3.33-2.94,18.25,7.26,4.76-6.66-.7-.99,12.89,9.63,7.18-8.4-2.04s0,.13,0,.35c-14.07-17.26-34.08-23.08-34.08-23.08l2.45,13.52,15.9,5.23-10.81,1.02,3.35,8.41,17.69,5.73-15.15-1.49,3.86,9.92,18.69,3.19-16.18,1.14s4.05,14.3,13.22,27.6h18.66c.08-2.86-.04-6.06-.5-9.65,17.44-4.9,31.56-15.95,31.56-15.95l-12.4-10.47,16.98,8.45,8.96-5.73-13.11-7.73,17.67,5.81,7.66-4.81-8.13-7.2,15.92,5.16,9.95-9.48s-22.61-8.2-45.94.01ZM342.31,445.09c-.84-.94-1.28-1.44-1.28-1.44l1.79,1.01c-.17.14-.34.29-.51.43ZM346.7,431.38l-3.83-2.14,3.86.35c-.03.59-.04,1.19-.03,1.78ZM350.01,427.14l-.28-1.44,4.58.53s-1.46.33-4.3.91Z"/>
    </g>
  </g>
</svg>