<?xml version="1.0" encoding="UTF-8"?>
<svg id="Layer_2" data-name="Layer 2" xmlns="http://www.w3.org/2000/svg" viewBox="0 0 1025.41 622.06">
  <defs>
    <style>
      .cls-1 {
        fill: #bdc690;
      }
    </style>
  </defs>
  <g id="Background">
    <g id="BL_L2_2">
      <path class="cls-1" d="M326.46,421.66c-17.06,3.13-17.01,15.85-17.01,15.85,9.24,1.07,15.11-7.77,17.01-15.85ZM418.36,478.13c.1-.48.18-.96.24-1.44-1.53.45-2.86,1-4.01,1.6-1.63-.45-3.12-.59-4.44-.52,2.75-1.52,5.13-4.02,6.78-6.63-4.6-.7-7.95,0-10.38,1.17,1.38-2.33,2.22-5.09,2.55-7.69-3.52,1.04-5.97,2.54-7.68,4.16-.08-.12-.16-.24-.23-.37,2.39-1.81,4.48-4.12,6.09-6.5-.34-.06-.66-.11-.99-.16.74-1.63,1.25-3.37,1.55-5.05-4.4,1.08-7.2,2.92-8.99,4.88-.07,0-.14.02-.21.03,1.74-4.01.86-9.17-1.03-13.18-1.94,2.22-3.14,4.32-3.84,6.25-.29-2.12-.93-4.21-1.8-6.06-2.25,2.57-3.49,4.98-4.12,7.14-.17-2.06-.96-4.1-2.11-5.96.31-1.45.48-2.92.49-4.34-1.02.43-1.91.9-2.74,1.38-.69-.75-1.42-1.46-2.17-2.08-.44,1.54-.7,2.95-.81,4.25-1.26,1.14-2.17,2.32-2.82,3.47.16-2.45-.32-5.03-1.16-7.38.26-3.13-.1-6.38-.89-9.29-4.41,3.54-6.73,7.11-7.86,10.32-.45.19-.87.38-1.28.59-.15-.13-.29-.28-.45-.41-.07.25-.12.48-.18.73-1.31.7-2.44,1.47-3.4,2.27-.21-2.4-.92-4.82-1.91-6.92-1.93,2.21-3.13,4.31-3.83,6.23-.29-2.11-.94-4.2-1.81-6.04-2.24,2.57-3.49,4.98-4.12,7.13-.17-2.06-.96-4.09-2.11-5.95.31-1.45.48-2.92.49-4.34-1.02.43-1.91.9-2.74,1.38-.18-.2-.37-.38-.55-.57,2.22-2.9,3.76-6.49,4.58-9.94-14.68,2.69-16.69,12.48-16.97,15.16-1.2-1.98-2.8-3.77-4.51-5.19-.95,3.33-1.05,6.07-.69,8.31-.97-1.24-2.08-2.38-3.24-3.34-.43,1.49-.68,2.85-.8,4.11-1.03.54-1.92,1.11-2.71,1.71.05-1.34-.03-2.71-.22-4.07,0-.51-.01-1.01-.05-1.5-.06.03-.12.07-.19.1-.38-1.95-.96-3.86-1.7-5.61-1.39,1.47-2.51,2.9-3.41,4.29,0-.22,0-.44-.02-.66-2.39,1.24-4.17,2.62-5.49,4.02.05-1.73-.22-3.52-.72-5.24.81-1.22,1.49-2.52,2.02-3.82-1.23.04-2.35.15-3.38.33-.15-.3-.29-.59-.45-.87-.3.39-.57.77-.82,1.15-2.54.63-4.45,1.66-5.86,2.82,1.34-2.85,1.79-6.28,1.59-9.37-.94.49-1.77,1-2.53,1.53-.33-1.29-.73-2.55-1.21-3.73-2.05,2.1-3.53,4.13-4.59,6.07-.43-1.54-1.03-3.02-1.76-4.37.62-2.24.83-4.65.68-6.88-.5.26-.97.53-1.42.8,1.68-5.78-.8-12.63-4.38-17.58-4.34,7.37-4.19,13.11-2.93,17.05-1.26.97-2.26,1.97-3.03,2.97.6-1.98.6-4.16.21-6.31.82-1.23,1.51-2.54,2.04-3.85-1.1.03-2.11.14-3.05.29-.37-.95-.79-1.87-1.26-2.73-.97,1.27-1.73,2.49-2.31,3.66-1.59.6-2.87,1.37-3.9,2.21,1.33-2.85,1.79-6.27,1.58-9.36-3.18,1.65-5.27,3.53-6.64,5.4.63-2.01.64-4.23.24-6.42,3.27-1.43,6.09-4.35,7.95-7.39-3.44-.46-6.17-.16-8.34.53.34-1.28.59-2.58.75-3.87.93-2.56,1.26-5.45,1.09-8.09-2.61,1.36-4.5,2.87-5.85,4.41.32-1.32.49-2.68.54-4.02,4.86-2.93,7.91-9,9.05-14.65-7.08,1.53-11.12,4.64-13.43,7.74.06-.13.12-.27.17-.4-1.1.03-2.11.14-3.05.29-.37-.95-.79-1.87-1.26-2.73-.97,1.27-1.73,2.49-2.31,3.66-.11.04-.21.09-.31.13.67-4.97-1.09-10.5-3.7-14.82-3.43,4.87-4.62,9.13-4.71,12.63-.51.66-.94,1.32-1.28,1.97-.06-.63-.16-1.27-.3-1.9.54-2.13.72-4.4.58-6.51-.66.34-1.25.7-1.82,1.06-.04-.2-.07-.4-.12-.6-.23.17-.45.34-.67.52-.05-.09-.1-.19-.15-.28-.24.31-.45.61-.66.92-.84.69-1.6,1.39-2.28,2.08.13-.64.23-1.28.3-1.92,6.35-2.01,10.36-9.08,11.8-15.61-14.81,2.95-16.54,12.97-16.74,15.51-.37.36-.71.72-1.01,1.08-.05-.16-.1-.31-.15-.47.35-1.72.29-3.56-.04-5.37.82-1.23,1.52-2.53,2.05-3.84-1.1.03-2.11.13-3.06.28-.37-.95-.79-1.87-1.26-2.72-.97,1.27-1.72,2.49-2.3,3.65-1.27.48-2.35,1.06-3.26,1.71-.12-.05-.25-.08-.37-.13,1.12-2.71,1.5-5.87,1.31-8.73-2.76,1.43-4.69,3.05-6.05,4.67-.69.11-1.34.24-1.96.38,0-.04-.02-.07-.03-.11,4.61-2.96,7.58-8.75,8.78-14.18-10.83,2.15-14.66,8.09-16.02,12.12-.13-2-.58-4-1.23-5.8-1.39,1.33-2.45,2.63-3.27,3.9-.13-2-.58-3.99-1.24-5.79-2.46,2.35-3.92,4.64-4.75,6.73.02-2.07-.59-4.16-1.57-6.11.44-1.41.74-2.87.88-4.27-1.05.34-1.99.72-2.86,1.12-.12-.16-.26-.32-.39-.48,1.78-2.78,2.99-6.03,3.63-9.15-3.33.72-5.98,1.79-8.1,3.04-.92-2.86-2.4-5.6-4.13-7.91-3.78,6.65-3.99,11.94-3.05,15.79-.47,1.07-.76,2.07-.94,2.91-.93-2.15-2.33-4.14-3.9-5.81.43-4.79-1.28-10.03-3.77-14.15-.96,1.36-1.74,2.68-2.38,3.94-.18-.15-.35-.31-.53-.45.52-1.12.93-2.29,1.24-3.43-.23.03-.44.08-.66.12,1.41-2.45,2.42-5.19,3-7.84-1.65.33-3.12.75-4.46,1.23v144.08h253.55c.39-.5.76-1.01,1.11-1.52-3.17-.58-5.91-.64-8.26-.35ZM198.31,372.56c.28-.41.53-.83.73-1.26-.04.64-.03,1.25.02,1.82-.27-.16-.52-.35-.75-.56ZM211.73,373.08c-.07.05-.14.09-.2.14-.51.09-1.03.18-1.55.27.1-.37.18-.74.25-1.12.56.03,1.11.03,1.64,0-.05.24-.1.49-.14.72ZM258.24,395.79c.11-.36.18-.73.25-1.11.25,0,.49-.01.73-.03-.36.38-.68.76-.98,1.13ZM324.73,455.72c.03-.08.05-.15.08-.23.02.07.05.13.07.2-.05,0-.1.02-.15.03ZM334.08,446.54c-.06-.12-.13-.24-.2-.36.08,0,.17.02.25.02-.02.11-.04.23-.05.34ZM343.43,442.96c-1.26,1.14-2.18,2.32-2.82,3.47.03-.53.03-1.07,0-1.62,1.01-.53,1.96-1.2,2.83-1.97,0,.04,0,.08-.01.11Z"/>
    </g>
  </g>
</svg>