<?xml version="1.0" encoding="UTF-8"?>
<svg id="Layer_2" data-name="Layer 2" xmlns="http://www.w3.org/2000/svg" viewBox="0 0 67.54 203.8">
  <defs>
    <style>
      .cls-1 {
        fill: #f3f4f0;
      }

      .cls-2 {
        fill: #e5e8e0;
      }

      .cls-3 {
        fill: #ecefe9;
      }

      .cls-4 {
        fill: #ccd1c5;
      }

      .cls-5 {
        fill: #4b5b2f;
      }

      .cls-6 {
        fill: #596b3a;
      }

      .cls-7 {
        fill: #4b5c30;
      }

      .cls-8 {
        fill: #6b8043;
      }

      .cls-9 {
        fill: #5a6c3b;
      }

      .cls-10 {
        fill: #617243;
      }

      .cls-11 {
        fill: #9ba68a;
      }

      .cls-12 {
        fill: #4a5b2e;
      }

      .cls-13 {
        fill: #6b8143;
      }

      .cls-14 {
        fill: #4b5c2f;
      }

      .cls-15 {
        fill: #5b6d3d;
      }

      .cls-16 {
        fill: #e4e7e0;
      }

      .cls-17 {
        fill: #6b8144;
      }

      .cls-18 {
        fill: #dee1d9;
      }

      .cls-19 {
        fill: #5a6c3c;
      }

      .cls-20 {
        fill: #4a5b2f;
      }

      .cls-21 {
        fill: #4c5d30;
      }

      .cls-22 {
        fill: #a9b591;
      }
    </style>
  </defs>
  <g id="Background">
    <g id="BL_L2B_3_Image" data-name="BL_L2B_3 Image">
      <g>
        <path class="cls-8" d="M39.08,86.58l.48.4c-.44,2.03-1.32,3.98-2.64,5.84-2.37,3.6-4.88,7.98-6.11,12.47,2.71-4.08,5.43-8.14,8.54-11.9l.91-.33c-.05-.11-.1-.23-.12-.34-.15-.79,5.9-5.28,7.19-5.55l1.06.14c1.24-.31,4.74-.71,5.21.89,1.04,3.47-5.91,6.46-8.21,7.98-3.69,2.43-8.05,5.83-10.88,9.23-.22.27-.58.39-.48.84l4.8-3.21c4.1-2.4,8.15-4.94,12.49-6.89,4.65-2.09,13.61-6.28,16.18.52v1.2c-.35.59-.63,1.12-1.19,1.56-1.82,1.46-7.56,1.46-10.1,1.86-7.49,1.17-14.4,3.72-20.99,7.37-.05.45.48.18.73.13,8.11-1.84,17.06-3.46,25.46-2.77,2.43.2,5.81,1.47,4.24,4.48-2.43,4.65-12.39.84-16.43.55-5.61-.4-11.24.43-16.62,1.92.11.48.73.42,1.09.44,5.62.4,17.65.84,22.09,4.01,1.98,1.41,3.24,4.37-.09,4.67-2.66.24-10.16-3.03-13.29-3.97-3.94-1.17-7.94-2.13-11.96-3,1.19,4.03,6.9,6.38,10.58,7.74,2.91,1.07,5.79,1.36,8.5,2.27,4.25,1.41,1.58,4.31-1.57,5.03-6.25,1.43-12.64-2.41-16.54-7.01l-3.35-4.67c.11,1.91.87,3.93,1.63,5.67.82,1.89,3.4,5.17,3.76,6.54.88,3.43-1.3,3.52-3.76,2.34-5.15-2.49-4.3-8.82-4.13-13.59-2.69,4.52-5.15,9.61-6.82,14.62.13,1.2-.11,2-.72,2.4-.09.39-.25.71-.48.96-5.5,13.12-6.97,33.28-5.5,47.34.12,1.17,1.3,7.72,1.17,8.12-.16.5-.74.41-1.17.4-3.18-16.82-2.18-34.19,2.46-50.63.91-3.21,2.03-6.36,3.04-9.54l.23-2.18.49-.22.36-1.79,3.31-6.64c-1.19,1.01-2.46,1.74-3.82,2.18l-.33-.22c.04.71-.9.9-1.2.24-.96,0-3.06-.68-3.84-1.31-.67-.54.02-.55-1.18-.85-2.5.53-4.98,1.19-7.44,1.98l-.46-.3-3.59.96v-4.08c5.37-2.18,9.97-5.22,16.02-4.31.9.26,1.49.87,1.91,1.68l.31-.45c1.92-.18,3.8-.51,5.67-.99-.17-.34.34-.32.32-.31-.25.08-.54.13-.79.07-1.44,1-4.64.89-5.98-.24-.35.33-.98.17-1.2-.24-1.39-.31-3.19-.78-4.47-1.39-.7-.34-2.6-1.94-2.81-1.95-.55-.03-3.65,1.49-4.36,1.86-1.65.87-3.24,1.91-4.62,3.16v-5.51c4.56-3.12,8.79-6.82,13.87-9.11-1.03-1.8-.7-5.73,2.03-5.52.83.06,1.3.83,2.04.49.46-.04.67.31.64,1.05l.32.15.49.3c.7,3.13,2.21,6.35,4.45,8.68-1.85-4.23-3.83-9.18-3.35-13.88.15-1.51.54-4.13,2-4.7,0-1.26,2.33-2.36,3.11-1.2.98.07,2.06,1.41,1.91,2.4l.36,1.04-.61,5.1c.12.44.04.78-.23,1.05-.35,2.71-.36,5.4-.04,8.1l1.42-7.13.54-.25c-.17-.08-.42-.21-.4-.34.09-.47,1.1-4.11,1.21-4.31.09-.16.22-.29.38-.38l.64-2.91.56-.2-.12-.59,2.04-3.45c.31-.53.53-.86,1.19-.76,1.72-1.8,4.38-2.77,4.54.72Z"/>
        <path class="cls-12" d="M27.6,71c-.44.86-.36.94.24.24,2.8-3.43,6.9-7.28,10.28-10.19s14.37-12.42,18.76-7.29c2.2,2.57.4,4.51-2.03,5.61-3.08,1.4-6.57,2.26-9.72,3.68-5.67,2.55-11.24,6.2-15.62,10.59,5.56-2.62,11.28-4.95,17.22-6.59,2.57-.71,8.21-2.41,10.59-1.51,2.59.98,2.09,3.82.15,5.32-3.13,2.41-7.03,1.59-10.62,1.82-6.35.41-13.35,2.4-18.78,5.75.05.22.29.3.72.24,5.88-.75,16.71-2.95,22.07-.9,2.29.88,4.42,3.55,1.09,4.58-2.55.79-4.52-.08-7.01-.31-6.41-.59-12.81-.88-19.25-.72,1.68,3.12,5.75,3.67,8.85,4.55-1.32,1.38-1.95,3.55-3.11,4.79l-.5.1c-2.03-.9-3.86-2.2-5.49-3.9.45.71.54,1.25.25,1.64-1.38-.25-2.12.39-3.11,1.2-.5,0-.75-.46-.76-1.37-.97,3.54-1.74,7.09-2.33,10.63l-.5.33-.24.48c-.28.2-.69-1.23-.71-1.68-.17-2.92,1.66-6.85,1.91-9.83-1.51,1.58-2.51,3.65-4.53,4.69-.49.25-.85.21-1.21.34-.79.56-1.6.17-2.42-1.16-.8-.19-1.27-.53-1.4-1l-.12-.54c.99-.64,1.51-1.62,1.54-2.93l.73-.13.29-.51c1.67-.31,3.34-.78,4.8-1.66-1.98.29-3.98.44-5.98.45l-.54-.44-.05-.34c1.62-.78,2.76-1.83,3.41-3.15-.45-.82-.38-1.18.23-1.07.86-.51,1.93-.67,3.2-.49-1.98-.65-3.88-1.52-5.68-2.57l-.38-.78c.06-.57.43-1.12,1.1-1.65.44-.79.95-1.27,1.53-1.46l.61-.11c3.27,3.2,3.55,3.02.86-.53l.2-.56-.32-.42c1.07-1.72.17-2.1-1.58-2.42l-.25-.51c-.83-.15-1.77-2.23-1.2-2.88-.6.06-.54-.18-.3-.67.26-.52,5.76-1.35,5.81-.81-.14.26-.11.51-.01.76.48.31.68.93.61,1.85.52,2.55,1.11,5.05,1.78,7.5.38.4.46,0,.24-1.2-.79-.72-.7-2.8,0-3.6-.16-1.97-.2-3.95-.13-5.94-.38-.41-.12-1.05.79-1.91l-.12-.39c-.6-.4-.7-1.01-.29-1.84-.08-2.06.62-5.38,1.47-7.28,2.45-5.43,6.18-3.62,4.92,1.81-1.51,6.49-4.52,11.57-4.24,18.77.01.29-.18.89.24.84,1.24-4.23,2.94-8.56,4.82-12.55,1.53-3.24,4.01-8.22,6.82-10.42,1.53-1.19,6.96-4.15,7.26-.64s-4.35,6.42-6.47,8.62c-3.35,3.49-6.06,7.42-8.36,11.63Z"/>
        <path class="cls-6" d="M.1,25.81c.17-1.06,1.21-2.96,1.55-4.2C3.49,15.08,5.06,7.7,10.01,2.67c.58-.59,3.79-3.41,4.46-2.48.35.98-.1,2.19-.46,3.14-1.16,3.09-3.84,5.93-5.64,8.73-2.76,4.27-5.36,8.76-6.84,13.64.47.11.57-.24.81-.5,1.38-1.45,2.67-3.67,4.09-5.25,3.1-3.48,7.94-7.83,12.32-9.46,6.15-2.29,5.25,2.3,1.78,5.14-1.92,1.58-4.54,2.36-6.73,3.56-4.52,2.48-8.72,5.86-12.86,8.92l-.85,2.14c.15-1.37-.21-3.12,0-4.43Z"/>
        <path class="cls-6" d="M13.97,69.32c.91.08,2.93.53,2.82,1.76,0,.09-.6,1.54-.67,1.6.33.64-1.46,1.1-1.55.92-.08-.16.41-.39-.12.28-.24.8-1.88,2.76-2.63,3.12l-.05.54c-1.53.42-3.02.88-4.49,1.38l-.18.51c-1.67.37-2.66,1.05-2.95,2.02l-.46.34-.36-.96-3.23,2.16v-3.96c0-.15,1.9-1.79,2.15-2.16l-2.15.84c.12-.89-.24-2.32.12-3.11.16-.35,2.49-1.93,3.01-2.26.77-.5,2.48-.91,2.61-1.82.04-.11.09-.2.17-.28.19-.19,4.96-1.57,5.09-.68.31-.84,2.41-1.05,2.87-.24Z"/>
        <path class="cls-13" d="M10.38,91.13c.29.04,1.25.36,1.52.51.95.54,1.12,1.92,2.3,1.65-1.37.5-.23,1.03-.48,1.92.09.1.17.2.22.31.42.92-4.15,4.22-5.01,4.72-3.39,1.53-5.98,5.36-8.85,7.67v-8.99c0-.28,2.94-4,3.35-4.43-.07-.19-.15-.4-.08-.6.17-.52,2.76-2.16,3.4-2.46.95-.45,3.06-1.37,3.62-.29Z"/>
        <path class="cls-13" d="M2.25,128.77c.23.45.84.19,1.2.13,1.35-.22,2.98-.59,4.3-.97,1.9-.54,5.26-2.39,7-1.99,1.35.31,1.41,1.79,1.06,2.88-1.64,5.03-11.07,7.29-15.71,6.18.2-1.62-.28-3.86,0-5.4.09-.5.44-.53.47-.59.65-.36,1.21-.44,1.67-.24Z"/>
        <path class="cls-6" d="M.1,34.08c-.12-.76.3-1.24.72-1.79,4.17-5.47,13.29-11.66,20.23-12.32,1.37-.13,5.4-.46,4.12,1.98-1.21,2.3-5.78,2.73-8.04,3.44-6.02,1.89-11.75,5.31-17.03,8.69Z"/>
        <path class="cls-6" d="M.1,40.79c-.33-1.57.57-2.28,1.52-3.26,4.17-4.29,11.24-8.8,17.28-9.41,1.58-.16,6.08-.43,4.16,2.25-1.51,2.1-4.91,2.23-7.12,2.93-3.25,1.03-6.6,2.45-9.63,4.01-2.1,1.09-4.07,2.47-6.21,3.48Z"/>
        <path class="cls-6" d="M22.28,37.02c1.06,1.03-1.28,2.9-2.17,3.34-1.5.74-3.31.83-4.89,1.33-4.04,1.3-7.81,2.98-11.54,4.97-.4.21-3.45,2.2-3.58,2.04-.45-2.08.88-3.05,2.26-4.32,2.86-2.62,7.49-5.59,11.18-6.77,1.78-.57,7.37-1.92,8.74-.59Z"/>
        <path class="cls-6" d="M21.14,60.21c.07,1.67.17.8.69,1.58.74,1.11-.76,1.52-.93,2.38-.33,1.71.23,4.29,0,6.11-.53.24-.67-.02-.72-.53l.02-4.63c-.04-.26-1.66.28-1.93.6-.27-.56-.5-.51-1.05-.48s-3.95.58-4.27.73c-.28.13-.15.46-.17.47l-.03.34c-1.4.22-2.82.51-4.27.86-.48.39-1.65,1.01-2.15.48-2.09.69-4.05,1.61-6.1,2.4-.23-.02-.22-2.09.1-2.54.5-.69,5.06-3.46,6.07-3.98,1.28-.66,4.13-2.01,5.42-2.36l.25-.56c1.75-.38,3.55-.54,5.34-.63l.39.46c.67-.02,1.36-.02,2.03,0,.34.01.71.24.95.24.27,0-.03-.85.36-.96Z"/>
        <path class="cls-6" d="M.1,54.94c.11-1-.28-2.38.22-3.25.78-1.36,6.06-5.36,7.59-6.29,2.69-1.63,8.31-4,11.43-3.4,1.71.33.7,2.21-.11,3-1.59,1.55-5.83,2.44-8.06,3.43-3.87,1.71-7.55,4.19-11.08,6.51Z"/>
        <path class="cls-6" d="M15.4,56.14c-.25.22-.57.38-.96.48-.05.69-.98,1.05-1.43.48-2.37.73-4.5,1.88-6.7,2.99L.1,63.81c.12-1-.27-2.38.22-3.25.47-.82,3.78-3.45,4.72-4.14,2.93-2.14,7.34-4.45,10.99-4.81,6.22-.61,2.93,3.42-.63,4.53Z"/>
        <path class="cls-6" d="M14.69,80.83c-.38.2.27.51.24,1.06-.09,1.72-2.56,2.82-3.83,3.5l-.3.52c-1.88.47-3.7,1.27-5.44,2.12-.18.81-2.06,2.26-2.87,1.92-.41.51-.89.83-1.43.96-.28.19-.66.31-.95.48.15-1.06-.24-2.71.05-3.67.26-.89,3.58-3.31,4.26-4.24.04-.17.1-.33.18-.48.53-.99,5.58-2.85,7-2.63.4-.66,2.87-.24,3.11.48Z"/>
        <path class="cls-6" d="M12.53,87.54c-.74.55-.16,1.26-.75,2.24-.35.58-.93.91-1.4,1.35-2.48-.3-5.3,1.62-6.94,3.36-.06-.43-.65.19-.79.29-.85.63-1.67,1.31-2.56,1.87v-3.96c0-.15.98-1.32,1.2-1.56.25-.39.65-.78,1.2-1.2.92-.6,1.89-1.51,2.87-1.92,2.07-1.14,5.31-2.42,7.17-.48Z"/>
        <path class="cls-17" d="M.1,176.47c.38.06.44.46.59.73,3.97,7.26,7.35,13.47,12.58,20,.67.84,5,5.38,5,5.76,0,.11-.68.64-.83.83-4.83-5.06-9.23-10.82-12.9-16.79-1.02-1.67-3.92-6.27-4.33-7.88-.22-.87-.08-1.76-.11-2.64Z"/>
        <path class="cls-12" d="M48.41,87.3c-2.57.64-6.42,3.86-8.13,5.75-.77.75-2.88.64-3.35-.24-.45-.39-.57-.04-.28-.64.94-1.95,2.56-3.01,2.43-5.6.71-.25,1.82.24,2.27.24h3.59c.09,0,.4-.25.71-.25.95-.03,1.98.13,2.75.73Z"/>
        <path class="cls-5" d="M18.75,134.04c.68,3.2,1.2,6.46,1.98,9.64,1.46,5.93,3.54,11.7,5.91,17.32l-1.19.61c-1.88-4.88-3.8-9.76-5.2-14.81-.72-2.62-2.02-7.06-2.22-9.64-.32-.12-.17-.46,0-.72.05-1.17.41-1.48.72-2.4Z"/>
        <path class="cls-9" d="M2.01,143.39c-.03,1.72,1.47,6.49,1.98,8.44.84,3.25,1.75,6.49,2.8,9.68.05.48-.96.88-1.25.28-.63-1.28-1.13-3.68-1.55-5.16-.8-2.82-1.52-5.69-2.25-8.53-.22-.87-.68-4-.93-4.47-.74-1,1.36-1.44,1.2-.24Z"/>
        <path class="cls-6" d="M11.58,122.3c-1.75.96-3.46,2-5.1,3.16-1.35.96-2.91,2.57-4.23,3.31-.49.28-1.11.89-1.67.24.56-1.14,2.21-4.33,3.11-5.03.61-.48,6.61-1.94,7.5-1.91.19,0,.31.22.39.23Z"/>
        <path class="cls-12" d="M14.45,56.62c.27-.18.6-.33.72,0,1.91.27,2.52,2.62,2.63,4.31-1.67.05-4.41.29-5.98.72-.21-1.73.43-3.09,1.2-4.55.4-.12,1.05-.45,1.43-.48Z"/>
        <path class="cls-12" d="M7.27,78.91c.29-.21.58-.29.93-.27.55.03,3.25,1.09,3.38,1.71-2.47.9-4.93,1.71-7.17,3.12-.57-.26-.69-1.09-.72-1.68-.02-.45-.11-.94.24-1.32s2.8-1.58,3.35-1.55Z"/>
        <path class="cls-7" d="M2.49,173.12h-1.2c-.34-4.3-1.62-8.34-1.19-12.7l.79,2.44c.29,1.26,1.97,9.9,1.6,10.26Z"/>
        <path class="cls-17" d="M.82,138.6c.99.46,2.41,1.42,2.59,2.58.22,1.39-1.38,1.35-1.4,2.22-.46-.33-1-.36-1.2.24-.06-.11-.65-.09-.73-.4-.29-1.24.23-3.5,0-4.87.2-.61.44-.53.72.24Z"/>
        <path class="cls-20" d="M8.47,67.64c.85-.91,3.49.92,2.63,1.92-.75.09-1.45.15-2.2.31-1,.21-2.08,1.01-3.06.65.12-.8-.17-1.64.48-2.4.97-.32.94-.69,2.15-.48Z"/>
        <path class="cls-21" d="M17.8,124.22l.49.59c.35,1.8.53,4.15-.01,5.89-.06,1.44-.41,1.44-.72,2.4l-.96-8.63c.06,0,1.1-.21,1.2-.24Z"/>
        <path class="cls-19" d="M8.95,100.24c-.51-.15.29-.58.41-.67,1.04-.84,4.05-3.19,4.38-4.36,1.56.36.79,2.06.1,2.85-1.23,1.42-3.28,1.46-4.88,2.18Z"/>
        <path class="cls-15" d="M17.56,116.78c.78-.14,1.33,1.16.48,1.44-.67-.11-1.26-1.22-1.91-1.68.08.01.16-.01.24,0,.32-.3.98-.13,1.2.24Z"/>
        <path class="cls-10" d="M.82,138.6c-.23-.11-.45-.22-.72-.24l.24-2.4.48,2.64Z"/>
        <path class="cls-3" d="M2.49,89.94c-.21.57-.86.83-1.2,1.2l-.24-.24c.49-.34.93-.63,1.43-.96Z"/>
        <path class="cls-14" d="M17.56,116.31c.46.14.46.35,0,.48-.42.02-.8-.18-1.2-.24v-.48c.4.09.79.17,1.2.24Z"/>
        <path class="cls-18" d="M27.84,71.24c-.25.3-.58,1.36-.96.96-.26-.27.57-.93.72-1.2l.24.24Z"/>
        <path class="cls-16" d="M28.8,78.67c-.3.04-.89.48-1.43.24-.08-.34.41-.29.72-.48l.72.24Z"/>
        <path class="cls-1" d="M18.03,137.16l-.48.24c.13-.31.06-.75.48-.96-.01.23-.02.49,0,.72Z"/>
        <path class="cls-11" d="M15.4,56.14l-.24.48c-.2-.03-.5-.02-.72,0,.22-.4.6-.37.96-.48Z"/>
        <path class="cls-12" d="M30.23,93.77l.18.55-1.38,4.48c-.42.83-2.33.19-1.91-.72-.19-.28-.26-.72-.25-1.06l.73-6.13c.76,1,1.63,2.11,2.63,2.88Z"/>
        <path class="cls-14" d="M17.8,108.63c.04.71-.05,1.45,0,2.16-.26.63-.56.44-1.12.15-.12-.06-.06-.38-.07-.39-.86-.02-.45-.96,0-1.44.17-.15.4-.26.61-.46.29-.3.25-.81.59-.74.01.24-.01.48,0,.72Z"/>
        <path class="cls-2" d="M16.6,110.55s-.32.2-.64.06c-1.34-.58.09-1,.64-1.5v1.44Z"/>
        <path class="cls-22" d="M23.53,116.54c.18-.03.56-.42.96-.24,0,.28-.3.36-.48.48l-.48-.24Z"/>
        <path class="cls-4" d="M20.9,73.87c.01.22.49,1.12.24,1.68-.28,0-.36-.3-.48-.48.39-.2.23-.81.24-1.2Z"/>
      </g>
    </g>
  </g>
</svg>