<?xml version="1.0" encoding="UTF-8"?>
<svg id="Layer_2" data-name="Layer 2" xmlns="http://www.w3.org/2000/svg" viewBox="0 0 853.44 568.19">
  <defs>
    <style>
      .cls-1 {
        fill: #bdc690;
      }
    </style>
  </defs>
  <g id="Background">
    <g id="BL_L2_1">
      <path class="cls-1" d="M368.26,480h4.88c.39-.77.71-1.58.93-2.38-2.74.37-4.58,1.31-5.81,2.38ZM354.67,480h2.4c3.01-.78,5.07-3.96,5.93-6.96-7.47,1.01-8.26,6.18-8.33,6.96ZM349.95,476.55c-1.01.95-1.75,1.87-2.29,2.76-.17-.73-.42-1.45-.73-2.1.34-1.04.49-2.17.47-3.22-.25.11-.47.23-.69.36.92-2.68-.09-5.96-1.66-8.37-2.21,3.37-2.26,6.07-1.75,7.95-.61.43-1.11.88-1.5,1.34.33-.92.38-1.95.24-2.97.41-.56.77-1.16,1.04-1.76-.52,0-.99.02-1.44.07-.15-.46-.33-.9-.53-1.31-.49.58-.87,1.13-1.16,1.67-.76.25-1.39.59-1.89.96.7-1.31.99-2.92.96-4.38-1.54.71-2.56,1.55-3.24,2.41.34-.93.4-1.98.26-3.03,1.57-.6,2.96-1.91,3.9-3.29-1.61-.3-2.9-.21-3.93.07.19-.6.34-1.21.44-1.81.49-1.18.71-2.53.69-3.78-1.28.59-2.2,1.28-2.88,1.99.19-.63.31-1.28.37-1.92,2.35-1.27,3.92-4.05,4.58-6.68-3.4.57-5.36,1.96-6.51,3.38.04-.08.09-.15.12-.23-.52,0-.99.02-1.44.07-.15-.46-.33-.9-.53-1.31-.48.58-.86,1.13-1.16,1.67-.06.02-.1.04-.15.06.43-2.32-.28-4.96-1.41-7.05-1.71,2.21-2.36,4.17-2.48,5.81-.26.3-.48.61-.66.91-.01-.3-.05-.6-.1-.9.3-.99.44-2.05.42-3.05-.32.15-.6.3-.88.46-.01-.1-.03-.19-.04-.29-.12.08-.21.16-.33.24-.02-.05-.04-.1-.06-.15-.13.15-.25.31-.36.46-.41.3-.78.61-1.11.92.08-.31.15-.62.2-.93,3.03-.8,5.07-4.03,5.89-7.07-7.04,1.06-8.06,5.75-8.21,6.93-.18.16-.35.32-.5.48-.02-.07-.05-.14-.07-.21.21-.81.22-1.68.1-2.54.41-.56.77-1.15,1.05-1.76-.52,0-1,.01-1.44.06-.15-.45-.33-.9-.53-1.31-.49.58-.87,1.13-1.16,1.67-.6.2-1.12.45-1.56.73-.06-.03-.12-.04-.18-.07.59-1.25.84-2.73.81-4.08-1.33.61-2.27,1.33-2.95,2.06-.33.04-.63.08-.93.14,0-.02,0-.04-.01-.06,2.23-1.29,3.76-3.94,4.44-6.46-5.14.77-7.07,3.48-7.79,5.34-.02-.94-.18-1.9-.45-2.76-.69.6-1.22,1.2-1.63,1.78-.02-.95-.17-1.91-.45-2.77-1.21,1.06-1.95,2.1-2.38,3.06.06-.97-.18-1.97-.6-2.92.24-.65.41-1.33.51-1.98-.5.14-.95.29-1.37.47-.06-.08-.12-.15-.18-.23.9-1.27,1.55-2.77,1.91-4.22-1.59.27-2.85.71-3.88,1.26-.37-1.37-1-2.69-1.76-3.82-1.92,3.04-2.13,5.5-1.77,7.33-.25.51-.41.98-.51,1.38-.39-1.03-1-2.01-1.7-2.83.31-2.24-.38-4.74-1.46-6.73-.49.63-.86,1.23-1.19,1.81-.08-.08-.16-.16-.25-.23.27-.52.49-1.05.66-1.58-.11.01-.21.03-.32.04.72-1.12,1.26-2.38,1.59-3.62-2.26.34-3.88,1.06-5.07,1.91,0-.97-.16-1.96-.44-2.84-1.06.92-1.74,1.83-2.19,2.69,0-1.01-.16-2.04-.45-2.96-1.21,1.06-1.95,2.1-2.38,3.07.06-.98-.18-1.98-.6-2.92.24-.65.41-1.33.51-1.98-.41.11-.78.24-1.13.38.24-.58.45-1.17.61-1.75-1.58.24-2.85.66-3.89,1.19-.08-.53-.18-1.06-.34-1.55-1.66,1.44-2.42,2.86-2.73,4.09-.42-1.21-1.15-2.35-1.99-3.27-.29.66-.48,1.27-.62,1.85-.53.88-.85,1.7-1,2.45-.11.07-.21.14-.32.22-.64-1.78-2.28-3.27-3.97-4.16-.1,1.39.05,2.52.34,3.44-.66-.67-1.44-1.23-2.23-1.67,1.62-2.85.51-6.68-1.32-9.38-4.36,6.89.05,10.93.05,10.93.44-.38.8-.8,1.09-1.24-.05,1.42.16,2.56.51,3.47-.2-.23-.43-.44-.67-.64-.08-.25-.09-.52,0-.81-.17.16-.37.29-.56.41-.4-.25-.84-.46-1.29-.64-.29-.63-.64-1.23-1.03-1.76-.26.45-.46.88-.63,1.3-.47-.09-.95-.15-1.41-.17.27.7.57,1.3.9,1.83-.04.21-.08.41-.1.6-.35.07-.7.13-1.05.21-.68-.66-1.48-1.23-2.29-1.65-.07.92-.02,1.72.1,2.43-.23.13-.45.27-.65.44-.41.33-.73.74-1.01,1.17-.41-.07-.81-.11-1.21-.13.19.49.39.91.61,1.31-.29.71-.51,1.47-.7,2.21-.36,1.35-1,2.49-1.72,3.42-.81-1.07-1.94-1.96-3.1-2.57-.1,1.4.05,2.53.35,3.46-.71-.72-1.55-1.34-2.41-1.8-.04.52-.03.99,0,1.44-.59-1.51-1.56-2.93-2.65-4.06-.67,1.62-.95,3.03-.99,4.26-.01.03-.03.06-.04.09-.47-.09-.94-.15-1.41-.17.27.7.57,1.3.9,1.82-.15.78-.16,1.49-.08,2.11-.81-1.23-2.07-2.26-3.36-2.94-.1,1.34.04,2.44.3,3.34-1.3-.53-2.73-.83-4.08-.91.24.65.51,1.21.78,1.74-.32-.22-.64-.42-.97-.59-.02.21-.01.41-.02.61-.57-1.51-1.51-2.92-2.57-4.06-1.5,3.47-1.23,6.03-.51,7.79-.31-.18-.64-.34-.98-.47-.29-.63-.64-1.23-1.04-1.77-.26.45-.46.88-.64,1.29-.47-.09-.94-.15-1.41-.17.27.7.57,1.3.9,1.82-.15.78-.16,1.49-.08,2.11-.81-1.23-2.07-2.26-3.36-2.94-.16,2.2.3,3.74.95,4.83-.18-.09-.38-.16-.57-.24-.47-1.9-1.6-3.74-2.92-5.15-2.36,5.48-.34,8.71.93,10.05-1.1,0-2.22.2-3.22.54.77.83,1.53,1.43,2.25,1.85-.74.09-1.48.25-2.15.49,1.26,1.36,2.48,2.08,3.58,2.44-1.15.39-2.25,1.09-3.15,1.9-.51-.14-1.04-.25-1.54-.3.26.86.58,1.56.94,2.16-.27.21-.52.44-.76.67.22.09.42.15.63.22-1.14-.02-2.3.18-3.34.54,1.48,1.6,2.92,2.34,4.16,2.61-1.19.45-2.31,1.22-3.19,2.08,1.69.68,3.08.83,4.22.7.41.95.89,1.71,1.41,2.35-1.13.41-2.2,1.07-3.07,1.83.57.26,1.1.45,1.61.59h126.94c.17-.78.25-1.57.23-2.33-.45.21-.85.43-1.22.66-.12-.61-.29-1.21-.48-1.78ZM228.4,459.04c-.03.22-.03.44-.01.65-.31-.12-.64-.2-.98-.26.26-.4.46-.82.61-1.24.13.28.26.55.4.79,0,.02,0,.04-.01.05ZM234.04,453.5c.01-.07.01-.14.02-.2.06.03.11.05.17.07-.06.04-.13.09-.19.13ZM281.04,431.11s.06-.05.09-.08c.02.06.05.12.07.18-.05-.03-.11-.07-.17-.1ZM304.24,447.43c-.12-.08-.24-.18-.34-.28.15-.2.28-.4.39-.6-.04.31-.05.61-.04.89ZM310.19,447.69s-.05.03-.08.05c-.25.03-.5.06-.76.09.06-.17.1-.35.14-.53.26.03.52.04.78.03-.03.12-.06.24-.08.35ZM331.53,459.4c.06-.18.11-.36.15-.54.12,0,.24,0,.36,0-.18.18-.36.36-.51.54ZM209.88,461.02c3.54,7.34,9.31,5.74,9.31,5.74-.67-4.32-5.41-5.88-9.31-5.74Z"/>
    </g>
  </g>
</svg>