<?xml version="1.0" encoding="UTF-8"?>
<svg id="Layer_2" data-name="Layer 2" xmlns="http://www.w3.org/2000/svg" viewBox="0 0 987.64 610.65">
  <defs>
    <style>
      .cls-1 {
        fill: #ced4b1;
      }
    </style>
  </defs>
  <g id="Background">
    <g id="BL_L3_1">
      <path class="cls-1" d="M494.87,474.45c-1.66.87-3.07,1.8-4.27,2.75-1.99-.15-3.74.03-5.24.42.75-.63,1.45-1.33,2.1-2.09,3.18.05,6.48-.69,9.33-1.88-1.32-1.27-2.61-2.27-3.86-3.08,2.53-2.87,3.94-6.68,4.51-10.69.39-.52.76-1.05,1.1-1.59-.31-.05-.61-.08-.91-.12.22-2.76.09-5.57-.35-8.18-1.34.88-2.53,1.78-3.6,2.68-1.67-.19-3.19-.23-4.58-.13,4.92-2.07,9.27-6.22,12.24-10.62-3.73-.68-6.94-.75-9.71-.41.11-.57.21-1.13.28-1.69-1.8.53-3.35,1.17-4.71,1.87-1.92-.53-3.67-.69-5.23-.6,3.23-1.78,6.03-4.72,7.97-7.79-5.4-.82-9.35-.01-12.2,1.38,1.62-2.74,2.61-5.98,2.99-9.04-4.14,1.23-7.02,2.99-9.03,4.89-.09-.14-.18-.29-.27-.43,2.81-2.13,5.26-4.84,7.15-7.64-.4-.07-.78-.13-1.17-.19.86-1.92,1.47-3.96,1.82-5.94-5.17,1.26-8.46,3.44-10.57,5.74-.08.01-.16.03-.24.04,2.04-4.71,1.01-10.78-1.21-15.49-2.28,2.61-3.69,5.08-4.51,7.35-.34-2.49-1.09-4.95-2.12-7.13-2.64,3.02-4.11,5.85-4.85,8.39-.19-2.43-1.12-4.82-2.48-7,.37-1.7.56-3.43.58-5.1-1.19.51-2.26,1.05-3.22,1.62-.81-.88-1.66-1.71-2.55-2.44-.52,1.8-.82,3.46-.95,4.98-1.48,1.34-2.56,2.73-3.32,4.09.18-2.88-.38-5.91-1.37-8.67.31-3.67-.12-7.5-1.05-10.92-5.18,4.16-7.91,8.35-9.24,12.12-.52.22-1.02.45-1.5.68-.18-.16-.36-.32-.54-.47-.08.3-.14.57-.21.86-1.54.82-2.86,1.72-4,2.67-.24-2.82-1.08-5.67-2.24-8.14-2.27,2.6-3.68,5.06-4.5,7.32-.34-2.48-1.11-4.93-2.13-7.1-2.64,3.02-4.11,5.85-4.85,8.38-.19-2.42-1.12-4.81-2.48-7,.37-1.7.56-3.43.58-5.1-1.19.51-2.26,1.05-3.22,1.62-.21-.23-.43-.44-.64-.66,2.61-3.41,4.42-7.63,5.38-11.68-17.25,3.16-19.61,14.67-19.94,17.81-1.41-2.33-3.29-4.43-5.3-6.1-1.12,3.91-1.24,7.13-.81,9.76-1.14-1.46-2.44-2.79-3.81-3.92-.5,1.75-.79,3.35-.94,4.83-1.2.63-2.25,1.31-3.18,2.01.06-1.62-.03-3.27-.27-4.91,0-.55-.01-1.1-.05-1.63-.07.04-.14.08-.21.11-.45-2.29-1.14-4.53-2.01-6.59-1.63,1.72-2.95,3.41-4.01,5.04,0-.26,0-.52-.02-.78-2.81,1.46-4.9,3.08-6.45,4.72.06-2.03-.25-4.13-.85-6.15.95-1.44,1.76-2.96,2.37-4.49-1.44.04-2.76.18-3.98.39-.17-.35-.35-.69-.53-1.02-.35.45-.66.9-.97,1.35-2.98.73-5.22,1.94-6.89,3.3,1.57-3.34,2.1-7.37,1.86-11-1.1.57-2.08,1.17-2.97,1.78-.38-1.51-.86-2.98-1.42-4.37-2.4,2.46-4.14,4.84-5.38,7.11-.51-1.8-1.23-3.53-2.08-5.11.73-2.63.97-5.47.8-8.09-.59.31-1.14.62-1.66.94,1.97-6.79-.94-14.84-5.14-20.66-5.1,8.66-4.93,15.41-3.45,20.04-1.48,1.14-2.65,2.31-3.57,3.49.7-2.33.71-4.89.24-7.42.96-1.45,1.78-2.99,2.4-4.53-1.3.04-2.48.16-3.59.34-.43-1.12-.93-2.2-1.48-3.21-1.14,1.49-2.03,2.93-2.71,4.3-1.86.7-3.38,1.61-4.58,2.59,1.57-3.34,2.1-7.37,1.86-11-3.74,1.94-6.19,4.15-7.81,6.35.74-2.36.75-4.97.28-7.55,3.84-1.68,7.16-5.11,9.34-8.68-4.03-.54-7.24-.19-9.79.61.39-1.48.68-2.99.86-4.47,1.11-3.03,1.49-6.45,1.28-9.58-3.07,1.59-5.28,3.38-6.87,5.18.38-1.55.57-3.15.64-4.73,5.71-3.44,9.29-10.57,10.64-17.21-8.32,1.8-13.07,5.45-15.78,9.1.07-.16.14-.31.2-.47-1.3.04-2.48.16-3.59.34-.43-1.12-.93-2.2-1.48-3.21-1.14,1.49-2.03,2.93-2.71,4.3-.12.05-.23.1-.35.15.78-5.83-1.29-12.34-4.36-17.4-4.03,5.72-5.43,10.73-5.54,14.84-.6.77-1.11,1.55-1.51,2.31-.07-.75-.19-1.49-.35-2.23.64-2.51.84-5.17.68-7.65-.77.4-1.47.82-2.14,1.24-.05-.23-.08-.47-.14-.7-.28.2-.53.4-.79.61-.06-.11-.11-.22-.17-.33-.28.37-.54.73-.79,1.09-.98.81-1.87,1.62-2.66,2.43.15-.75.27-1.5.35-2.26,7.47-2.36,12.17-10.66,13.86-18.34-17.4,3.46-19.44,15.24-19.68,18.23-.43.42-.83.85-1.19,1.27-.05-.19-.11-.37-.18-.55.41-2.02.34-4.18-.05-6.31.96-1.44,1.78-2.97,2.4-4.51-1.29.04-2.48.15-3.59.33-.43-1.12-.92-2.2-1.48-3.2-1.14,1.49-2.03,2.93-2.71,4.29-1.49.56-2.76,1.25-3.82,2-.14-.06-.29-.1-.44-.15,1.31-3.19,1.76-6.89,1.54-10.25-3.25,1.69-5.51,3.58-7.11,5.49-.81.13-1.57.28-2.3.45,0-.04-.02-.09-.03-.13,5.42-3.48,8.91-10.29,10.32-16.67-12.72,2.53-17.23,9.5-18.83,14.24-.16-2.35-.68-4.7-1.45-6.82-1.63,1.56-2.88,3.1-3.85,4.58-.16-2.35-.68-4.69-1.45-6.81-2.89,2.77-4.61,5.45-5.58,7.91.02-2.43-.69-4.89-1.84-7.18.52-1.66.87-3.37,1.03-5.02-1.23.4-2.34.84-3.36,1.32-.15-.19-.3-.37-.45-.56,2.09-3.27,3.52-7.08,4.26-10.75-3.91.84-7.03,2.1-9.52,3.58-1.08-3.36-2.82-6.58-4.85-9.3-4.44,7.81-4.69,14.03-3.58,18.55-.55,1.26-.89,2.43-1.1,3.42-1.09-2.52-2.73-4.88-4.57-6.83.51-5.63-1.52-11.78-4.45-16.62-1.13,1.6-2.05,3.15-2.79,4.64-.21-.18-.41-.36-.62-.53.61-1.32,1.1-2.69,1.46-4.03-.27.04-.51.09-.77.14,1.66-2.88,2.84-6.1,3.53-9.21-5.55,1.11-9.54,3.06-12.4,5.3-.14-2.41-.66-4.82-1.46-6.98-2.51,2.4-4.13,4.73-5.15,6.91-.11-2.51-.65-5.03-1.47-7.29-2.89,2.77-4.61,5.45-5.58,7.91.02-2.43-.69-4.9-1.85-7.2.52-1.66.87-3.36,1.04-5.01-1,.32-1.9.69-2.75,1.07.54-1.47.98-2.96,1.3-4.43-3.9.78-7.02,1.97-9.53,3.39-.26-1.31-.61-2.59-1.05-3.79-3.95,3.78-5.71,7.4-6.35,10.51-1.18-2.95-3.14-5.72-5.33-7.89-.65,1.67-1.07,3.22-1.35,4.66-1.24,2.28-1.92,4.38-2.22,6.29-.25.18-.49.38-.74.56-1.8-4.36-6.08-7.89-10.41-9.91-.09,3.45.4,6.25,1.21,8.51-1.71-1.57-3.69-2.87-5.7-3.86,3.43-6.75.91-15.3-3.33-21.71v25.43c.2.19.31.29.31.29,1.04-.98,1.88-2.04,2.54-3.16.04,3.49.68,6.26,1.63,8.46-.51-.52-1.07-1-1.67-1.44-.23-.61-.28-1.28-.08-2.02-.42.41-.86.77-1.33,1.1-.45-.26-.93-.48-1.41-.7v202.04h363.14c.31-.27.62-.54.91-.81-1.19-.51-2.32-.9-3.4-1.21.08-1.2.09-2.39,0-3.54ZM174.09,280.11c.08-.06.14-.14.21-.2.06.15.13.29.2.43-.14-.08-.27-.15-.41-.23ZM233.04,317.46c.33-.49.62-.98.86-1.48-.05.76-.04,1.47.02,2.14-.32-.19-.61-.41-.88-.65ZM248.8,318.06c-.08.05-.16.11-.24.16-.59.1-1.21.21-1.82.31.12-.43.21-.87.29-1.32.66.04,1.3.04,1.93,0-.06.29-.12.57-.16.85ZM303.46,344.75c.13-.43.23-.86.31-1.3.28,0,.56-.01.84-.03-.42.44-.8.89-1.15,1.33ZM381.6,415.18c.03-.09.06-.18.09-.27.03.08.05.15.08.23-.06.01-.11.03-.17.04ZM392.58,404.39c-.07-.14-.16-.28-.23-.42.1,0,.2.02.29.02-.02.13-.05.27-.06.4ZM403.57,400.17c-1.48,1.34-2.56,2.73-3.32,4.09.04-.63.03-1.26,0-1.9,1.19-.62,2.3-1.4,3.33-2.31,0,.04-.01.08-.01.12ZM495.6,477.78c9.79,4.86,19.8-2.58,25.12-10.75-20.1-3.34-25.12,10.75-25.12,10.75ZM383.63,375.15c-20.04,3.67-19.99,18.62-19.99,18.62,10.86,1.26,17.75-9.14,19.99-18.62Z"/>
    </g>
  </g>
</svg>