<?xml version="1.0" encoding="UTF-8"?>
<svg id="Layer_2" data-name="Layer 2" xmlns="http://www.w3.org/2000/svg" viewBox="0 0 179.37 64.56">
  <defs>
    <style>
      .cls-1 {
        fill: #a7b097;
      }

      .cls-2 {
        fill: #4f5f33;
      }

      .cls-3 {
        fill: #c3ccb3;
      }

      .cls-4 {
        fill: #cfd5c4;
      }

      .cls-5 {
        fill: #cdd4c0;
      }

      .cls-6 {
        fill: #abb29e;
      }

      .cls-7 {
        fill: #c6cfb7;
      }

      .cls-8 {
        fill: #b2baa3;
      }

      .cls-9 {
        fill: #9ea88c;
      }

      .cls-10 {
        fill: #d7dbd0;
      }

      .cls-11 {
        fill: #596b3a;
      }

      .cls-12 {
        fill: #8f9f71;
      }

      .cls-13 {
        fill: #61704a;
      }

      .cls-14 {
        fill: #96a183;
      }

      .cls-15 {
        fill: #6b8043;
      }

      .cls-16 {
        fill: #5e7041;
      }

      .cls-17 {
        fill: #cfd4c7;
      }

      .cls-18 {
        fill: #5a6c3b;
      }

      .cls-19 {
        fill: #84916d;
      }

      .cls-20 {
        fill: #a6b096;
      }

      .cls-21 {
        fill: #dde2d4;
      }

      .cls-22 {
        fill: #dde0d7;
      }

      .cls-23 {
        fill: #4d5e32;
      }

      .cls-24 {
        fill: #dde2d5;
      }

      .cls-25 {
        fill: #4a5b2e;
      }

      .cls-26 {
        fill: #e2e6db;
      }

      .cls-27 {
        fill: #e6e8e2;
      }

      .cls-28 {
        fill: #e5e8de;
      }

      .cls-29 {
        fill: #dbe0d1;
      }

      .cls-30 {
        fill: #4c5d30;
      }

      .cls-31 {
        fill: #5c6d3d;
      }
    </style>
  </defs>
  <g id="Background">
    <g id="BL_L1_2_Image" data-name="BL_L1_2 Image">
      <g>
        <path class="cls-21" d="M74.38,0v.24c-.13.68-1.19.63-1.44,0v-.24h1.44Z"/>
        <path class="cls-15" d="M72.95.24c.38-.04,1.07-.05,1.44,0,3.4.46,6.17,5.01,7.71,7.73,3.8,6.72,6.5,14.5,8.59,21.91.43,0,.26-1.03.23-1.31-.36-4.79-1.25-9.46-2.7-14.03-.84-2.63-4.02-8.46-1.85-10.83,2.31-2.54,5.93,3.29,6.59,5.15,1.78,4.97,1.21,18.17.36,23.66-.2.71-.12.79.24.24,3.04-5.7,3.16-11.4,4.1-17.54.83-5.42,5.54-7.62,5.49-1-.03,3.71-2.11,8.95-3.66,12.38-1.36,3-3.15,5.89-4.72,8.79.34.27,2.08-1.23,2.4-1.55,3.45-3.29,5.08-8.78,8.13-11.73,2.08-2.01,4.8-1.02,4.78,1.89-.03,5.02-7.04,10.04-11.04,12.19-.63.34-3.19,1.23-3.32,1.35-.6.59,1.05.49,1.33.49,2.19-.07,4.43-1.08,6.39-1.99s4.13-2.96,6.48-2.02,1.01,4.4-.7,5.4l-3.91,1.71c-.31.34-1.03.47-1.44.24-.29.17-.57.31-.85.42l-7.53-.53c-.39.06,6.5,3.36,7.43,2.27.88.61,2.21.67,3.29.66l.55.29c.21.63,1.54,1.26,1.61,2.55.02.42-.61,1.92-.89,2.23.25,1.52-3.63,2.13-4.07.96-.88-.13-2.51-.62-3.36-.96l-.53.29c-1.14-.78-2.32-1.36-3.54-1.72-.4,0-.55-.22-.45-.67-1.31-.7-2.28-1.59-2.9-2.68-.22-.21-.3-.13-.24.24,1.04,1.15,2.13,2.29,3.29,3.42l.3.88c.69-.39,2.21,1.16,2.73,1.77.8.93,1.47,1.84,1.15,3.15-.35,1.43-2.08,3.24-3.4,2.02-.09.26-.25.42-.48.48-.63.27-2.27-.62-2.64-1.2-.19-.88-1.03-1.21-1.49-1.98-.81-1.37-1.1-3.28-1.39-4.83-.07-.35,0-.74-.48-.84-.27,1.68-.62,3.42-1.03,5.07-.35,1.41-1.44,3.93-1.13,5.21l-.09,1.12c-.75,1.51-1.2,3.16-1.32,4.84l-.5.49c-.2-.06-.16-.49-.36-.48-.23,0,0,.41-.28.49-.33.08-.89-.02-1.28,0-.56,0-.54-.34,0-.48-.48-.82.33-2.75,1.2-3.11.03-1.49.12-3.2,1.2-4.3-.54-.72.12-2.6.96-2.87-.11-.06-.2-.14-.24-.23-.13-.36,1.36-7.21,1.6-7.52.06-.08.18-.12.32-.14.09-.57.01-.81-.24-.72-.44,2.79-3.13,6.11-5.75,7.17.21.07.2.15,0,.24-.52.03-.98.25-1.44.48-.27.21-.63.33-.96.24-.49.8-2.79.95-3.36.24-1.06.26-3.7-.97-3.12-2.15-.4-.71.87-2.45,1.68-2.39l.92-.79c2.99-.57,5.52-1.74,7.6-3.5h.59c.2.11,2.34-1.58.58-.46l-.58-.03c-2.17,1.04-4.72,1.2-7.19,1.2h-2.36s-.27-.48-.27-.48c-.47.73-3.28.14-3.36-.72-.2.73-1.95-.29-2-.56l-.39.08h-.51c-.95-.56-3.15-2.56-3.56-3.59-.95-1.05-1.89-2.74-1.93-4.18,0-.37.25-.79.25-1.08-.13-.79.69-.89,1.32-.97,1.2-.15,3.77.75,4.19,1.93l.24-.24c1.11.46,2.23.94,3.36,1.44,1.42.52,2.87.92,4.39,1.12l.16.55.55-.17c1.18.51,2.45.79,3.79.85l.22.51c.78-.07,1.58-.07,2.4,0l.33-.41c.46.49,2.71-.41,2.5-.51l-7.69-3.47c-.52-.29-.98-.66-1.38-1.1-1.52.16-4.05-.74-5.03-1.91l-.43.34-2.34-1.13c-.63-.43-1.15-.41-1.54.06-.4.14-.68-.11-.85-.77-2.73-.46-7.78-3.86-3.79-6.31.47-.29,1.12-.59,1.52-.09,3.85-.2,11.04,4.25,14.36,6.35,2.45,1.55,4.74,3.35,7.21,4.88.39-.49-2.59-4.05-3.12-4.65-2.65-3.02-6.15-6.02-9.6-8.11-3.17-1.92-7.52-3.23-9.81-6.24-2.76-3.63-.41-7.3,3.91-5.09,2.88,1.47,7.92,6.18,10.36,8.55,3.23,3.14,6.06,6.67,8.98,10.04-2.2-6.41-6.13-12.64-10.66-17.69-1.56-1.74-6.29-5.8-7.01-7.59-1-2.48.22-4.34,2.81-4.6Z"/>
        <path class="cls-15" d="M29.09,50.43c.18.09.26-.07.24-.48-1.06-4.94-2.2-8.86-4.38-13.43-.96-2.01-2.42-4.07-3.25-6.08-2.38-5.72,1.13-7.52,5.12-3.2,4.56,4.94,5.22,19.15,5.39,25.82.15.15.31.14.48,0,1.18-3.69,1.61-7.95,1.68-11.82.06-2.96-.81-7.76.85-10.16.69-.99,1.87-1.92,2.9-.89.11.11,1.01,1.5,1.04,1.59l.54.2c.25,1.41.37,2.84.42,4.27l-.48.31.35.75c-.61,5.97-2.73,11.79-4.93,17.41,1.55-1.91,3.04-4.01,3.66-6.39l.44-.3c.23-1.18.59-2.73,1.68-3.35l-.22-.65c.79-1.57,1.57-3.11,2.75-4.41l.58.04c.42-.66,1.61-.53,2.29-.25.5.2,2.13,1.57,1.78,2.16l-.16,4.03-.55.28c.11.06.2.12.27.2.28.39-2.01,3.78-2.5,4.29l-.65.05-.08.83-2.45,2.33-.11.67c-.35.36-.85.62-1.5.77-.23.46-.53.69-.9.66.31-.33-2.6,1.69-2.6,1.88l2.08-.97.52.28.17-.52c1.06-.21,2.16-.98,2.85-1.81l.57-.06c.12-.43.48-.73,1.06-.9,2.16-1.95,4.12-2.29,5.89-1.01,1.89.14,1.07,4.65-.48,4.78l.14.56c-.64,1.28-5.78,2.55-7.33,2.78l-.35.39c-1.88-.07-3.76.03-5.63.3l-.49-.45c-.94.01-1.5.17-1.68.48h1.31c3.17,1.05,6.5,1.93,9.86,1.45l1.29.22c.54-.56,1.87-.09,1.68.72.12.08.72.32.36.48-6.16-.62-13.96.82-19.91.02-.48-.06-.31-.53-.46-.5-.28.06-.85.7-1.43.49l-21.46-.14c-2.93-2.34-3.28-6.59,1.62-5.2,4.63,1.31,7.6,2.52,12.64,2.87,2.57.18,6.36.19,8.26-1.73-3.49-1.31-7.11-2.46-10.73-3.4-3.21-.83-12.14-2.03-14.27-3.45-1.95-1.31-1.86-3.03.34-3.89,3.35-1.3,9.59,1.35,12.85,2.69,3.62,1.49,7.11,3.34,10.62,5.06.46-.49-3.69-4.11-4.2-4.53-2.86-2.39-6.59-4.8-10.02-6.26-3.72-1.59-9.63-2.46-11.86-6.1C-.63,38.2,0,35.56,2.63,35.38c1.75-.12,6.2,2.62,7.84,3.62,5.98,3.66,9.92,7.61,15.15,11.9.27.22.39.58.84.48.46-.48-5.3-8.12-6-8.95-4.36-5.19-9.07-7.77-13.77-12.08-1.47-1.35-2.82-3.34-1.19-5.23,2.75-3.18,7.65.09,9.81,2.37,5.89,6.21,10.12,15.32,13.78,22.95Z"/>
        <path class="cls-25" d="M63.36,48.76c-2.63-6.24-6.65-12.02-11.35-16.89-1.9-1.97-7.46-6.08-7.78-8.63-.25-1.94,2.33-3.51,4.14-3.41,3.88.21,7.16,5.31,8.95,8.3,3.82,6.4,6.49,13.41,9.04,20.39.26-2.89-.83-5.73-1.08-8.6.83.91,3.92,2.77,4.07,3.59.2-.04.36.02.47.19l-.34,6.37,1.6-5.55.66-.53c.89.26,2.46.61,3.36.72l.37.35-3.69,7.87,1.76-1.76h.6c.74,1.3,1.99,1.39,3.12,2.15l-.06.53-2.26,1.52c-3.76,1.79,1.12.29,2.54-.53,1.17-.8,2.38-1.31,3.62-1.52-.02-.3.22-.45.72-.48.17-.34.79-.45,1.2-.48.04-.03-.04-.21,0-.24,1.55-.9,4.05-.67,4.31,1.43-.22.85-.66,1.83-.96,2.87-.41.44-.67.96-.88,1.52l-.56-.09c-.15.81-.8,1.31-1.93,1.51-3.58.79-7.24,1.03-10.97.73,1.93,1.1,4.09,1.76,6.31,2.18l.35.6.85.12c.76-.53.91,1.14.11,1.31-2.43.02-7.36.39-9.46,0-.76-.14-.95-1.05-1.68-1.19l.36,1.19h-7.43c.35-.82,1.41-1.23,1.92-1.79.31-.33.04-.59-.12-.6-.19,0-2.92,1.23-3.61,1.41-.96.26-3.71.97-4.54.97h-3.83c-.69,0-2.14-.62-3-.48-.68-.45-1.06-.45-1.68-.72-1.33.01-3.09-.98-4.15-1.78l-.17-.61c-.13-.62.31-.49.71-.59,1.84-.46,5.26-1.21,6.48-2.75l.82-.31c4.43,1.54,8.68,1.87,12.74,1-4.04-1.98-8.17-3.73-12.41-5.23l-.43-.49c-1.73-.36-3.46-.79-5.18-1.28l-.58-.63c.74-.9,2.55-3.55,2.88-4.54h.76c4.73,2.06,9.27,4.54,13.63,7.42-3.69-4.42-8.13-8.06-13.33-10.91l-.34-.81c-.74-.51-1.41-1.49-1.98-1.73-.8-.34-1.31,0-2.1-.18l-.53.34c-.65.02-4.04-2.37-3.79-3.45.04-.78-.23-4.01-.48-4.78,2.04-2.52,5.77.56,7.75,1.96,5.59,3.94,11.98,9.91,16.22,15.25.16.02.24-.07.24-.24Z"/>
        <path class="cls-11" d="M127.35,53.06c.12.27-.2.55-.48.48-.21.23-.13.31.24.24-.15-.24.19-.52.48-.48,1.99-1.22,2.94-1.16,5.03-2.87.05.44.69.22.97.13,2-1.14,4.16-1.94,6.28-2.82.35-.14.59-.53.9-.65.29-.5.53-.58.72-.24,1.21-.49,4.78-1.2,5.51-2.15.46-.45.57-.39.48.24.19-.35.57-.61.96-.48,6.14-2.14,15.17-5.8,21.45-6.21,1.64-.11,8.48.26,9.35,1.67.63,1.02-1.47,1.9-2.23,2.09-3.8.97-8.46.3-12.41.53-4.67.27-9.32.99-13.77,2.4-.06.53.57.39.96.24,6.68.43,12.76.49,19.02,3.38,1.52.7,6.86,3.25,4.84,5.48-1.45,1.59-5.75.37-7.49-.45-3.5-1.65-6.29-3.35-10.08-4.76-1.95-.73-8.28-3.1-9.95-2.87s-3.41,1.61-5.21,1.62c-.37.29,0,.44.36.48,1.8.21,3.69.21,5.49.5,5.34.88,11.9,3.18,16.08,6.67,1.47,1.22,7.83,7.68,1.98,6.63-2.19-.39-5.33-3.77-7.29-5.16-5.13-3.61-11.8-6.81-17.87-8.36-1.9.8-3.99,1.48-5.7,2.58-.22.42-.8.54-1.2.48-2.42.98-5.38,2.93-7.67,3.59-.16.16-.24.32-.24.48.03.11.04.21.03.31-.05.32-5.16,2.77-5.78,2.56.03.48-.37.72-1.2.72-2.32,1.52-4.76,3.03-7.19,4.3.24.42-.16.66-1.2.72-.68.2-1.41.47-2.16.12.76-.74,3.05-1.47,3.59-2.27.38-.33.7-.64.96-.96,2.16-.48,3.75-2.39,5.84-3.14.35-.19.44-.52.58-.86.86-1.98,1.34-5.15,1.79-7.29.78-3.71,1.63-8.19,1.62-12.03,0-2.71-1.11-5.87.42-8.4,1.65-2.73,2.9.68,3.29,2.31,1.92,7.94-1.7,18.23-6.12,24.86-.03.18.06.26.24.24,1.44-.81,3.04-1.39,4.27-2.55,2.31-5.89,4.09-11.93,5.29-18.15.28-1.45.16-2.47.68-4.1,1.39-4.33,5.82-7.2,5.57-.66-.27,7.07-5.71,16.4-10.06,21.87Z"/>
        <path class="cls-11" d="M113.93,60.95c-.2.51.32,1.51-.96.96.34-.51,1.38-4.53,1.61-5.45.47-1.92.71-3.87,1.03-5.79-.12-.48-.05-1.04.24-1.43h-.24c.11.34.06.74-.24.96-.97,3.53-2.48,6.77-4.27,9.96-.31.55-2.28,3.97-2.49,4.09-.17.1-1.6.28-1.39-.3.72-3.3,1.93-6.55,2.57-9.87.79-4.04.32-9.46,2.5-12.8.93-1.42,2.41-3.11,3.79-1.12.16.01.24-.07.24-.24-.15-1.83-.39-5.6,1.07-6.94,1.7-1.55,2.66,1.6,2.94,2.81,1.8,7.64-1.11,15.77-4.69,22.45-.48.9-1.36,1.78-1.72,2.71Z"/>
        <path class="cls-11" d="M147.97,44.22c.01.23-.15.47-.48.72-.1,0-.34-.2-.48-.24,1.73-3.57,4.04-7.11,5.68-10.7s3.33-12.27,7.33-13.49c3.7-1.13,2,4.17,1.43,5.97-2.15,6.78-8.3,13.11-13.48,17.74Z"/>
        <path class="cls-11" d="M132.63,50.43c-.08-.63,1.44-2.61,1.79-3.35,2.18-4.56,4.48-11.22,5.34-16.18.37-2.11.12-4.35,1.01-6.4s2.89-3.21,3.49-.37c1.84,8.59-5.15,21.02-11.64,26.3Z"/>
        <path class="cls-11" d="M141.5,46.84c-.25.1-.51.15-.72.24,1.09-2.91,2.68-5.64,3.78-8.54s2.31-6.95,2.86-10.05c.47-2.66.21-6.15,1.99-8.23,1.93-2.25,2.74.52,2.89,2.32.5,5.91-2,12.02-5.18,16.84l-5.61,7.43Z"/>
        <path class="cls-11" d="M135.98,50.91c7.19,1.32,14.31,2.28,20.35,6.83,1.95,1.47,4.91,4.04,5.05,6.55h-3.95c-.32,0-4.33-3.48-5.08-4.02-5.33-3.89-11.43-6.56-17.57-8.89.08-.03.18-.4.42-.47.25-.03.53-.05.77-.01Z"/>
        <path class="cls-11" d="M127.11,54.97c1.81.53,3.74.46,5.59.75,6,.92,12.01,2.87,16.81,6.67l1.8,1.9c-1.85-.27-5.36.48-6.95-.24l-.66-.04c-4.92-3.35-10.62-5.73-16.23-8.03l-.6-.54-.24-.48c.15-.03.35.03.48,0Z"/>
        <path class="cls-25" d="M65.52,24.38c-.07,0-1.16.44-1.29.51-3.68,2.21,1.81,5.31,4.13,5.5-.1.48.19.85.27,1.17.98.67,1.18,3.14.48,4.06-1.77-.8-3.56-2.23-5.51-.96-.02-1.12-2.5-5.61-2.95-7.22-1.32-4.68,1.69-7.32,4.87-3.06Z"/>
        <path class="cls-11" d="M121.12,58.32c3.29-.37,6.82-.08,10.16.54,4.48.83,9.09,2.3,12.37,5.44-1.55.19-6.99.21-8.45-.05-1.75-.32-5.84-2.56-7.96-3.3-2.35-.82-4.82-1.67-7.31-1.91.58-.38.68-.42,1.2-.72Z"/>
        <path class="cls-11" d="M107.46,49.23c.23.4.28.86.26,1.31-.12,2.62-.69,5.66-1.4,8.19-.22.79-1.73,5.39-2.13,5.52-.53.18-1.41-.05-2,.03.87-4.65,1.11-9.41,1.2-14.1,1.38.21,3.07.21,4.07-.96Z"/>
        <path class="cls-11" d="M100.03,49.23c.18,1.52.63,3.13.72,4.66.12,2.19-.29,5.66-.78,7.82-.16.72-.7,1.68-.88,2.47-.34.24-2.48.1-3.13.11-.21-.07-.21-.15,0-.24-.09-.29,0-.73.24-.96-.1-.54-.1-1.1,0-1.67-.67-.34-.46-1.94.24-2.15-.19-.31-.33-.68,0-.96-.46-.13-.46-.34,0-.48-.25-.65-.34-1.3,0-1.91,1.37-.13,1.76-.02,2.6-1.35,1.48-2.36-1.45-4.11-3.08-5.58-.54-.65-.54-1.05,0-1.2.27-.36.17-.61.73-.38,1,.41,2.27,1.39,3.35,1.81Z"/>
        <path class="cls-11" d="M93.32,55.21c.38-.21,2.47.78,2.64,1.2.24.27.4.75.48,1.43,0,.16,0,.32,0,.48-.23.28-.23.6,0,.96-.05.82-.14,1.38-.24,2.15.01.59-.07,1.15-.24,1.67.06.26.06.57,0,.96v.24c-1.43.02-2.88-.01-4.31,0v-5.62c0-.49,1.12-3.15,1.68-3.47Z"/>
        <path class="cls-11" d="M87.81,57.84c.5,2.09,1.49,4.21,1.68,6.45-.95-.17-2.79.24-3.59,0,.04-2.15.76-4.67,1.92-6.45Z"/>
        <path class="cls-11" d="M105.3,41.11c.51.29,1.08,1.55,1.33,2.15.18.44.03.94.11,1.2-1.12.63-2.57-.3-3.84,0,.01-.32-.02-.64,0-.96-.93-.52-.11-2.22.96-2.15.53-.42.77-.61,1.44-.24Z"/>
        <path class="cls-18" d="M83.01,63.34c.54.37.62.69.24.96-1.19.03-2.4,0-3.6,0-.05-.28.1-1.06-.02-1.18-.03-.03-.67-.17-.94-.25.1-.34.37-.48.8-.43.26-1.23,1.21-2.46,2.52-1.6.54.36,1.72,2.04.99,2.5Z"/>
        <path class="cls-16" d="M112.73,63.34l7.3.51,1.33.44-9.83-.24c.63-.18.91-.56,1.2-.72Z"/>
        <path class="cls-23" d="M83.97,63.81c-.04.11.03.33,0,.48-.24,0-.48,0-.72,0-.25-.26-.15-.72-.24-.96.35-.62,1.12-.18.96.48Z"/>
        <path class="cls-14" d="M150.84,44.93c.17.37.65.22.96.24-.41.48-1.32.17-1.92.24-.07-.36.59-.36.96-.48Z"/>
        <path class="cls-22" d="M115.61,50.67l-.24-.48c.09-.32.15-.64.24-.96.07-.21.15-.21.24,0-.07.51-.16.95-.24,1.43Z"/>
        <path class="cls-29" d="M29.32,49.95c.08.38.58.92.48,1.43-.42-.12-.55-.61-.72-.96l.24-.48Z"/>
        <path class="cls-5" d="M32.68,53.06c-.12.38-.12.9-.36,1.2-.22,0-.11-.92-.12-1.2h.48Z"/>
        <path class="cls-26" d="M93.56,32.74c-.14.26-.29,1.1-.72.71-.09-.08.46-.82.48-.95l.24.24Z"/>
        <path class="cls-27" d="M63.36,48.76c.08.18.55.89.48.95-.47.42-.55-.5-.72-.71l.24-.24Z"/>
        <path class="cls-20" d="M148.45,44.45c-.25.09-.63.46-.96.48-.05-.48.25-.51.48-.72l.48.24Z"/>
        <path class="cls-1" d="M116.33,39.91c0,.11.43.54.24.95-.35.09-.27-.42-.48-.72l.24-.24Z"/>
        <path class="cls-20" d="M121.6,56.64c-.13.07-.63.58-.72.48-.18-.51.36-.54.48-.72l.24.24Z"/>
        <path class="cls-25" d="M77.98,34.18l-.72,4.3c-.12-.12-2.41-.39-3.24-.71-.69-.27-1.25-.25-1.31-.96-.91-.84-.58-3.68.24-4.54,1.77.66,3.25,1.16,5.03,1.91Z"/>
        <path class="cls-25" d="M84.93,43.98c.63.12.6.26,0,.48-.68,1.08-1.62,1.54-2.79,2.12-2.01.98-4.2,1.49-6.32,2.18-.55-.41,1.06-3.44,1.33-3.61l.59.02c.13-.15.21-.43.41-.47,1.16-.1,2.67-.06,3.79-.23.85-.13,2.02-1.02,2.98-.49Z"/>
        <path class="cls-31" d="M85.17,60.71c-.6-.9.06-1.96-.24-2.87.41-.36.59-1.33,1.44-1.43-.42,1.44-.71,2.85-1.2,4.3Z"/>
        <path class="cls-13" d="M84.21,39.67c-.66.63-1.72.1-2.4,0,.77-.8,1.58-.18,2.4,0Z"/>
        <path class="cls-4" d="M83.01,52.34c-.5.42-.92.3-1.2.48h-.24c.36-.37.97-.82,1.44-.48Z"/>
        <path class="cls-3" d="M89.01,45.65c-.01-.27.07-.58-.24-.72.17-.33.17-.79.48-.72l-.24,1.43Z"/>
        <path class="cls-12" d="M91.16,30.83v.95c-.13.29-.61-.82-.48-.95h.48Z"/>
        <path class="cls-24" d="M81.58,52.82h.24c-.24.15-.46.32-.72.48l-.48-.24c.21-.05.54-.42.96-.24Z"/>
        <path class="cls-28" d="M92.6,44.45l-.24.24c-.06-.12-.59-.63-.48-.71.52-.16.52.31.72.48Z"/>
        <path class="cls-30" d="M41.79,54.25c.43.01.89.24,1.2.24-.39.98-1.83,1.74-2.71,2.21-.32.17-.71.1-.88.18-.67-.24-.73-1.02,0-1.2.31-1.29,1.26-1.46,2.4-1.43Z"/>
        <path class="cls-2" d="M40.83,44.69c-.39.85-.69,1.79-1.06,2.66-.14.34-.05.76-.62.69-.13-.35-.53-.7-.63-1.19-.29-1.4,1.18-1.96,2.31-2.16Z"/>
        <path class="cls-7" d="M35.8,60.95l-1.68.48c-.17-.07-.99-.35-.72-.48.8-.03,1.6.03,2.4,0Z"/>
        <path class="cls-6" d="M66.71,50.43h-.23c.07-.55-.41-1.09.12-1.43l.12,1.43Z"/>
        <path class="cls-9" d="M127.11,53.78c-.12.09-.64.58-.72.48-.16-.51.31-.51.48-.72l.24.24Z"/>
        <path class="cls-19" d="M115.85,49.23h-.24c.07-.27.2-1.2.36-1.2.39.29-.08.93-.12,1.2Z"/>
        <path class="cls-17" d="M96.2,63.1c0,.31.12.79-.24.96-.57-.39-.02-.79,0-.96.07-.21.15-.21.24,0Z"/>
        <path class="cls-10" d="M96.2,63.1h-.24c.06-.58.18-1.17.24-1.67,0,.56.01,1.12,0,1.67Z"/>
        <path class="cls-8" d="M96.44,59.27c-.47-.4-.66-.71,0-.96,0,.32.02.64,0,.96Z"/>
      </g>
    </g>
  </g>
</svg>