<?xml version="1.0" encoding="UTF-8"?>
<svg id="Layer_2" data-name="Layer 2" xmlns="http://www.w3.org/2000/svg" viewBox="0 0 104.62 130.96">
  <defs>
    <style>
      .cls-1 {
        fill: #d8dece;
      }

      .cls-2 {
        fill: #4b5b2f;
      }

      .cls-3 {
        fill: #5b6d3c;
      }

      .cls-4 {
        fill: #c9d1bb;
      }

      .cls-5 {
        fill: #c7cdbd;
      }

      .cls-6 {
        fill: #e2e6da;
      }

      .cls-7 {
        fill: #4e5e33;
      }

      .cls-8 {
        fill: #5a6b3b;
      }

      .cls-9 {
        fill: #5b6c3c;
      }

      .cls-10 {
        fill: #596b3a;
      }

      .cls-11 {
        fill: #6b8043;
      }

      .cls-12 {
        fill: #5a6c3b;
      }

      .cls-13 {
        fill: #57683c;
      }

      .cls-14 {
        fill: #4c5d31;
      }

      .cls-15 {
        fill: #bec8ad;
      }

      .cls-16 {
        fill: #d8dcd3;
      }

      .cls-17 {
        fill: #5d6f3c;
      }

      .cls-18 {
        fill: #4a5b2e;
      }

      .cls-19 {
        fill: #4b5c2f;
      }

      .cls-20 {
        fill: #b4bf9f;
      }

      .cls-21 {
        fill: #5b6d3d;
      }

      .cls-22 {
        fill: #b8c0ab;
      }

      .cls-23 {
        fill: #627344;
      }

      .cls-24 {
        fill: #596b3b;
      }

      .cls-25 {
        fill: #4f6031;
      }

      .cls-26 {
        fill: #5c6e3e;
      }

      .cls-27 {
        fill: #c8cebe;
      }

      .cls-28 {
        fill: #5a6c3a;
      }

      .cls-29 {
        fill: #6f7d58;
      }

      .cls-30 {
        fill: #4a5b2f;
      }

      .cls-31 {
        fill: #abb796;
      }

      .cls-32 {
        fill: #5c6d3e;
      }

      .cls-33 {
        fill: #5c6d3d;
      }

      .cls-34 {
        fill: #5d6f3e;
      }
    </style>
  </defs>
  <g id="Background">
    <g id="BL_L1_1_Image" data-name="BL_L1_1 Image">
      <g>
        <path class="cls-11" d="M15.16,36.29c.24-.02.39-.18.48-.48.09-2.96-.08-5.78-.52-8.7-.52-3.48-2.76-9.41-2.33-12.48.27-1.95,1.92-3.49,3.57-1.7,2.18,2.37,2.47,7.33,2.55,10.41.13,4.86-.54,10.06-1.35,14.87,4.07-3.99,3.04-11.1,4.98-15.98,1.23-3.11,4.3-3.11,5.24.11,1.79,6.1-4.58,13.7-8.55,17.78,4.55.01,7.58-7.4,10.77-8.5,3.57-1.24,4.02,2.78,2.5,5.14-.36.56-2.63,2.54-3.22,2.89.28.69-.74,1-1.2.48-.67.92-1.71,1.51-3.12,1.78-5.45,1.33-5.69,1.87-.72,1.61,1.47-.2,2.83-.13,4.08.21l.12-.54c.87-.39,3.19-1.12,3.94-.66.51.45,1.6.59,2.02,1.45.25.52.3,1.84.13,2.38.28,1.03-.14,1.41-.92,1.98-.56.41-2.32,1.21-2.67.41-.26.84-2.72,1.19-3.35.48l-.37.47c-.69.12-3.74-.19-3.94-.95l-.43.4c-4.24-1.37-4.13-1.16.33.64l.34.64c.46-.59,2.59.26,3.26.63,3.03,1.66,3.31,4.68.09,6.08-.27.29-.51.29-.72,0l-.41.47c-.84-.07-1.66-.14-2.46-.23-2.45-.92-3.72-2.55-5.06-4.76l1.42,8.72-.43.36c.4,1.05.54,2.22.44,3.5.29,1.04.3,1.95.04,2.73.11,1.54.23,3.08.37,4.62l-.37.41c.05,2.16.06,4.32.03,6.49l-.5.46c.13,1.59.07,3.2-.08,4.82.47-.76.98-1.09,1.52-.99-.06-.55.26-1.05.97-1.5.09-.65.33-1.02.71-1.14.64,0,1.22-.34,1.73-1.04l.66.08c.07-.54.55-.78,1.44-.72.75-.69,1.47-.93,2.15-.72.22-.39.54-.63.96-.72l.72.48c.43-.27,1.06-.45,1.44,0,.64-.04,2.13.75,1.67,1.44.25.35.49.75.72,1.2-.38.78-1.12,1.64-1.91,2.16l.14.56c-1.36,1.1-2.84,1.95-4.45,2.55.23.68-.54,1.06-.96.48-.68,1.02-1.4,1.41-2.15,1.2-.34.88-.82,1.2-1.44.96-.07.26-.23.5-.48.72-.88.58-1.73,1.26-2.55,2.05l-.57-.14c-.11.78-1.2,1.72-1.91,1.44-.22.89-.06,1.37.48,1.44-.04-.48.25-.8.87-.96,0-.56.2-.88.57-.96.74.21,1.58-.12,2.49-.99l.86.03c-.02-.54.05-.8.54-.55.57-.6,1.11-.81,1.62-.64,2.36-1.75,5.43-3.01,8.19-4.12,1.43-.58,2.95-1.07,4.49-.91,0-.31.24-.38.72-.24.7-1.01,3-.83,4.23-.69.82.09,2.48.84,2.7,1.65,1.27.06,2.74,3.39,1.44,3.83.53.49-.15,1.27-.72,1.44l-.22.65c-2.15.71-4.39,1.06-6.72,1.03l-.58.42c-5.58-.23-11.06,1.66-16.21,3.65l-.68-.23c-.79.39-1.34.95-1.66,1.67.36-.12.67-.04.94.24.22-.15.45-.29.7-.4s.48-.22.72-.24c6.24-.66,12.24-1.06,18.52-.6.87.06.43.27.39.09-.12-.45,2.13-4.29,3.36-3.4,1.16-1.55,3.68.55,2.87,2.16.79-.05.68.84.48,1.44l.27.5c-1.41,3.39-1.14,7.2-.77,10.76l-.22.24.48-.24c-.14-.1-.25-.2-.29-.32-.72-2.66,2.48-11.21,4.12-13.6,1.03-1.5,2.96-3.73,4.78-3.57.74-.92,3.26-.65,3.35.72.77.91.87,2.33.24,3.35-.88,1.92-2.7,4.14-4.55,5.27l.05.69c-1.86,1.9-3.34,4.01-4.43,6.34,1.72-2.07,3.66-3.77,5.82-5.12v-.65c1.21-.85,2.23-1.85,3.06-2.99l.53-.19c.17-.13.37-.17.55-.05.14.09-.38.23-.31-.02.04-.16,2.31-1.94,2.64-1.6l.2-.59,3.25-1.72c.65-.46,1.17-.48,1.57-.09,2.56-.63,5.32-.06,3.59,3.11l.23.54c-.41,1.08-4.07,2.9-5.24,3.35l-.49-.29-.61.84c-4.12,1.79-7.91,4.07-11.37,6.85l13.88-5.44.96.14.42-.42c2.84-.72,5.69-.92,8.54-.59l1.09.76c5.9,1.81,4.56,5.74-1.08,6.01-.84.04-1.79-.26-2.62-.26-6.57-.01-12.47.14-18.84,1.99-.25.07-.72.06-.67.4,7.4-.49,15.21-.22,22.53,1.04,3.62.62,9.84,1.78,11.44,5.55.99,2.32.09,5.22-2.76,5.17-2.14-.04-6.61-2.91-8.81-3.89-7.29-3.27-13.49-4.66-21.46-5.23-.75-.08-.91,0-.48.24,5.29,1.18,22.43,9.24,25.36,13.53.31.45,1.13,2.52.36,2.52h-7.9c-.51,0-4.79-4.67-5.62-5.39-3.75-3.29-10.08-7.02-14.88-8.34-.17-.05-1.75-.48-1.51.08,5.5,4.07,11.18,8.27,15.43,13.65h-6.58c-3.8-4.81-7.77-9.54-12.32-13.65-.82,3.41,1.43,6.7,3.01,9.56l2.73,4.09h-7.42c-1.31-3.38-2.16-7.36-1.91-11.02.14-.97.06-1.29-.24-.96-.42.66-.68,1.8-.89,2.58-.84,3.12-1.11,6.18-1.02,9.39h-5.02c-1.76-5.06,1.93-9.23,4.78-12.93-.35-.29-7.05,3.92-7.87,4.45-1.46.93-5.5,3.36-6.24,4.65-.68.94-1.32,1.34-1.91,1.2-1.49,1.11-3.38,3.14-5.26,2.52l6.38-4.99c.12-.33.4-.61.55-.88.61-.42,1.15-.95,1.64-1.6l.51.17,1.01-1.13,6.83-3.93c-1.62.29-3.24.34-4.85.13l-.35-.58c-.38.37-.89-.04-.96-.48-.53-.31-1.82-1.73-2.11-2.32-.49-.98-.31-1.45-.52-2.23-2.52-.81-5.05-1.61-7.57-2.39l-.32-.49c-1.72-.3-3.43-.67-5.14-1.11l-.36-.57c-.19.5-.5.42-.84.11-.46.62-.98.42-1.55-.59-1.28,1.67-1.32,2.59-.13,2.77l.13.59c.47-.55,1.08.08.96.72.48-.26.95-.1,1.44.48.83.11,1.31.43,1.44.96,3.86,1.81,6.46,2.07,10.24,3.28,3.47,1.12,2.91,3.74-.14,4.8-5.17,1.79-11.23-.83-15.13-4.25-.59.42-1.15-.04-.96-.72-.42.12-.78-.16-1.09-.85-.94,1.46-.73,2.08.13,3.49.46.27.83.91.72,1.44.52,1.07,1.39,3.71-.06,4.37-.93.43-1.48-.4-1.86.42-.54-.05-.86-.29-.96-.72-.46-.26-1.59-1.23-1.92-1.32-.28-.08-.44.31-.72.26-1.12-.2-.45-1.06-.52-1.64-.09-.71-.94-2.18-1.15-3.29l-.58-.62c-.12-1.89-.13-3.75-.02-5.58l-.35-.02c-.1.39-.26.63-.48.72-.87,1.58-1.76,3.15-2.51,4.79-.72-2.41.62-3.88,1.56-5.87-.68-.34-1.1.94-1.68,1.08v-3.95c.62-.57,1.7-.71,2.39-1.08-.02-.24-.26-.31-.72-.24-.54.05-1.13-.04-1.68,0v-4.31c.1-.14,2.79,1.14,3.35.6-.41-.35-3.35-2.13-3.35-2.4v-4.91l1.55,2.16,2.03,1.91c-2.16-5.89-5.94-14.28-1.91-20.12-.07-.67.31-1.1.96-.96.1-.38.5-.54,1.2-.48.5-.65,2,.47,1.91,1.2,1.27.28,1.74,3.44.72,4.07.49,1,.48,3.29-.48,3.83l.37.62c-.48,1.18-.65,2.35-.5,3.5l-.35.43c-.07,2.16.21,8.05.76,1.98l.44-.3c-.13-.88,0-1.81.4-2.77.01-.78.2-1.37.56-1.78-.14-.16-.14-.32-.11-.51.1-.57.53-2.34,1.06-2.36-.43-.72.45-3.37.89-4l.55-.08c-.51-.71.57-2.83,1.44-2.87.08-1.69,1.35-2.92,2.53-4l.58.17c-.28-1,1.87-1.74,2.39-.72l.32-.19-.04-4.48c.42-.86.56-1.62.44-2.27-.21-.04-.2-.13,0-.24-.67-.54-.7-2.66-.24-3.35-.21-1.43-.37-2.87-.48-4.31-.83-.01-.71-2.42,0-2.64l-.61-1.4-.88-5.97-1.18,4.31c-.36,1.17-.99,2.11-1.89,2.82.4.58.21.86-.48.72l-.96.72c-.57,1.05-2.52,2.08-3.59,1.68-.85.69-3.73.38-3.59-.96-.63-.41-.03-2.47.72-2.64l.66-1.18c2.18-1.66,4.1-3.54,5.75-5.66l.53-.1c.45-1.02.45-1.42,0-1.2l-.22.65c-2.1,1.21-4.18,2.35-6.24,3.42-.63.12-1.36.4-2.2.84l-.43-.36c-.17.82-1.99.91-2.39.24,0-2.15,0-4.32,0-6.47.47-.52,1.71-.89,2.15-.24l.49-.53,3.66-.53.64.34c.59-.49,1.37-.83,2.15-.72l.04-.54c.88-.29,1.64-.74,2.27-1.35-3.15-.39-6.35-.73-9.52-.71l-.45-.27c-.19.67-1.23.3-1.44-.24,0-1.35,0-2.72,0-4.07l10.76,2.39c-3.09-2.64-6.94-4.42-10.77-5.75v-4.55c2.7,1.42,5.56,2.67,8.13,4.31.56.32.64.24.24-.24-2.52-2.86-5.35-5.24-8.37-7.55v-6.11l4.91,4.79,6.82,8.27c-1.85-4.67-4.56-9-7.66-12.93-.56-.71-4.06-4.25-4.06-4.56v-6.59c6.75,1.5,9.37,8.92,11.49,14.73,1.34,3.69,2.13,7.52,3.34,11.14Z"/>
        <path class="cls-10" d="M58.7,38.45l5.52-5.38c1.04-6.41,1.11-13.89-.08-20.31-.41-2.19-2.78-8.19-.5-9.75,1.91-1.3,3.77,4.75,4.08,5.92,2.04,7.68.13,15.8-2.56,23.05.45.1.57-.25.84-.48.52-.43,3.26-2.93,3.41-3.3.76-1.92,1.32-9.03,1.5-11.44.29-3.95-.39-8.33.03-11.95.56-4.86,4.9-7.6,5.47-.5.63,7.82-2.61,16.35-6.22,23.11.19.18,1.17-.68,1.41-.86,6.65-5.01,12.88-12.71,21.36-14.55,2.86-.62,8.01-1.15,3.39,2.44-2.8,2.17-6.81,3.1-10.05,4.55-4.42,1.97-9.24,4.37-12.76,7.71,6.78-2.24,13.4-4.4,20.69-3.83,1.66.13,6.95.92,5.25,3.58-2.2,3.45-9.84,1.38-13.14,1.2-4.8-.26-9.75.37-14.55.54-1.77,1.07-3.24,2.59-4.72,4.02.13.36-.38.59-.72.72-1.74,1.69-3.57,3.3-5.26,5.03,8.36-2.27,18.83-3.98,26.72.68,1.25.74,3.67,2.55,1.28,3.52-2.54,1.03-7.86-1.53-10.77-2.16-4.35-.94-13.28-2.11-17.58-1.31-.98.18-4.7,4.93-5.63,5.98.23.31,0,.55-.72.72-1.36,1.59-2.69,3.23-4.07,4.79,1.88-.33,3.64-1.25,5.5-1.79,6.68-1.97,15.72-2.99,22.1.39,2,1.06,3.22,2.98.21,3.51-2.78.5-7.02-1.18-10.03-1.59-3.66-.5-7.78-.65-11.47-.51-1.56.06-6.21.28-7.17,1.19-1.73,1.63-3.2,4.68-4.89,6.48,8.23-3.07,17.36-5.35,25.9-2.09,1.05.4,4.38,1.67,3.41,3.29-.89,1.47-4.48.87-5.86.48l-1.2-.24c-.35.32-.48.17-.24-.24l-1.34.11c-5.74-1-11.74-1.16-17.49-.7-2.91.24-3.99.49-5.3,3.33,6.75-1.29,13.61-1.67,20.31.13,1.73.69,3.45,1.44,5.15,2.26l.12.62c.86.52,1.63,1.61,2.63,1.92,1.97,1.04-.5,3.68-1.91,2.64-.54.65-2.73.36-2.87-.48l-.18.27c-1.55-.96-3.25-1.69-5.08-2.18-.92-.52-1.98-.85-3.17-.98l-.89-.7c-.41.6-2.09.27-2.15-.48l-1.07.25c-1.58-.37-10.9-2.47-12.33-1.36-.18.14-2.59,3.84-2.39,3.95,2.78-.68,5.49-1.27,8.33-1.53.94-.09,5.19-.26,5.6.26.08.1.14.23.19.35.5-.44,1.2-.42,2.12.06.94.51,1.83.73,2.66.66l.54.12c0,1.09,1.41,1.51,2.33,1.56.48.06.54.38.49.79,1.57,1.17,2.13,3.44-.21,4.06.03.38-.11.61-.51.66l-.53-.17c-.12-.65-1.02-.47-1.39-.07-1.08.69-2.23,1.18-3.52,1.21l-.55-.49c-1.18.73-3.6-.19-4.79-.96l-.15.3c-1.38-.09-2.76-.19-4.15-.3-2.85,0-5.88.19-8.75.7-2.65.46-3.17,1.05-4.35,3.48l-.54.13c-.41.19-1.14.48-1.44,0-.56-.49.49-2.26,1.2-2.16.15-.68.39-1,.72-.96.73-2.53,1.93-4.91,3.61-7.16-.76-6.36-2.55-12.51-4.57-18.56v-.87c1.51-.25,3.08-.73,3.59-2.4,2.95,6.56,2.76,14.07,1.92,21.08l3.35-4.92c-.5-4.2-.76-8.44-1.52-12.61s-2.81-8.6-2.3-12.51c.16-1.22.99-3.24,2.48-3.02.46.07.61.56,1.09.48.25-.25-1.15-2.21-1.32-2.63-1.67-4.13.05-7.87,3.38-2.91,4.92,7.31,4.94,17.6,2.96,25.9.45.1.58-.22.82-.5.46-.53,3.59-4.65,3.67-4.95.32-1.26-.05-4.02-.21-5.42-.53-4.62-1.9-10.3-3.55-14.65-.87-2.28-3.81-6.81-2.17-9.05,1.38-1.89,4.19,2.95,4.69,3.9,3.79,7.19,3.7,16.49,1.79,24.2.47.12.46-.18.68-.4.43-.44,2.91-3.35,3.02-3.68.43-1.27-.07-2.34-.11-3.47-.13-4.43-.27-8.72-1.03-13.1-.55-3.16-2.81-9.32-.03-11.92,2.31-2.16,3.62,2.25,4.01,3.86,1.85,7.57.09,16.4-2.23,23.67l4.07-4.07c.22-.5.46-.9.72-1.2Z"/>
        <path class="cls-18" d="M70.67,66.72c.08-.51,3.22-3.91,3.82-4.44,1.66-1.46,7.34-5.14,6.94-.48-.26,3.04-6.07,6.31-8.38,8.38-2.72,2.43-5.5,5.4-7.41,8.51.33.28,3.9-2.67,4.47-3.07,3.88-2.74,12.43-8.62,16.97-9.12,2.12-.23,8.35-.22,7.14,3.31-.93,2.7-6.4,2.93-8.72,3.48-3.55.85-7.07,1.78-10.45,3.19l-5.34,2.67c4.66-.93,9.3-2.15,14.03-2.83s17.73-2.66,20.38,2.52c.83,1.63.73,4.27-1.22,4.92-2.47.82-8.75-1.34-11.65-1.85-6.42-1.13-13.67-1.26-20.1-.11-.07.21.09.37.48.48,6.68.35,18.29,3.24,24.32,6.19,2.06,1.01,4.83,3.26,2.36,5.56-3.57,3.31-10.36-2.23-13.52-3.96-5.62-3.07-12.27-4.74-18.67-4.9l11.73,5.62c3.05,1.65,9.22,4.95,9.76,8.69.25,1.73-1.05,2.43-2.6,2.11-2.2-.46-9.82-7.36-12.35-9.19-2.94-2.13-6.01-4.06-9.05-6.03-.61,3.56,2.85,6.02,4.67,8.62-1.69.41-3.37,1.83-5.02,2.4-.16-.04-.32-.09-.47-.17-1.1-.58-2.22-5.18-2.54-6.59.06.85-.13,1.42-.58,1.72-.98-.93-2.1-.73-3.35-.72-.27-.41-.21-.97.19-1.7-2.83,2.47-5.49,5.11-7.98,7.92h-.59c-.36-.36-.34-.95-.48-1.43-.04-.3-.02-.56.08-.77l5.23-5.42c-1.25.38-4.8,1.21-5.83.33l-.19-.61c.31-1.21-.65-2.94-1.44-3.83l.12-.3c1.37-.17,2.05-.72,2.99-1.61l.4-.33c2.02.79,4.08,1.29,6.2,1.51-2.15-.63-3.98-1.65-5.78-2.98l-.1-.6c-.09-.36.02-.61.37-.59,1.79.43,3.53.61,4.55-1.23l.58-.1c.14-.18.32-.26.55-.2,2.71,2.09,2.96,1.9.75-.56-1.1-1.29-1.69-2.64-1.78-4.04.94.11,3.41-.32,3.59-1.44l.48.72.53.36c.53,1.95,1.06,3.92.89.45l.5-.57c.09-2,.07-.71,1.09-1.42s.35-1.74-.18-2.51-.68,0-.68-1.58c-.75-.26-.49-2.01.24-2.16.3-.43.13-.54.72-.37.77.22,1.94.78,2.73,1.12.49.21,1.61,1.1,1.82,1.17l.18.72c-1.39,2.38-2.28,4.87-2.7,7.49l4.76-7.62.63-.11c.28,0,1.89-.65,2.05-.96.31-.6-.21-1.17-.13-1.68Z"/>
        <path class="cls-18" d="M2.72,54.02l.47.19-.6,8.8c.13.06.96-2.21,1-2.54l.56-.23c1.02.99,2.35.7,3.59.96l.25.43c-.84,1.29-1.75,2.53-2.72,3.74,2.03-1.1,3.61-2.91,4.97-4.8l1.32-1.05c.04-.35.43-.58.72-.72.16-.24.33-.47.48-.72,1.16-1.7,4.11-2.26,4.55.24.04.51-.11,2.56,0,2.64.34.5-.03,1.53-.72,1.44l.04.83c-1.09,2.62-8.55,5.36-11.26,6.27,2.38.27,5.05.08,7.49-.43l.86.28c.11-.02.22-.02.32,0,.25.06,2.29,3.92,2.49,4.4l-.18.63c-.23,1.13-2.27,1.09-3.11.48-.09.7-.56.65-.72,0l-.82.51c-2.38.08-4.74-.35-7.04-.89-.51.14,5.78,2.19,6.02,2.18l.17.59c1.87-.48,1.33,1.84.96,3.11-.36.64-1.17,2.23-1.44,2.87l-.47.23-2.68-2.28c-.51-.01-.9-.21-1.16-.58-.51-.22-1.28-.98-1.91-1.2l-.54.06c.01-.35-.21-.21-.65.42-.09.47-.8.74-.96.96-.41-1.71-.66-3.49-1.16-5.18-.11-.37-.48-.24-.53-.67-.7-5.71,0-14.66.02-20.74.69-.09,1.77-.09,2.39-.24Z"/>
        <path class="cls-10" d="M58.7,38.45c-.16.45.03.95-.72,1.2,1.13-6.45,1.16-13.25.2-19.72-.41-2.78-2.62-8.54-1.12-10.79,1.3-1.95,2.83.9,3.36,2.08,4.04,9.05,1.3,18.42-1.72,27.23Z"/>
        <path class="cls-10" d="M54.4,45.4c.32-.38.63-.62.72-.72,8.5-2.32,18.53-4.13,26.72.2,1.75.92,4.88,3.42,1.1,4.06-2.54.43-6.68-1.6-9.39-2.22-6.15-1.42-12.88-1.93-19.14-1.31Z"/>
        <path class="cls-10" d="M67.08,32.22c7.52-1.96,15.69-3.49,23.26-.89,1.65.57,9.2,3.82,4.35,5.19-2.45.7-6.4-1.36-8.98-1.99-6.25-1.51-12.95-1.91-19.34-1.6.17-.17-.16-.48.72-.72Z"/>
        <path class="cls-18" d="M79.28,103.85c-1.64-.5-3.43-.62-5.15-.49-1.3.1-3.89,1.04-4.9.73-1.15.35-3.12-1.27-2.87-2.4,1.68-.85,4.59-1.93,5.5-3.59,2.19,2.12,6.03,3.04,7.42,5.75Z"/>
        <path class="cls-19" d="M4.39,118.7l-2.84,12.08-1.22.14c.88-5.23,2.85-10.99,2.87-16.29.05-.74.13-1.46.24-2.16l1.19-2.15c-.33,2.84-.77,5.52-.24,8.38Z"/>
        <path class="cls-10" d="M21.86,110.08c.95-.06,2.52.64,3.47.95.74.24,4.3,1.44,4.42,1.92-3.98-.37-8.04-.35-11.96.48-.51-.24-1.58-.25-1.44-.96l.11-.55c1.33-.85,3.89-2.33,5.39-1.85Z"/>
        <path class="cls-18" d="M66.84,59.29c.43.03.98.14,1.2.48,1.66.98.73,3.68,0,5.03-1.27-.76-3.32-1.57-4.74-2.09-.55-.2-.62.02-.52-.79-.41-.66.94-1.94,1.52-2.33.83-.55,1.27-.67,2.31-.55.09.03.17.21.24.24Z"/>
        <path class="cls-24" d="M29.28,39.65c1.48.01,2.29,2.16,3.11,2.87l-4.07,1.2c-1.17-.25-1.23-2.94-.24-3.59.37-.18.96-.34,1.2-.48Z"/>
        <path class="cls-14" d="M33.34,117.98c.15.13.36.32.31.46-.59,1.64-1.72,3.84-2.94,5.05-.65.61-1.1,1.42-2.03,1.68l-.12-.24c1.35-2.39,2.12-5.22,3.83-7.43.08.05.36-.03.55.06.28.13.38.41.41.42Z"/>
        <path class="cls-2" d="M1.76,43.24l.52.19.62,3.72-.42.41c-.62.06-1.39.44-2.15.24,0-1.59-.01-3.2,0-4.79.46-.2,1.18.24,1.44.24Z"/>
        <path class="cls-3" d="M9.66,125.41c.02.29-1.61,5.06-1.79,5.27-.32.39-.9.21-1.32.23l2.15-6.23c.3.17.9-.25.96.72Z"/>
        <path class="cls-7" d="M28.8,127.09c-.3.52-1.3,3.69-1.47,3.8-.26.16-1.03-.03-1.4.03l.96-2.63c.61-.46,1.11-1.08,1.8-1.43l.12.23Z"/>
        <path class="cls-21" d="M12.77,117.27l-1.2,3.35c-.16-.33-.8-.15-.72-1.44-.81-.38.21-2.69.96-2.64.09.08.64.44.96.72Z"/>
        <path class="cls-16" d="M71.15,81.81l.48.48c-.63-.03-1.28.03-1.91,0,.01-.51.97-.39,1.43-.48Z"/>
        <path class="cls-6" d="M3.2,114.63c0-.45.16-1.18-.24-1.44.12-.22.04-.6.48-.72-.09.68.26,1.67-.24,2.16Z"/>
        <path class="cls-20" d="M57.03,114.63l-.48.24c-.37-.08-1.03-.14-.96-.48.55-.25,1.19.22,1.43.24Z"/>
        <path class="cls-15" d="M45.31,119.9l-.24-.96c.12-.19.2-.48.48-.48.25.51-.22,1.21-.24,1.44Z"/>
        <path class="cls-29" d="M68.04,59.53v.24c-.24-.14-.86-.35-1.2-.48.52-.19.85.14,1.2.24Z"/>
        <path class="cls-4" d="M2,107.92c.2-.02.74-.45,1.2-.24,0,.27-.28.37-.48.48l-.72-.24Z"/>
        <path class="cls-10" d="M52.01,77.74c.84-.52,2.73,1.29,2.63,2.16-.6,1.36-1.75,2.11-3.25,2.13-.74,0-1.6-.59-2.25-.21-.63.2-1.36.11-2.18-.26-1.06-.08-2.01-.31-2.84-.69-.9.02-1.77-.06-2.63-.24-.22.46-.5.46-.72,0-.94.18-1.9.26-2.87.24-.87.45-2.57.67-3.67.67l-.4-.43c-.78.34-.96-.64-.72-1.2-.07-.09-.13-.19-.15-.29-.21-.82,9.98-3.92,10.93-3.51.21.09.36.24.46.45l.33-.49c1.51-.33,6.14.49,7.33,1.69Z"/>
        <path class="cls-10" d="M26.17,57.14c.47-.16.66.33.48.72.21.2.45.44.72.72.99.85,1.59,2.59,1.2,3.83-.04.4.04.8.24,1.2.19.44.27.84.24,1.2.2.25.28.65.24,1.2.42,3.71.58,7.5.47,11.36l-.47.62-.24.96c-.22.06-.63-.26-.72-.24-.68-3.28-1.31-6.61-2.27-9.82-.86-2.88-3.95-8.81-2.75-11.5.35-.79,1.83-.18,2.87-.24Z"/>
        <path class="cls-10" d="M27.6,49.23c.18.05.36.11.52.2,1.21.67,2.9,5.44,3.36,7,1.75,5.99,1.76,12.98.42,18.91-.21.41-.23.58-.72.96l-.43-.44-.25-2.89c-.5-2.46-.83-4.94-.99-7.44-.38-.21-.37-.55-.24-.96-.32-.22-.48-.62-.48-1.2-.24-.23-.32-.64-.24-.96-.37-1.28-.83-2.53-1.2-3.83-.34-.11-.63-.65-.48-.96-.35-.18-.38-.37,0-.48.05-.75,1.26-.93,1.57-1.9,1.09-3.52-2.55-3.91-4.92-4.8-.63-.34-.99-1.3-.24-1.68,1.04.18,3.33.47,4.31.48Z"/>
        <path class="cls-10" d="M41.48,80.61c.64.1,1.12.26,1.44.48,1.64-.14,3.86.24,5.1,1.41.52.49,1.3,1.25.4,1.7.01,1.41-1.96,2.12-3.11,1.92-.74-.13-1.7-1.03-2.77-1.18-1.33-.18-2.86,0-4.17.22-.81-.17-1.61-.17-2.39,0l-.25.32c-2.52.25-5.01.65-7.49,1.21l-.63-.33c-.59-.15.39-.51.5-.57,1.18-.65,2.99-1.54,3.8-2.54,1.82-1.71,4.72-2.24,7.18-2.16l.06-.27c.56.03,1.1-.04,1.62-.21.24,0,.48,0,.72,0Z"/>
        <path class="cls-10" d="M26.17,79.42c-.18.74-1.21.57-1.44.72l-.47-.37c-1.24-3.44-2.68-6.78-4.34-10.03l-.22-1.82c-.66-1.95-.63-4.27-.48-6.23,3.48,3.34,5.48,8.19,6.39,12.89.2,1.01.75,4,.55,4.84Z"/>
        <path class="cls-10" d="M17.79,68.63c-.17.53-.09.61.24.24.6.62.08,1.62.04,2.31-.1,1.68,0,3.42-.04,5.12-.08.1-.52-.43-.72-.48-.61-.24-1.45-.78-.96-1.44-.65-1.1-2.47-3.96-2.63-5.03-.1-.69-.24-2.28.61-2.41,1.09-.16,1.59.97,2.27,1.32.38.2.93,0,1.19.37Z"/>
        <path class="cls-10" d="M22.34,81.09c-.02,1.79-.67,1.57-1.67,2.64-1.12-.23-1.48-2.7-1.44-3.83.17-2.3-.3-4.71.48-6.95.91,2.6,2.66,5.19,2.63,8.15Z"/>
        <path class="cls-18" d="M11.81,49.47c.47,0,.47.41,0,1.2-.06.09-.06.38-.23.6-1.93,2.46-4.35,4.34-6.71,6.35-.63-.17-.23-3.65-.07-3.87l.55-.2c.05-.14.3-.64.41-.73l6.05-3.35Z"/>
        <path class="cls-18" d="M59.9,95.71c.08,1.07.52,2.39.48,3.35-.06,1.17-2.63,2.92-3.59,3.83-.68.34-1.88-1.32-1.44-1.92,1.23-1.52,2.5-3.02,3.68-4.58.25-.33.32-.72.87-.69Z"/>
        <path class="cls-10" d="M6.07,80.61c.27.11,1.14-.14,1.52.27l2.78,2.36c-.42,1.01-1.09,3.01-1.44,4.07-.99.24-2.04-1.66-2.15-2.64.13-1.39.04-2.86-.72-4.07Z"/>
        <path class="cls-10" d="M17.55,81.81v.24c-.05,1.3-.3,5.27-.86,6.21-.22.37-.42.6-.82.26-.68-.08-1.57-1.8-.96-2.4-.08-.38-.19-.44-.02-.85.19-.47,1.4-2.23,1.78-2.78.24-.34.35-.71.87-.69Z"/>
        <path class="cls-10" d="M7.98,90.2c.36.79-.5,3.65-.96,4.55-.73.12-1.46-.94-1.2-1.68-.68-1.55.29-3.18.48-4.55.77-.38,2.19.94,1.67,1.68Z"/>
        <path class="cls-10" d="M12.53,74.86c.26-.02.21.02.72,0,.81.15,2.04.77,1.67,1.68-1.2.83-2.39,2.55-3.11,3.83-.16-.75-.07-2.08-.23-2.72-.03-.12-.54-.31-.73-.39.17-1.32.73-2.12,1.67-2.4Z"/>
        <path class="cls-12" d="M46.02,91.39c0,.11.26.43.23.81-.1,1.26-1.34,1.24-2.15,1.82-1.95-.16-3.23-.7-5.02-.96.25-.41.65-.44,1.07-.48,2.05-.23,3.98-.17,5.87-1.19Z"/>
        <path class="cls-10" d="M14.68,90.67c-.62.89-1.29,1.75-1.91,2.64-.73.42-1.42-1.19-1.2-1.92.66-1.38,1.18-2.11,1.91-3.35.82-.1,1.64,1.96,1.2,2.64Z"/>
        <path class="cls-21" d="M26.64,86.84c-.45.94-1.1,2.83-1.67,3.59s-1.53.82-2.15,1.2c-.1-.66-.26-1.23-.24-1.92.04-1.14.28-.55.48-.72.37.45.85.13,1.44-.96.98-.64,1.07-.81,2.15-1.2Z"/>
        <path class="cls-33" d="M13.96,107.92s.41-.38.72-.24v.96c1.01-1.07.93-.4,1.68-.24l-1.44,3.59c-.57-.32-.68-.54-.96-.72-.27-.34-.3-.83-.08-1.45-.36-.93-.34-1.57.08-1.9Z"/>
        <path class="cls-8" d="M11.33,95.23c-.47.67-.94,1.56-1.44,2.28-.21.3-.18.71-.71.59-.11-.07-.11-.15,0-.24.29-1.92.81-2.49,1.44-4.07l.72,1.44Z"/>
        <path class="cls-21" d="M19.47,91.63c0,.32,0,.64,0,.96,0,1.69-.24,1.2-1.44,1.92-.64.03-.8-.45-.48-1.44.52-.65,1.42-1.03,1.91-1.44Z"/>
        <path class="cls-26" d="M17.31,60.97c.08.05.44-.06.48,0,.09.12.11,2.44.17,3.07.04.38.28,1-.17,1.25-.29-.93-.88-1.93-1.2-2.87.26-.47.25-1.08.72-1.44Z"/>
        <path class="cls-32" d="M18.75,103.13c.16.15.24.31.24.48-.7.37-.62.78-.96,1.2-1.03,1.26-1.07.1-1.2,0l.24-1.44c.57-.1,1.18-.18,1.67-.24Z"/>
        <path class="cls-9" d="M21.62,96.9l-.95,1.8.23.12c-.3.03-.9.48-1.44.24-.31-.31.55-1.69.89-1.92.51-.35,1.21-.21,1.27-.23Z"/>
        <path class="cls-25" d="M37.41,111.28l-.48,1.44c-.26-.53-.79-1.67-.48-2.16.05-.08.18-.15.24-.24.26.27.74.36.72.96Z"/>
        <path class="cls-23" d="M22.1,102.89c-.82.12-2.43.36-3.11.72-.27-.24-.77-.3-.24-.48,1.05-.14,2.33-1,3.35-.24Z"/>
        <path class="cls-13" d="M9.42,46.12c-.87.37-1.23.49-2.15.72.42-.81,1.36-1.24,2.15-.72Z"/>
        <path class="cls-28" d="M14.44,96.9c-.21-.07-.21-.15,0-.24-.09-.65.57-1.44,1.2-1.56-.08.95-.61,1.26-1.2,1.79Z"/>
        <path class="cls-19" d="M17.79,68.63h.24c0,.08,0,.16,0,.24,0,.3.19,1.21-.24,1.2l-.96-1.43h.96Z"/>
        <path class="cls-34" d="M17.07,99.54v.24c-.08.02-1.42.39-1.2-.12l.84-.83.36.72Z"/>
        <path class="cls-5" d="M38.37,85.16c-.17.03-.46.18-.72.24-.33-.42-1.15-.23-1.67-.24.48-.4,1.86-.41,2.39,0Z"/>
        <path class="cls-17" d="M12.29,104.57c.12,0,.26-.45.37-.49.76-.25,1.03.57-.37.73-.21-.07-.21-.15,0-.24Z"/>
        <path class="cls-1" d="M47.7,109.12c-.03.31.03.64,0,.96-.13.27-.41-.54-.48-.72l.48-.24Z"/>
        <path class="cls-31" d="M17.55,82.05c0-.08,0-.16,0-.24,0-.15-.5-.5.24-.72l-.24.96Z"/>
        <path class="cls-18" d="M49.37,74.14l2.63,3.59c-1.65-.66-5.55-1.31-7.66-1.2-.04-.8.11-1.81.72-2.4.9-.86,3.11-.15,4.31,0Z"/>
        <path class="cls-30" d="M54.4,64.8c.76.17,1.33.26,2.15.48.9.3,1.68,1.32.96,2.16l-.24.84c-1.32-.62-3.13-1.33-4.55-1.56.12-.85.84-1.76,1.67-1.92Z"/>
        <path class="cls-27" d="M29.28,64.56c.01.23,0,.32-.24.24-.05-.27-.45-.72-.24-1.2v-.24c.09.3.35.7.48,1.2Z"/>
        <path class="cls-22" d="M28.8,63.36v.24c-.22-.23-.58-1.05-.24-1.2.11.36.16.67.24.96Z"/>
      </g>
    </g>
  </g>
</svg>