<?xml version="1.0" encoding="UTF-8"?>
<svg id="Layer_2" data-name="Layer 2" xmlns="http://www.w3.org/2000/svg" viewBox="0 0 879.84 480">
  <defs>
    <style>
      .cls-1 {
        fill: #ced4b1;
      }
    </style>
  </defs>
  <g id="Background">
    <g id="BL_L3_2">
      <path class="cls-1" d="M80.3,258.96c2.01-2.37,3.27-4.05,3.27-4.05h0s-6.74-2.79-6.74-2.79l10.14-.1,5.74-9.29-4.89-2.84,7.32.37,7.07-13.92-5.15-.28s3.69-2.06,10.44-6.93c-15.07.46-25.59,9-25.59,9v3.97s-3.36-2.24-3.36-2.24l-13.84,12.83,5.59,3.35-7.93-.97-3.33,7.24-2.68-13.73-4.79-.21,2.78-3.79s-4.11-15.52-18.2-26.49c3.06,9.38,5.15,13.92,5.15,13.92l-5.12-3.33-2.94,18.25,7.26,4.76-6.66-.7-.99,12.89,9.63,7.18-8.4-2.04s0,.13,0,.35c-2.43-2.98-5.03-5.61-7.68-7.93v18.05l2.18.71-2.18-.21v10.2l9.59,1.64-9.59.68v16.78c4.63,9.23,11.82,20.25,22.01,27.13,0,0,4.9-8.89,2.77-25.49,17.44-4.9,31.56-15.95,31.56-15.95l-12.4-10.47,16.98,8.45,8.96-5.73-13.11-7.73,17.67,5.81,7.66-4.81-8.13-7.2,15.92,5.16,9.95-9.48s-22.61-8.2-45.94.01ZM52.39,275.65c-.84-.94-1.28-1.44-1.28-1.44l1.79,1.01c-.17.14-.34.29-.51.43ZM56.78,261.94l-3.83-2.14,3.86.35c-.03.59-.04,1.19-.03,1.78ZM60.09,257.7l-.28-1.44,4.58.53s-1.46.33-4.3.91Z"/>
    </g>
  </g>
</svg>