<?xml version="1.0" encoding="UTF-8"?>
<svg id="Layer_2" data-name="Layer 2" xmlns="http://www.w3.org/2000/svg" viewBox="0 0 42.48 75.22">
  <defs>
    <style>
      .cls-1 {
        fill: #a3ad92;
      }

      .cls-2 {
        fill: #71864b;
      }

      .cls-3 {
        fill: #c4cdb4;
      }

      .cls-4 {
        fill: #6b8145;
      }

      .cls-5 {
        fill: #a1ab90;
      }

      .cls-6 {
        fill: #bcc2b2;
      }

      .cls-7 {
        fill: #596b3a;
      }

      .cls-8 {
        fill: #4b5c30;
      }

      .cls-9 {
        fill: #5a6c3b;
      }

      .cls-10 {
        fill: #b2b9a6;
      }

      .cls-11 {
        fill: #69794d;
      }

      .cls-12 {
        fill: #4d5e32;
      }

      .cls-13 {
        fill: #4a5b2e;
      }

      .cls-14 {
        fill: #6b8143;
      }

      .cls-15 {
        fill: #4b5c2f;
      }

      .cls-16 {
        fill: #a0aa8e;
      }

      .cls-17 {
        fill: #607143;
      }

      .cls-18 {
        fill: #596b3b;
      }

      .cls-19 {
        fill: #e5e8e1;
      }

      .cls-20 {
        fill: #6b8144;
      }

      .cls-21 {
        fill: #d9ddd2;
      }
    </style>
  </defs>
  <g id="Background">
    <g id="TR_L1_2_Image" data-name="TR_L1_2 Image">
      <g>
        <path class="cls-13" d="M30.31,37.58c.69-.27.99.17.48.72.58.25.73.87.46,1.84.56.11.8.37.74.79.47.07.87,0,1.19-.24.04-.94,2.7-1.35,1.91,0l.42.35c-.34,1.4-.16,1.92.54,1.56.82.32,1.6.29,2.34-.08l.52.32c.43.51.14,1.15-.87,1.92.61-.57,1.21-.89,1.82-.96.53-.23,1.67-.08,2.15.24.3.45.2,1.6,0,2.15.61,1.04-1.18,1.52-2.1,1.6l2.34,1.11.24.64v.72l-.55.32c-1.43-.9-2.97-1.53-4.56-2.08l-.14.32c.97.62-.77,1.59-1.43,1.2l-.33.04c.4,1.46.27,2.64-.39,3.55-.61.58-2.53.35-3.1-.24.65-1.64,1.09-2.85.95-4.67-.02-.26.13-.8-.35-.59-.38.16-3.34,4.77-3.8,5.52-.89,1.44-2.9,5.78-4.06,6.45-.99.57-1.62.17-1.76-.91-.37-2.84,5.85-8.92,7.83-10.95-.79-.16-2.1.75-2.84,1.22-1.89,1.18-3.92,2.96-5.39,4.65-1.11,1.27-4.38,6.75-6.68,4.55-1.44-1.38.97-3.43,1.91-4.32,2.7-2.57,6.2-4.85,9.43-6.7.02-.16-.07-.24-.24-.24-5.66,1.29-9.71,4.04-14.5,7.13-2.03.41-2.6-1.58-1.74-3.19,1.86-3.48,12.69-5.24,16.47-5.62.18-.21-.06-.37-.72-.48-1.55-.03-3.37-.11-4.89,0-1.84.13-6.2,1.49-7.61.69-2.4-1.37,1.64-3.39,3.07-3.57,1.34-.17,3.83.08,5.24.26,2.18.28,4.69,1.06,6.82,1.66.08-.41-.21-.6-.47-.84-2-1.88-9.12-2.76-10.05-4.29-1.54-2.52,2.56-1.76,3.9-1.28.36.13,2.72,1.24,2.8,1.38.35-.11.53.05.54.48.52-.09.82.07.9.48.18-.19.38-.32.61-.19,3.64,2.99,3.77,2.91.41-.23l.18-.54c-.28-.99,2.38-3.74,2.39-1.68Z"/>
        <path class="cls-14" d="M42.24,59.6c.07-.21.15-.21.24,0v1.2c-.1.77-.66,1.09-1.19.48-5.16,2.22-9.04,6.48-12.8,10.5-2.58,1.07-3.4-1.29-2.42-3.38,1.3-2.76,10.75-7.34,13.79-8.31.22-.42.96-.33,1.43-.24-.05-.39.64-.47.95-.24Z"/>
        <path class="cls-14" d="M42.48,63.19c-1.41,1.4-2.93,3.08-3.92,4.81-1.12,1.97-2.73,8.1-5.94,7.12-2.08-.64.17-3.83.83-4.82,2.01-2.98,4.58-5.67,7.23-8.07.31-.28.59-.48.6-.95.37-.16.84-.2,1.19-.48v2.39Z"/>
        <path class="cls-7" d="M42.48,33.51v.24c-.71,1.06-2.56,1.53-3.82,1.68-.29.22-.13.3.48.24.82-.77,2.46-1.02,3.34-.24v1.2c-.39.87-2.02,1.48-2.86,1.2.15.72-1.66,1.47-2.15.96-.44.87-1.53,1.5-2.39,1.91.33-.93-1.46.02-1.91,0-.35.1-.75.18-1.19.24-.28-.23-1.02-.16-1.17-.63-.17-.5.26-1.15-.02-2,.38-.52.78-.92,1.19-1.2.24-.7,1.37-1.47,2.15-1.68l.03-.54c2.27-1.01,6.05-2.27,8.32-1.37Z"/>
        <path class="cls-14" d="M33.65,57.93c.79.22.21.13.22.1.02-.08.25-.3.33-.31,2.52-.32,5.97-.38,8.28.45v1.44h-.24c-.46-.08-.94-.08-1.43,0-.44.29-1,.37-1.67.24-3.49.69-5.36,1.69-8.53,2.82-.98.35-3.93,1.27-3.86-.54.03-.69,1-1.61,1.41-2.27l.91-.92c1.37-.56,3.2-1.08,4.58-1Z"/>
        <path class="cls-14" d="M31.98,53.38c1.12-.12,2.05.05,3.1.24.27-.4.82-.48,1.67-.24,1.01.39,1.97.87,2.86,1.44.81-.2,2.63.53,2.86,1.44v1.44l-.43.16c-2.32-.47-4.66-.82-7.02-1.05l-.66-.55c-.52.76-3.56.62-3.58-.48-.23-.14-.8-1.18-.7-1.52.15-.51,1.4-.82,1.89-.87Z"/>
        <path class="cls-14" d="M42.48,51.7v3.35c-.51.74-2.25-.69-2.63-1.2-1.08.41-2.88-1.11-3.34-2.15-.72.17-1.22-1.15-.72-1.68.41-.59,1.57-.54,1.43-1.2.12-.13.28-.26.44-.21,1.6.47,4.3,1.41,4.82,3.08Z"/>
        <path class="cls-20" d="M42.48,9.1v4.07c-1.85-.76-6.03-5.02-3.94-6.95,1.68-1.55,3.2,1.74,3.94,2.88Z"/>
        <path class="cls-14" d="M42.48,72.53c-.5,2.17-3.01,3.89-3.12.6-.09-2.49,1.97-5.64,3.12-7.78v7.18Z"/>
        <path class="cls-7" d="M40.33,38.54c1.18-.58,1.9-.58,2.15,0v2.15c-.22.92-.62,1.16-1.19.72-.75.76-1.54,1.23-2.39,1.44-1.08.35-2.13,1.05-2.86-.24-.53-.51.26-1.8.95-1.68l.55-.97c.94-.5,1.87-.98,2.79-1.43Z"/>
        <path class="cls-9" d="M41.76,22.02l.32.29c-.02,2.15.12,4.28.4,6.41v3.11c-1.47-2.32-2.65-5.38-2.86-8.14l-.19-2.37c.07-.11,2.37.19,2.34.7Z"/>
        <path class="cls-14" d="M42.48,14.36v2.63c-.41.44-.56.48-.95,0-.24.65-.77.43-.72-.24-1.26-.31-3.13-.71-3.34-2.29-.43-3.21,3.71-.5,5.01-.1Z"/>
        <path class="cls-14" d="M42.48,18.67v3.11c-.08.61-.3.77-.72.24-.82.09-1.51.08-2.15-.48.03.71-.06,1.45,0,2.15-.32-1.21-.48-2.86-.35-4.06.18-.25.47-.43.59-.72.37-.52,1.08-.68,2.15-.48.24-.59.34-.27.48.24Z"/>
        <path class="cls-17" d="M32.93,26.33c.8.86,1.9,1.14,2.75,1.91.25-.06.08-.5.12-.72-.21-.36-.11-.49.24-.24l.54.11c.64.91,1.33,1.75,2.08,2.52.21,0,.45.09.72.24-.29-.44-.27-.45.24-.48.47,1.32,1.57,2.16,2.86,2.63v.96c-1.35-.54-2.11-1.84-3.58-1.91-.9-.43-1.7-.99-2.39-1.68-.21-.07-.21-.15,0-.24-1.11-1.06-2.93-1.67-4.06-2.63-.49.2-.61-.12-.24-.48h.24c-.08-.33.08-.33.48,0Z"/>
        <path class="cls-9" d="M42.48,40.69v2.87c-.09.52-.25.68-.48.48-.74.43-1.53.33-2.15-.24-.61-1.06.55-1.88,1.43-2.39.18-.17.72-.22.88-.71h.32Z"/>
        <path class="cls-2" d="M42.48,4.79c-.87-1.18-1.18-3.75,0-4.79v4.79Z"/>
        <path class="cls-4" d="M42.48,46.44c-.11-.09-.43-.16-.48-.24-.34-.55-.24-1.56,0-2.15.06-.15.36-.33.48-.48v2.87Z"/>
        <path class="cls-7" d="M34.6,15.8c.06.22.02.57-.1.75-.01.02.09-.49.33-.27,1.4-.93,2.45,1.32,2.7,2.44.78,3.43.85,7.51,2.07,10.97.04.29-.09.33-.24.48-.25.04-.5-.22-.48-.48-2.03-1.05-3.07-4.28-3.34-6.46-.27-.13-.35-.45-.24-.72-.19-.17-.27-.17-.24,0,.25.2.39.66.24.96.49,1,.83,2.09,1.05,3.25l-.33.58c-.04.09-.23.19-.24.24-2.52-3.63-3.96-7.86-3.58-12.32.05-.62.36-3.13,1.28-2.98,1.11.19,1.17,2.71,1.11,3.57Z"/>
        <path class="cls-9" d="M17.18,18.67c.07-.21.15-.21.24,0,.2.44,2.81,1.68,2.98,1.67.08,0,.34-.32.36-.47,1.43,1.18,2.37,1.55,4.12,2.24.96.38.58.25,1.43.69,1.13.59,4.49,2.45,5.43,2.58.06-.21.14-.2.24,0,.27.24.44.65.48.96-.08,0-.16,0-.24,0-.05.21-.13.2-.24,0-.77.46-3.34-.46-3.34-1.44-.06-.03-.24-.39-.54-.53-1.13-.54-3.15-1.68-4.24-1.39-.21-.07-.21-.15,0-.24,0-.13.06-.35-.03-.44-.13-.13-3.13-1.2-3.47-1.22-.42-.02-.53.15-.8.22-.33.04-.41-.04-.24-.24l.35-.48c-1.48-.39-2.33-1.11-3.93-.72-1.15.25-1.78.09-1.91-.48l1.43-.24c-1.88-.55-3.91-1.02-5.88-1.17-1.8-.13-8.47.5-9.28-.98-.47-.86.68-.93,1.51-1.14,5.85-1.47,9.88,2.1,15.04,3.01.23.04.39,0,.52-.2Z"/>
        <path class="cls-18" d="M17.42,18.67h-.24c-3.03-2.03-8.57-8.77-7.88-12.57.17-.93,1.13-.46,1.75-.08,1.79,1.09,2.12,4.16,2.9,5.95.97,2.22,2.69,4.36,3.46,6.7Z"/>
        <path class="cls-7" d="M29.11,23.7c-.24.26-.67-.35-.81-.5-2.08-2.3-6.22-9.89-5.28-12.91.11-.35.42-.74.76-.91.41-.08,1.14.6,1.41.92,1.31,1.53,1.61,6.21,2.27,8.49.2.69,1.86,4.7,1.65,4.92Z"/>
        <path class="cls-7" d="M13.84,19.39l1.91.48c-1.26.31-3.88,1.34-5.18,1.87-2.33.95-5.77,3.61-8.26,2.87-1.32-.39-.29-1.67.33-2.21,2.27-1.96,8.25-3.1,11.2-3.01Z"/>
        <path class="cls-18" d="M28.64,24.89c.06.17.12.38,0,.52-.47.62-5.7,2.32-6.69,2.59.01.25-.23.48-.48.48-.4.18-.72.42-.95.72-.1.83-1.82,1.91-2.63,1.91-1.09.39-1.67,1.37-2.91,1.52-2.27.28-.27-2.2.43-2.93,3.18-3.37,8.76-4.67,13.22-4.81Z"/>
        <path class="cls-7" d="M31.74,26.81c.21.07.21.15,0,.24-2.89.61-6.82,2.38-9.38,3.88-1.72,1.01-2.92,2.82-5.15,2.32-.4-.69.23-1.57.69-2.13.74-.9,1.65-1.37,2.63-1.91.1-.4.61-.55.95-.48.15-.29.4-.62.72-.48,1.19-.83,2.82-1.31,4.28-1.59,1.56-.3,4-.67,5.27.15Z"/>
        <path class="cls-18" d="M20.76,19.87c-3.51-2.9-6.41-8.57-5.98-13.3.09-.98.37-2.11,1.46-1.2.97.8,1.33,5.42,1.77,7.08.68,2.57,1.86,4.93,2.74,7.42Z"/>
        <path class="cls-7" d="M36.51,29.44v.24l-.34.53c-3.18.91-6.37,2.1-9.06,4.08l-1.1.18c.28.67-.73,1.28-1.19.72-.83.48-3.44,2.01-3.11-.11.07-.47,1.26-1.57,1.67-1.93,3.37-2.96,8.79-3.76,13.13-3.71Z"/>
        <path class="cls-18" d="M25.29,21.78c-3.4-2.86-7.19-9.66-6.15-14.19.34-1.5,1.34-.9,1.87.18.59,1.21.91,4.62,1.36,6.3.72,2.68,1.9,5.15,2.92,7.72Z"/>
        <path class="cls-7" d="M23.86,22.74v.24c-2.29.63-6.33,2.84-8.33,4.21-1.2.82-3.58,3.35-4.91,3.21-2.08-.22.6-2.83,1.18-3.36,3.12-2.85,7.9-4.25,12.06-4.3Z"/>
        <path class="cls-18" d="M31.74,25.37c-2.04-3.69-3.96-7.72-3.58-12.08.06-.67.55-3.3,1.31-3.41,2.03,1.23.97,4.35,1.08,6.52.1,2,.91,7.21,1.67,8.98-.07.21-.15.21-.24,0-.08,0-.16.01-.24,0Z"/>
        <path class="cls-7" d="M19.33,21.06c.09.04.17.16.24.24-2.36.65-6.78,3.01-8.81,4.45-.96.68-3.97,3.95-5.06,2.62-.67-.82,1.67-2.96,2.3-3.48,1.91-1.57,9.14-4.78,11.33-3.84Z"/>
        <path class="cls-7" d="M38.9,31.36c-.48.55-2.83,1.45-3.65,1.96s-1.44,1.18-2.08,1.63c.18.69-.69,1.17-1.19.72-.33.8-1.01,1.37-1.67,1.91-.12-.14-.27-.51-.36-.48-.75.58-1.37,1.55-2.03,2.15.39.62-.62,1.12-1.19.96-.26-.09-.85.14-1.21-.11-.31-.21-.15-.73-.22-.85.12-.41.49-1.38.72-1.68-.44-.68,1.41-2.73,2.15-2.39.77-1.07,2.7-1.96,4.04-2.54s5.18-2.2,6.52-1.6c.09.04.14.16.18.31Z"/>
        <path class="cls-13" d="M34.37,56.25c-.12.45-.43,1.37-.72,1.68-.61.66-2.73.77-3.77,1.13-.63.21-1.05.72-1.72.79.08-.14.09-.5.27-.8.7-1.11,1.67-2.14,2.36-3.27.85.53,2.63.37,3.58.48Z"/>
        <path class="cls-15" d="M28.16,35.19c-.13.1-1.99,2.19-2.15,2.39-.91-.5-1.33-1.36-1.19-2.39.45-.26.75-.43,1.19-.72.81-.49,2.43-.45,2.15.72Z"/>
        <path class="cls-6" d="M26.49,45.24c.63.01,1.27-.01,1.91,0v.48c-.39.03-.8-.04-1.19,0l-.72-.48Z"/>
        <path class="cls-11" d="M32.93,26.33h-.48c-.55-.22-.33-.5-.48-.96h.24c.02.06.62.86.72.96Z"/>
        <path class="cls-11" d="M32.46,26.81c-.13.34-.48.19-.72.24v-.24c-.58-.33-.4-.61.24-.48.07.02.16,0,.24,0-.02.24.07.34.24.48Z"/>
        <path class="cls-5" d="M34.84,16.28c-.12.08-.19.51-.47.48-.18-.38.23-.82.24-.96l.24.48Z"/>
        <path class="cls-10" d="M30.31,44.28c.56.64-.58.3-.95.24-.01-.52.79-.42.95-.24Z"/>
        <path class="cls-3" d="M42.24,59.6c-.36-.08-.68.19-.95.24l-.48-.24c.2-.03,1.04-.66,1.43,0Z"/>
        <path class="cls-15" d="M39.62,37.82c.76.08.59.52.72.72-.4,1.23-2.4,1.47-3.34,2.39.21-.52.33-1.56.48-2.15.9-.5,1.3-.6,2.15-.96Z"/>
        <path class="cls-12" d="M34.13,35.43s.03.31-.08.39c-.66.47-1.21,1.18-2.06,1.29.01-.37-.35-.94,0-1.44.51-.38.83-.46,1.19-.72l.95.48Z"/>
        <path class="cls-16" d="M39.14,35.66c-.22.03-.7.46-1.19.24-.08-.32.39-.3.71-.48l.48.24Z"/>
        <path class="cls-8" d="M39.85,53.86l-.24.96s-.28.19-.49.1c-1-.41-1.99-.43-2.37-1.54-.16-.46-.11-1.3-.24-1.68,1.02.64,2.31,1.61,3.34,2.15Z"/>
        <path class="cls-1" d="M39.38,30.16c-.36.37-.31.01-.72-.24l.24-.24c.11.13.42.21.48.48Z"/>
        <path class="cls-21" d="M35.56,23.22l-.24.24c-.06-.27-.17-.57-.24-.96h.24c.08.24.15.48.24.72Z"/>
        <path class="cls-19" d="M22.19,28.24c-.12.05-.43.34-.72.48v-.24c.09-.06.23-.44.48-.48l.24.24Z"/>
      </g>
    </g>
  </g>
</svg>