<?xml version="1.0" encoding="UTF-8"?>
<svg id="Layer_2" data-name="Layer 2" xmlns="http://www.w3.org/2000/svg" viewBox="0 0 68.1 59.23">
  <defs>
    <style>
      .cls-1 {
        fill: #60723f;
      }

      .cls-2 {
        fill: #ccd1c5;
      }

      .cls-3 {
        fill: #bbc1b0;
      }

      .cls-4 {
        fill: #8a9872;
      }

      .cls-5 {
        fill: #4b5b2f;
      }

      .cls-6 {
        fill: #5b6d3c;
      }

      .cls-7 {
        fill: #9fa890;
      }

      .cls-8 {
        fill: #6e7e53;
      }

      .cls-9 {
        fill: #5d6e3f;
      }

      .cls-10 {
        fill: #66764a;
      }

      .cls-11 {
        fill: #5a6b3b;
      }

      .cls-12 {
        fill: #5b6c3c;
      }

      .cls-13 {
        fill: #596b3a;
      }

      .cls-14 {
        fill: #6b7b50;
      }

      .cls-15 {
        fill: #4b5c30;
      }

      .cls-16 {
        fill: #869274;
      }

      .cls-17 {
        fill: #6a7a4e;
      }

      .cls-18 {
        fill: #647547;
      }

      .cls-19 {
        fill: #536437;
      }

      .cls-20 {
        fill: #6c8144;
      }

      .cls-21 {
        fill: #607142;
      }

      .cls-22 {
        fill: #a5b28d;
      }

      .cls-23 {
        fill: #f5f6f4;
      }

      .cls-24 {
        fill: #5a6c3b;
      }

      .cls-25 {
        fill: #798861;
      }

      .cls-26 {
        fill: #677749;
      }

      .cls-27 {
        fill: #4c5d31;
      }

      .cls-28 {
        fill: #869174;
      }

      .cls-29 {
        fill: #adb59d;
      }

      .cls-30 {
        fill: #62763f;
      }

      .cls-31 {
        fill: #4a5b2e;
      }

      .cls-32 {
        fill: #6b8143;
      }

      .cls-33 {
        fill: #4b5c2f;
      }

      .cls-34 {
        fill: #647548;
      }

      .cls-35 {
        fill: #627344;
      }

      .cls-36 {
        fill: #596b3b;
      }

      .cls-37 {
        fill: #7d8b65;
      }

      .cls-38 {
        fill: #5c6e3e;
      }

      .cls-39 {
        fill: #5a6c3a;
      }

      .cls-40 {
        fill: #6b8144;
      }

      .cls-41 {
        fill: #d3d9c8;
      }

      .cls-42 {
        fill: #5b6d3b;
      }

      .cls-43 {
        fill: #7e8b65;
      }

      .cls-44 {
        fill: #5d6f3f;
      }

      .cls-45 {
        fill: #e3e7de;
      }
    </style>
  </defs>
  <g id="Background">
    <g id="TR_L1_1_Image" data-name="TR_L1_1 Image">
      <g>
        <path class="cls-32" d="M56.38,0c.12,0,.23.03.31.09.27.22.04,2.37-.15,2.77,1.82,1.2,3.7,2.41,5.82,2.99l.47.61c.34.22.58.46.72.72-.02-.37.88-.23.89-.18s-.93.11-.89-.29c-.23.26-.53.11-.48-.24-.2-.17-.33-.39-.37-.66-2.19-1.39-4.08-3.08-5.69-5.05l.08-.74h3.59c.97.56,1.91,1.26,2.8,2.1l.07.53c.32.57.04.37.13.26s2.09,1.46,1.55,1.9c.85-.28,1.06.2,1.2.96.23-.07.31.01.24.24.41-.36.7-.31.48.24.47.15.79.55.96,1.2v4.3c-.07.21-.15.21-.24,0l-1.09,2.28c-.16.17-.35.2-.58.11-.18.8-.78,1.93-1.67,1.67.01.76-.65,1.27-1.2,1.67-.44.36-.81.77-1.12,1.24l-.55-.05c.05.77-1.28,1.71-1.91,1.2-.45.63-1.17,1.03-2.15,1.2-.58.07-1.43,0-1.43-.72-.51.41-.31-.3-.32-.26-.2,1.1-.57,2.81-1.84,2.89.2.21.27.55,0,.72.49.49-.35,1.76-.96,1.67l-.24,1.2c.21.07.21.15,0,.24-.15.38-.53.15-.47.12.81-.35.18,1.85-.73,1.55-.04.38-.2.62-.48.72l.19.81c-1.36,2.94.24,1.43,1.01-.09.25-.58,1.76-.68,1.91,0,1.33-.6,2.29-.6,2.87,0,.64-.14,1.29.61,1.43,1.2.36.64-1.04,2.03-1.67,1.67-.66.37-1.45.61-2.38.72-.98.54-1.86.77-2.64.72-.12.09-.13.17,0,.24,1.01-.33,3.1-.78,4.07-.24.65-.07,1.13.09,1.43.48.06-.2.19-.32.39-.35l1.53.83c.72.17,1.12.49,1.2.96l.61-.12c.3.54.66.57,1.06.12.11,1.27.87,2.9.95,3.73.05.51-.26,1-.24,1.29-.22,1.44-2.83.3-2.87-.96-.62.43-1.97-.17-1.91-.96-.52.55-2.45-.46-2.39-1.2l-.6.27c-.65-.3-3.73-1.39-4.18-1.16-.2.1,3.37,2.14,3.77,2.31l.3.73c.75-.38,2.65.58,2.63,1.43.6-.53,2.15.41,2.15,1.2.65-.78,3,1.51,3.22,2.24.36,1.2-.88,2.3-1.78,1.59-.82.04-2.98-1.13-3.76-1.62l-7.24-5.79c1.13,2.69,3.39,5.53,5.62,7.4,1.53,1.28,7.01,4.18,5.35,6.79-.9,1.42-2.57.17-3.43-.58-3.2-2.78-5.33-6.6-7.74-9.96-.21-.3-.25-.67-.76-.55.79,2.57,1.69,5.06,2.98,7.41.87,1.59,4.66,6.33,4.86,7.34.5,2.54-2.61,2.77-4.25,1.07-3.04-3.13-4.22-11.59-5.02-15.83-.38.04-.4,1.08-.42,1.38-.3,4.04,1.18,7,1.36,10.49s-2.55,2.77-3.61-.23.26-9.58,1-12.83c-.06-.32-.13-.66.24-.72.03-.45-.05-.61-.24-.48.12.41.04.65-.24.72-1.78,3.39-2.09,6.53-3.49,9.54-.91,1.97-2.85,2.52-2.74-.34.14-3.65,3.71-7.59,5.52-10.63-.07-.33-.31-.33-.72,0-.44.34-1.01.64-1.43,1.07-1.05,1.08-3.73,5.46-5.28,5.04-1.4-.37-1.22-1.87-.75-2.93.94-2.13,5.08-4.31,7.22-5.09.26-.23.26-.39,0-.48-2.16,0-5.43,2.14-6.92,1.06-.79-.57-.12-1.87.45-2.39,1.01-.92,1.86-.58,2.89-.82.1-.65.38-.78.96-.48,3.82.78,4.23.56,1.24-.65-.45.03-.7-.15-.76-.54-.7.2-1.98.17-2.15-.72-.04-.16-.36-.4-.42-.65-.26-1.06.26-1.2.42-1.98.27-.92,2.37-1.03,2.39,0,.54-.42,1.09-.26,1.67.48l.52-.05c.46.55,1,.96,1.64,1.25.72.6.72.52,0-.24-.29.07-1.55-1.29-1.65-1.55-.72-1.72.61-3.9,2.13-2.52.07-.21.15-.21.24,0,.41-.69,1.63.03,1.2.72.47-.28.86.02,1.18.9l.39,1.57c.28-1.54.88-2.76,1.78-3.66-.05-1.05.6-2.65,1.43-3.11.31-.45.6-1.21.88-2.26l.56-.13,1.54-3.73.61-.34c.25.36.93-1.67.54-.78l-.54.06-.42-.18c.32.25-.59.44-.78-.06-.38.44-.93.6-1.67.48-.3,0-.54-.07-.72-.24-.28.28-.76.28-1.43,0-.39.08-.36-.15-.24-.48-.39.49-.52.36-.48-.24-.38.17-.6.22-.48-.24-.75.11-1.1-.58-.72-1.2-.16-.54-.12-.69.48-.72-.25-.46,0-.62.72-.48-.45-.94.35-1.1,2.41-.5l.22-.21c.28-.62,1.37-.44,1.43.24.39-.22.79-.3,1.2-.24.38.08.78-.08,1.2-.48-.08-.23,0-.31.24-.24.66.45.9.4,1.72.09l.43.38c.1-.55.79-.58,1.2-.24.17-.29.17-.53,0-.72-.35.59-.6.59-.96,0-.33.7-1.71.91-2.15.24-.38.19-.92.35-1.2,0-.62.52-5.1.21-5.37-.15-.07-.09-.11-.21-.13-.33-.73.04-1.37-.12-1.91-.48-1.12.99-3.57-1.21-3.59-2.39-.92-.56-.82-1.89.24-2.15-.14-.53.33-1.56.96-1.2,1.24.39,2.28.78,3.11,1.2l.79-.04c2.81,1.56,5.89,2.49,9.23,2.8l.27.35c.44-.28.83-.34.96.24.52-.23,1.2-.31,1.67,0,.55.06.55-.02,0-.24-.38.15-1,.06-1.43,0-.31-.03-.55-.19-.72-.48l-1.22-.06c-3.12-1.4-6.11-2.94-8.96-4.63-.75.71-1.35.84-1.78.39-1.39.99-2.66-1.67-1.79-1.42.15.04.04.33-.12-.25.02-1.12.77-.23.3-.43-.05-.02-.06-.14-.06-.29-.05-.73.97-1.5,1.67-1.67h7.89Z"/>
        <path class="cls-31" d="M25.77,0c1.85.59,3.77,1.46,5.26,2.63.18,0,.26-.07.24-.24-1.03-.26-3.27-1.12-2.87-2.39h3.11c1.5.83,1.95,1,1.36.5l.32-.5h1.91c.69.24,1.19.82,1.5,1.76,0-.74.14-1.33.42-1.76h2.39c.41.06.46.45.13,1.19h.35c.46-.94,2.1.65,1.2,1.2l.18.28c1.01-.24,1.99-.34,2.93-.28.35-.57,1.98-1.32,2.63-.72l.48.12c-.22.15-.5.49-.72.6.16.86-2.44,1.34-3.22,1.41-.22.02-.72.06-.9.02-.08-.02-.13-.11-.19-.24-.33.14-.33.3,0,.48.88-.87,4.02.36,3.35,1.67-.3.69-.55,1.43-.24,2.15l-.49.25c-.5-.25-1.05-.33-1.66-.25-.44.11-.88-.18-1.33-.87.53.7.57,1.23.13,1.59l-.49.26c-.74-.4-1.53-.57-2.38-.5-.32.19-.56.07-.72-.34.06.43-.01.68-.47.82l.2,2.07c-.05.38-2.35-.15-2.12-.88-.32-.39-.64-.63-.96-.72.07.61-.28.98-1.03,1.11.1.83-.12,1.34-.64,1.52.61.59,0,1.42-.72.96-.98.55-3.16-2.08-1.67-2.39-.17-.14-.24-.32-.18-.52,2.77-1.98,2.62-2.11-.43-.36l-.58-.31-.28.53c-.62-.06-1.17.09-1.64.42-.79.77-3.98,1.49-5.11,1.42-1.57-.1-2.58-1.03-1.1-2.25,1.27-1.05,6.2-1.38,8.14-1.95,1.02-.3,2.35-.85,3.33-1.29.17-.12.09-.2-.24-.24-3.73.56-7.82.75-11.57.45-3.4.04-7.25-5.34-1.42-4.07,3.65.79,7.36,2.82,11.33,2.07-4.1-1.09-8.26-2.3-11.96-4.42h6.46Z"/>
        <path class="cls-31" d="M61.64,18.65l.5.23.69,2.16c.67-.19.92.18.48.72l.4.37c-.07.66.04.78.32.34-.12-.78.15-1.06.72-.48.38.15.49.51.31,1.09.48-.52,2.08-2.22,2.69-1.99.12.04.23.11.35.19v3.11c-.45.56-.45.96,0,1.2v2.63l-.45.4c-2.8-.56-2.76-.11.13,1.32l.32.67v2.39c-.45.3-1.04.06-1.77-.73.77.9,1.35,1.86,1.77,2.88v3.59l-.75-.17-2.04-2.59c.98,2.01,1.91,4.05,2.79,6.11v6.93c-1.56-1.44-2.4-3.89-3.11-5.85-1.08-2.98-1.86-6.08-2.39-9.21-.17-.38-.33-.14-.48.72.02.47-.04.96,0,1.43l-.12,1.68c-.32-.51-1.09-1.34-1.55-1.68-.82-1.05-.22-2.8.48-3.82-.03-.24-.11-.32-.24-.24-.1,1-.51,2.59-1.43,3.11-.7.6-1.53-.38-1.91-.48l-.34-.42,1.96-2.92-.43-.24c-.66-.07-1.09-.68-1.43-1.2-.1-.9,1.82-1.49,2.63-1.2-.15-.41.51-.11.48-.12l-1.2-.36-.27.44c-1.49.46-3,.87-4.52,1.23-.6.03-1.21.14-1.91,0-.65.58-1.42-.17-.72-.72-.27.03-.27-.21,0-.72.13-.27.35-.51.49-.82s.2-1.05.23-1.09c.08-.1.35.23.48.24.79-.88,2.92-1.01,4.15-.92,3.08.63,2.96.35-.38-.85l-.43-.62c-.64-.35-.72-2.83,0-3.11.3-.55,1.31-.39,1.43.24.59-.24.73-.1.48.48.8-.13,1.56.11,2.28.72-.74-.47-1.02-.95-.85-1.44-.84-.12-.43-1.17.24-1.43.19-.1,1.82-1.13,1.91-1.2Z"/>
        <path class="cls-32" d="M68.1,18.17c-.17,1.08-.34,1.7-1.01,2.55-.45.56-1.68,1.75-2.33,1.28-.25.17-.26,0-.72.48-.29-.15-.53-.39-.72-.72-.08-.15-.33-.47-.48-.72-.68-.71-.28-2.11.72-2.15-.01-1.13.39-1.69,1.2-1.67.06-.75.76-1.96,1.43-2.15l1.67-3.35h.24v6.45Z"/>
        <path class="cls-40" d="M46.81,0c.33.97-2.02,2.23-2.87,1.91-.38.55-2.31.94-2.87.48.02-.42-.78-1.22-1.2-1.2-.47-.45-.16-1.16.48-1.2h6.46Z"/>
        <path class="cls-20" d="M64.51,0h3.59v5.74c-.14.66-.37,1.05-.96.48-.13-.3-.41-.19-.48-.24l-.09-.29c.49-.51.68-1.05.57-1.62-.62.19-.65,0-.24-.48l-.35-.05c-1.38-.04-2.06-.34-2.04-.9-.18-.86,1.82-.23,1.74-.17-.17.13-.91-.22-.55-.55-.64-.42-1.72-1.14-1.2-1.91Z"/>
        <path class="cls-12" d="M61.64,0c1.48.34,2.99.79,4.07,1.91.13.18.7.34.72.71h-1.91c-.07.69-.83.68-.96,0-1.18-.31-2-1.74-2.87-2.63h.96Z"/>
        <path class="cls-13" d="M40.35,21.75c.51-.72.95-.4.48.48-.66,1.35-1.48,3.82-1.98,5.31-.6,1.79-1.23,7.8-4.08,7.13-.28-.07,0-.59-.39-.49.28,1.95-1.75,6.42-2.48,2.33-.45-2.55.69-6.26,1.87-8.56l3.24-5.01c.42-.24.5,0,.24.72.55.53-.08,1.97-.72,2.15-.1.67-.02.83.24.48.12-1.12,2.31-4.09,3.26-4.6.08-.04.2,0,.33.06Z"/>
        <path class="cls-13" d="M29.59,26.77c-.87,1.51-2.01,4.15-2.68,5.81-.73,1.81-1.43,6.22-3.31,6.97-2.68,1.06-1.12-3.35-.67-4.5.59-1.51,4.88-8.07,6.18-8.52.05-.22.13-.22.24,0,.37-.34.51-.2.24.24Z"/>
        <path class="cls-13" d="M22.66,27.49c0,.22-.15.45-.48.72-.03.36-.98.83-1.2.96.04-.24.04-.62-.24-.72-.19-.07-.42-.15-.72-.24.13-.62-.31-.49-.71-.59-3.28-.85-6.59-1.96-9.21-4.2-.68-.58-4.36-4.43-2.6-4.99,1.56-.5,3.03,2.18,3.9,2.98,1.58,1.46,7.4,5.93,9.28,6.28.72.13,1.28-.24,1.97-.2Z"/>
        <path class="cls-13" d="M27.92,25.82c.66-.19.71.01.24.48-.57.16-1.39.63-1.91.72-.11.41-.37.43-.48,0-.27.22-.98.34-1.2,0,.14-.67-.33-.45-.75-.55-4.16-.96-8.38-2.72-11.09-6.14-.99-1.25-2.48-3.92.41-2.8,1.17.46,2.8,2.74,3.91,3.74,1.26,1.14,6.91,5.25,8.36,5.27.65,0,1.86-.47,2.52-.72Z"/>
        <path class="cls-11" d="M25.77,27.97c-1.99,3.31-3.56,5.86-4.9,9.57-.25.68-1.04,5.41-2.73,4.28-1.22-.82.9-6.23,1.53-7.39,1.68-3.11,3.76-4.26,5.86-6.69.34-.32.46-.18.24.24Z"/>
        <path class="cls-36" d="M32.94,25.58c-1.25,2.62-2.37,6.83-2.84,9.71-.16.96.05,1.84-.19,2.91-.34,1.52-1.86,2.88-2.21.63-.75-4.68,1.89-10.18,5.01-13.49.34-.32.48-.18.24.24Z"/>
        <path class="cls-36" d="M20.98,29.16c-.11.79-2.28,3.88-2.8,4.97-.41.85-.87,1.97-1.21,2.86-.49,1.28-1.12,4.49-1.73,5.32-.16.22-.98.66-1.3.71-.96-.22-.33-3.84-.13-4.54.92-3.27,4.31-7.62,7.17-9.32Z"/>
        <path class="cls-5" d="M62.84,41.11c.14,1.75,1.38,3.78,1.09,5.51-.34,2.06-2.2,1.68-2.77,0,.07,0,1.13-.47,1.22-.58.96-1.06-1.92-2.82-2.66-3.25-.65-.48-.55-2.39.24-2.63.92.53,1.49,1.55,2.87.96Z"/>
        <path class="cls-24" d="M44.42,20.32l.15.93c-.88,2.47-1.31,5.06-1.71,7.65l-.6.74c-.98-.31-1.39-.24-2.39,0,.68-3.31,1.65-6.25,3.59-9.08.19-.54.43-.78.72-.72.22-.2.3-.04.24.48Z"/>
        <path class="cls-35" d="M46.09,17.69c.49-.22.65-.14.48.24.22.66-1.3,1.77-1.91,1.67-.27.19-.27.08-.24-.24-.35.44-.67.6-.96.48-1.57.71-1.81.71-2.63,2.39.18-.78-.3-.14-.48-.48-1.27.3-2.12.93-2.56,1.9h-.55c.09-.32-.16-.5-.24-.7-.33,0-.49-.17-.48-.48.45-.21.91-.69,1.44-.84-.49,0-1.02-.28-1.44-.36-.11-.32.21-.4.96-.24.73-.1,1.49-.35,2.27-.74l1.07-.21v-.52c1.12-.36,2.16-.82,3.11-1.39-.34-.26-.26-.33.24-.24.33-.39,1.55-.68,1.91-.24Z"/>
        <path class="cls-21" d="M36.53,22.47c.67-.13.39.25.48.48-.83.54-2.42.79-3.17,1.2-.31.17-.26.48-.42.72-.37.38-.61.38-.72,0-.84.06-2.11.55-2.63,1.2-.07.1-.15.1-.24,0-.29.14-.53.14-.72,0-.3.07-.66.15-.96.24l-.24-.48c.5-.19,1.12-.14.96-.72.18-.19.5-.19.96,0,.46-.78,1.27-1.22,2.44-1.33l-.05-.35c-.2-.21-.04-.29.48-.24,1.42.39,2.51-.09,3.83-.72Z"/>
        <path class="cls-38" d="M42.03,32.99c.87.23.37,1.5-.48,1.2-.26.26-.6.39-.96.48-.76-.71-.54-1.63-.72-2.39.52.33,1.22.23,1.68.35.25.07.39.34.47.36Z"/>
        <path class="cls-13" d="M25.77,27.01c.21.07.21.15,0,.24l-3.59.96c.03-.32-.76-.15.48-.72.82-.38,1.09-.34,1.91-.48.6-.1,1.13.01,1.2,0Z"/>
        <path class="cls-28" d="M62.6,33.94l-.48.72c-.03-.79.02-1.6,0-2.39.51.2.4,1.24.48,1.67Z"/>
        <path class="cls-17" d="M26.24,27.01c.05.48-.31.67-.48.96l-.24-.24c.1-.11.15-.34.24-.48v-.24c.29-.05.45,0,.48,0Z"/>
        <path class="cls-25" d="M33.42,24.86c-.13.21-.41.58-.48.72-.04-.1-.22-.18-.24-.24-.04-.13.02-.33,0-.48.24-.02.48.01.72,0Z"/>
        <path class="cls-37" d="M30.07,26.06s-.45.66-.48.72c-.05-.09-.15-.24-.24-.24-.28-.24.16-.58.48-.48h.24Z"/>
        <path class="cls-29" d="M29.83,26.06l-.48.48c-.08,0-.19-.02-.24,0v-.48c.24-.06.46-.39.72,0Z"/>
        <path class="cls-13" d="M20.03,28.21c.54-.07,1.08-.36,1.67-.24v.23c-.44-.11-.65.11-.96.24-1.49.63-2.28.43-3.35,1.67-.44.33-.58.19-.24-.24.02-.11.34-.41.24-.48-5.14.53-10.66,3.02-15.78,1.07-3.46-1.32-.59-1.95,1.46-1.89,3.91.13,6.79,1.15,10.97.58l1.47-.3s-.56.2-.51-.18c-3.58-.71-6.99-1.35-10.12-3.39-4-2.62-2.06-4.59,1.52-2.71,2.32,1.21,8.51,6.01,10.87,6.07.55.01,2.01-.34,2.76-.44Z"/>
        <path class="cls-13" d="M17.16,29.88c-.02.13.08.28.24.24-1.7,1.98-3.44,4.9-4.78,7.17-.7,1.18-2.1,4.85-4.09,4.42-1.77-.38.45-4.1,1.03-4.98,1.68-2.56,4.87-5.52,7.61-6.86Z"/>
        <path class="cls-13" d="M29.83,9.32c.29.42.59.56,1.09.65l.1.55s-.24.33.02.79c.5.91,1.31,1.22,1.65,1.6.8-.04,1.36.59,1.67,1.91.68-.28,1.22.28.96.96,1.99.8,4.22,2.58,5.5,4.3-.4.3-.79.26-1.25.18-3.31-.6-7.07-3.3-9.51-5.44-.47-.77-1.06-1.45-1.76-2.03l.09-.6c-.07-.07.02-1.5-.48-1.91.08-.08.05-.63.48-.84.2-.1.92.04,1.43-.11Z"/>
        <path class="cls-13" d="M27.2,14.34c.56-.48,1.34.39.96.96l1.21.36c2.31,1.85,4.76,3.59,7.54,4.66l.58.71-.96.24c-4.03-.74-8.74-2.05-11.47-5.38-2.52-3.09-.44-3.5,2.15-1.55Z"/>
        <path class="cls-13" d="M32.7,23.19l-.48.24c-1.33.53-3.65-.15-5.08-.64-1.34-.46-2.72-.99-3.77-1.99-.6.35-.8.21-.72-.48-.41-.25-.73-.57-.96-.96-.07.21-.15.2-.24,0-.36-.6-3.54-3.51-2-4.03s2.54,1.32,3.56,2.11c2.33,1.82,6.9,4.99,9.68,5.74Z"/>
        <path class="cls-13" d="M21.46,19.36c.06.04.18-.04.24,0,.25.38.57.7.96.96.24.15.48.36.72.48,1.56,1.04,3.18,2.02,4.86,2.94l.17.64c.2.3-.04.37-.72.24-3.79-1.06-7.38-2.31-10.04-5.39-.71-.82-3.18-4.34-.48-3.59,1.28.36,2.8,2.73,4.3,3.72Z"/>
        <path class="cls-15" d="M28.4,12.19c.56.61,1.3,1.2,1.91,2.03.4.55.15.22-.24.6.04,1.1-1.15,1.05-1.91.48-.37-.3-.58-.67-.96-.96-.2-1.04.37-1.64,1.2-2.15Z"/>
        <path class="cls-8" d="M29.83,25.1c-.05.02-.12.22-.36.23-.27.02-.43-.18-.6-.23-.34-.1-.84-.38-1.2-.48l.72-.24c.35-.72,1.9-.08,1.43.72Z"/>
        <path class="cls-23" d="M15,28.68c.21.04.49-.03.72,0-.23.72-1.11.4-1.67.48l.96-.48Z"/>
        <path class="cls-2" d="M33.9,5.74c.08.29-.39.33-.72.48l-.24-.24"/>
        <path class="cls-13" d="M40.12,12.43c.6-.4,2.21.41,2.15,1.2,1.92.93,3.89,1.63,5.93,2.12.87-.78,1.52-.93,1.97-.45.04.04.31.1.48.24.05.66-.81,1.5-1.43.96-.15.39-.47.55-.96.48-.08.61-1.02,1.44-1.67.96l-.48-.24c-.18-.29-.16-.51.11-.68l-3.62-.5c.94.38,1.47.86,1.6,1.42-.02.08-.24.22-.24.24l-.68.38c-2.41-.54-5.37-1.42-6.98-3.25l-.26-.4c.38.83-1.98-1.03-1.42-1.75-.6.3-.87-.56-.86-.89l-.33-.31c.18-.55.07-1.53.24-1.77.43-.56,1.16-.18,1.43-.86.26-.07.8.73.69.81-.33.26-.47-.31.26-.1.17-.01,1.61.55,1.91.72,0-.64.01-1.28,0-1.91.64,0,.9.65.79,1.95.63.49,1.08,1.04,1.36,1.64Z"/>
        <path class="cls-13" d="M42.03,8.61c.25-.16.5-.3.69-.09l1.46,1.76c.64-.13,1.35.15,2.11.85.7.21,1.12.57,1.24,1.06.76.36,1.54.65,2.35.86l.04.34c-.05.05-.05.64-.48.72-.05.18-.15.41-.3.42-2.03.06-4.38-.74-6.15-1.61-1.14.25-2.64-1.81-3.11-2.87-.69.14-1.29-1.26-.72-1.67.39-.99,2.18-.22,2.87.24Z"/>
        <path class="cls-11" d="M49.2,16.49c.54,1.01-.25,2.31-.96,3.11.12.51-.15,1.06-.48,1.43.12.33-.05.68-.24.96.54.86.33,2.24-.48,2.87-.21.2-.37.52-.48.96.1.35.1.75,0,1.2-1.37-.23-2.4.82-1.79,2.15.33.71.93.52,1.31,1.92.21.06.21.14,0,.24-.41.5-.04.56-.6.25-.38-.21-1.46-1.1-1.55-1.44-.89-.09-.53-2.53-.37-3.35.65-3.27,2.39-7.18,4.74-9.52l-.07-.28c.42-.25.7-.33.96-.48Z"/>
        <path class="cls-36" d="M51.36,16.25c-.65,1.65-1.16,4.18-1.57,5.96s-.09,4.25-1.78,5.51c-.34-.35-.72-.56-1.2-.72-.32-.32-.25-.85,0-1.2-.19-.26-.12-.84.24-.96.15-.97.27-1.91.48-2.87.15-.35.31-.67.48-.96-.06-.36.11-.89.48-.96.33-1.62,1.02-3.58,2.63-4.3.17.14.25.24.24.48Z"/>
        <path class="cls-36" d="M45.38,7.89c1.59,1.14.92,1.74,3.59,2.39.57.19.89.43.96.72,1.45-.05,2.56.35,3.35,1.2.42.63.24.47-.36.48-.72.02-1.47-.25-1.88-.24-.18,0-.26.37-.39.47-1.01.23-2.2-.23-3.11-.72-1.41-.43-2.16-1.11-3.35-1.91-1.35-1.16-1.67-1.96-.96-2.39.37-.88,1.55-.43,2.15,0Z"/>
        <path class="cls-24" d="M52.79,16.25c.26.03.85-.71.72.24l.35.55c.07,1.59-.44,5.01-1.06,6.38-.21,1.43-.99,2.01-1.43,3.11-.99-3.36-.18-7.28,1.43-10.28Z"/>
        <path class="cls-33" d="M58.05,39.2c.66.38.29,2.31-.48,2.39-.7-.4-1.74-.9-2.63-1.43l.72-2.15c1.07.45,1.44.69,2.39,1.2Z"/>
        <path class="cls-11" d="M56.14,20.32c.65.26.69.75,0,.96,0,.92.13,2.28,0,3.11-.07.44-.56,1.05-1.05.93-.54-.14-.53-1.01-.63-1.41-.24-.26-.4-.58-.48-.96.47-.93,1.52-1.91,1.68-3.11.33-.09.27.38.48.48Z"/>
        <path class="cls-6" d="M55.18,16.02c.42-.05,1.33-.77,1.2.24.64.11.59.5,0,.72-.44,1.48-1.08,2.89-2.15,4.06.27-1.62.02-3.46.96-5.02Z"/>
        <path class="cls-33" d="M56.86,32.75c.51.58-.2,1.84-.96,1.43-.44.28-2.94.38-3.71.44-.18.01-.33-.2-.36-.2-.21-.07-.21-.15,0-.24.23-.07,1.28-.82,2.15-1.07.82-.24,2.04-.62,2.87-.36Z"/>
        <path class="cls-24" d="M63.31,17.45c.65.05.73.52.24,1.43-.36.6-.79,1.45-.72,2.15-.07-.12-.52-.32-.77-.79s-.4-1.07-.43-1.6c.14-.1.98-1.81,1.67-1.2Z"/>
        <path class="cls-24" d="M60.2,14.58c.71.22.47,1.35-.24,1.43-.1.24-1.78,1.33-2.04,1.43-.29.12-.48-.07-.35-.35.11-.25,1.56-2.17,1.84-2.46.38-.39.24-.39.79-.06Z"/>
        <path class="cls-39" d="M66.18,14.1c.57.2.41.59,0,.96-.24,1.38-.91,1.41-1.43,2.15-.85.02-.66-.94-.24-1.43.66-.8,1.28-1.23,1.67-1.67Z"/>
        <path class="cls-9" d="M59.73,19.84c-.19.25-.2,1.37-.24,1.43.48.79-.76.95-1.43.72-.28-.14-.45-.46-.48-.48-.63-.14-.61-.29,0-.48,0-.92,1.46-.81,2.15-1.2Z"/>
        <path class="cls-38" d="M63.07,13.15c.63.07.63.47,0,1.2-.26.18-1.43,1.24-1.67.95-.28-2.22.27-1.54,1.67-2.15Z"/>
        <path class="cls-44" d="M48.49,4.54c.26.17.68.83,1.2,1.2-.24.5-.74.09-1.04-.03-.68-.27-.96-.39-1.71-.55-.59-.12-.38.24-.36-.61.47-.42,1.43-.33,1.91,0Z"/>
        <path class="cls-10" d="M66.9,3.59c.11.18.16.34.24.48.36.58-.28,1.29-.72,1.67-.45-.34-.7-.5-1.2-.96.64-.31.92-1.14,1.67-1.2Z"/>
        <path class="cls-34" d="M57.57,11.23c-.08.08-.16.16-.24.24s-.18.15-.24.24c-.46.47-.86.63-1.2.48-.21.1-.42.39-.66.44-.39.07-.49-.2-.53-.2.36-.51,1.1-.97,1.67-1.2.94-.36,1.02.02,1.2,0Z"/>
        <path class="cls-42" d="M64.27,12.67c.25-.12,1.08-1.25,1.68-.83-.17.8-1.13,1.1-1.68,1.55v-.72Z"/>
        <path class="cls-26" d="M60.68,11c.68.01.48.4,0,.72-1.01.57-.8.17-1.2.24l.24-.96c.32,0,.64-.01.96,0Z"/>
        <path class="cls-18" d="M61.16,8.84c-.09.05-.17.16-.24.24-.49-.04-.79-.22-.96-.24l.48-.48c.05.03.73-.51.72.48Z"/>
        <path class="cls-45" d="M55.9,12.19c.39-.19.75-.44,1.2-.48"/>
        <path class="cls-21" d="M63.55,6.69v.48c-.31-.11-.6-.28-.96-.24l.24-.48c.08.02.16-.02.24,0,.22.05.43.23.48.24Z"/>
        <path class="cls-19" d="M54.46,23.9l-.48-.24s-.21-.29,0-.72c.57.15.39.59.48.96Z"/>
        <path class="cls-30" d="M63.07,11.23c-.32.12-.58.32-.96.24.08-.33.67-.66.96-.71.48-.01.42.29,0,.48Z"/>
        <path class="cls-1" d="M62.6,8.84c.43.1.86-.28.72.48-.3.14-.67-.24-.72-.24v-.24Z"/>
        <path class="cls-41" d="M63.07,10.76c.21-.04.49.03.72,0-.05.42-.44.37-.72.48v-.48Z"/>
        <path class="cls-14" d="M52.79,26.53c-.17-.53.12-.82.24-1.2-.01.38.15.99-.24,1.2Z"/>
        <path class="cls-22" d="M46.33,40.4l-.24-.48c.11-.19.2-.47.48-.48.16.42-.17.71-.24.96Z"/>
        <path class="cls-4" d="M51.59,29.16s-.34.03-.48,0c.21-.49.43-.61.48-.72v.72Z"/>
        <path class="cls-7" d="M42.27,3.59v.48c-.39-.04-.8.03-1.2,0,.14-.64.81-.38,1.2-.48Z"/>
        <path class="cls-3" d="M31.03,2.63l.24-.24c.32.2.85.26.96.71"/>
        <path class="cls-16" d="M59.01,28.21c.46-.02,1.45.06,1.43.48-.22.04-.53-.05-.72,0l-.72-.48Z"/>
        <path class="cls-27" d="M34.61,13.15c.44.57.93,1.04,1.46,1.54.27.26.72-.07.21.62-.11.03-.56.6-.96.48-.32-.29-.64-.65-.96-.96-.23-.58-.25-1.22.24-1.67Z"/>
        <path class="cls-33" d="M39.88,10.04l3.11,2.87c-.16.11-.33.66-.72.72-.49-.33-1.32-.61-2.15-1.2-.02-.71-.06-1.72-.24-2.39Z"/>
        <path class="cls-43" d="M47.05,24.86c-.06.37-.21.72-.24.96h-.24c.08-.57-.29-1.11.48-.96Z"/>
      </g>
    </g>
  </g>
</svg>