<?xml version="1.0" encoding="UTF-8"?>
<svg id="Layer_2" data-name="Layer 2" xmlns="http://www.w3.org/2000/svg" viewBox="0 0 909.6 560.64">
  <defs>
    <style>
      .cls-1 {
        fill: #bdc690;
      }
    </style>
  </defs>
  <g id="Background">
    <g id="TR_L2_1">
      <path class="cls-1" d="M728.39,112.74c9.28-2.61,8.59-9.65,8.59-9.65-5.17-.11-7.96,5.08-8.59,9.65ZM849.47,147.17c.51.23,1.06.4,1.62.53.44.69.95,1.33,1.5,1.89.23-.57.39-1.1.52-1.62.11,0,.21,0,.32,0v-67.34h-182.27c.09.66.22,1.3.38,1.92.6-.48,1.12-.96,1.59-1.44.8.01,1.53-.03,2.18-.14-2.24,1.19-4.12,3.34-5.33,5.55,1.79.16,3.3.04,4.59-.24-.03.27-.05.54-.06.81.83-.33,1.53-.7,2.14-1.09.93.16,1.77.16,2.5.04-1.45.98-2.65,2.5-3.43,4.03,2.59.15,4.41-.41,5.69-1.2-.64,1.36-.97,2.93-1.01,4.39,1.9-.76,3.17-1.72,4.03-2.71.05.07.11.14.16.21-1.23,1.13-2.27,2.5-3.04,3.91.2.02.37.01.56.02-.32.94-.52,1.94-.6,2.89,2.38-.82,3.82-1.99,4.71-3.17.05-.01.09-.03.14-.04-.76,2.31-.01,5.12,1.24,7.24.97-1.34,1.51-2.57,1.79-3.68.27,1.16.73,2.3,1.32,3.28,1.11-1.54,1.68-2.94,1.91-4.17.2,1.14.74,2.22,1.48,3.19-.1.82-.11,1.64-.05,2.42.54-.29,1.01-.6,1.44-.91.42.38.86.73,1.31,1.04.16-.87.23-1.66.23-2.39.64-.7,1.09-1.4,1.38-2.07.04,1.36.44,2.76,1.03,4.01.02,1.75.39,3.53.98,5.1,2.26-2.19,3.35-4.28,3.81-6.11.24-.13.46-.26.68-.39.09.07.18.14.27.2.03-.14.04-.27.06-.41.69-.45,1.27-.94,1.76-1.43.24,1.32.76,2.62,1.42,3.73.96-1.34,1.51-2.56,1.79-3.67.27,1.16.74,2.29,1.32,3.27,1.11-1.54,1.68-2.94,1.91-4.17.2,1.14.74,2.22,1.48,3.2-.1.82-.11,1.64-.05,2.42.54-.29,1.01-.6,1.44-.91.11.1.22.19.34.29-1.08,1.72-1.75,3.78-2.02,5.73,8.02-2.26,8.59-7.82,8.6-9.28.77,1.04,1.74,1.96,2.76,2.66.36-1.89.27-3.41-.06-4.63.6.64,1.28,1.21,1.97,1.68.16-.84.22-1.61.22-2.31.55-.36,1-.73,1.41-1.11.04.75.16,1.51.33,2.26.03.28.06.56.1.83.03-.02.06-.05.1-.07.31,1.06.73,2.09,1.23,3.02.69-.88,1.24-1.73,1.67-2.55.02.12.03.25.05.36,1.27-.82,2.17-1.67,2.83-2.52.06.96.3,1.94.67,2.87-.38.72-.7,1.47-.92,2.22.68-.08,1.29-.21,1.86-.36.1.16.19.31.3.46.14-.23.26-.45.38-.67,1.39-.48,2.39-1.16,3.12-1.88-.6,1.65-.67,3.57-.4,5.27.5-.32.93-.65,1.32-.98.25.7.54,1.37.86,2,1.03-1.27,1.74-2.47,2.23-3.6.32.83.73,1.61,1.2,2.32-.23,1.27-.22,2.62-.02,3.85.27-.17.51-.35.75-.53-.64,3.29,1.09,6.95,3.33,9.51,2.02-4.3,1.64-7.48.73-9.59.65-.6,1.16-1.21,1.53-1.81-.23,1.13-.12,2.34.21,3.52-.39.72-.71,1.48-.93,2.24.61-.08,1.16-.19,1.67-.32.25.51.53,1,.84,1.45.47-.75.83-1.47,1.09-2.15.85-.42,1.52-.92,2.05-1.44-.6,1.65-.67,3.58-.4,5.28,1.68-1.08,2.74-2.24,3.4-3.35-.25,1.15-.14,2.39.2,3.58-1.73.96-3.15,2.72-4.01,4.5,1.93.08,3.43-.24,4.59-.73-.12.73-.2,1.47-.22,2.19-.38,1.47-.41,3.08-.18,4.53,1.39-.89,2.34-1.84,3.01-2.76-.11.75-.13,1.53-.09,2.28-2.54,1.87-3.91,5.38-4.25,8.56,3.86-1.22,5.93-3.16,7.05-5-.03.09-.07.17-.09.26.61-.07,1.16-.19,1.67-.32.25.51.53,1,.84,1.45.47-.75.82-1.47,1.08-2.14.06-.03.11-.06.17-.09-.11,2.78,1.15,5.75,2.82,8,1.64-2.87,2.08-5.29,1.95-7.23.25-.39.45-.78.61-1.15.07.35.16.69.26,1.03-.19,1.21-.17,2.47.02,3.63.35-.22.66-.45.95-.68.03.11.06.22.1.33.12-.11.23-.22.35-.32.03.05.06.1.09.15.11-.18.22-.36.32-.54.43-.43.82-.85,1.16-1.27-.04.36-.06.72-.06,1.08-3.41,1.44-5.26,5.55-5.72,9.24,8.06-2.41,8.48-8.06,8.46-9.46.18-.22.35-.43.5-.65.03.08.08.16.11.24-.11.98.02,2,.3,2.99-.39.72-.71,1.48-.93,2.23.61-.07,1.16-.18,1.68-.31.25.51.53.99.84,1.44.47-.76.83-1.47,1.09-2.15.67-.33,1.24-.71,1.7-1.11.07.02.15.04.22.06-.48,1.56-.53,3.32-.27,4.9,1.46-.94,2.44-1.93,3.11-2.9.38-.1.73-.2,1.06-.32,0,.02.02.05.02.07-2.4,1.88-3.74,5.23-4.12,8.29,5.88-1.75,7.69-5.23,8.24-7.53.18,1.1.53,2.18.98,3.14.71-.82,1.22-1.6,1.61-2.35.18,1.11.52,2.2.98,3.17,1.24-1.43,1.93-2.77,2.28-3.97.1,1.15.54,2.28,1.19,3.31-.17.8-.26,1.62-.27,2.4.56-.24,1.07-.5,1.52-.77.08.08.16.16.24.24-.84,1.63-1.35,3.49-1.53,5.24,1.81-.57,3.22-1.3,4.33-2.11.66,1.53,1.61,2.98,2.69,4.17,1.75-3.87,1.58-6.8.86-8.87.21-.63.32-1.2.37-1.68.63,1.14,1.5,2.18,2.46,3.02,0,2.67,1.23,5.48,2.82,7.63.46-.8.82-1.57,1.11-2.3.1.07.21.15.32.22-.23.65-.4,1.31-.51,1.96.13-.03.24-.07.36-.1-.66,1.43-1.07,3-1.26,4.49,2.57-.77,4.36-1.86,5.61-3.04.17,1.13.53,2.24.99,3.22,1.08-1.25,1.73-2.43,2.12-3.5.16,1.18.53,2.35,1.02,3.39,1.25-1.44,1.93-2.78,2.28-3.98.1,1.15.54,2.28,1.19,3.32-.17.8-.26,1.62-.27,2.4.46-.2.87-.41,1.26-.63-.19.72-.34,1.44-.42,2.14,1.81-.54,3.23-1.25,4.35-2.03.18.61.39,1.2.65,1.75,1.7-1.96,2.36-3.75,2.52-5.24.69,1.34,1.74,2.56,2.87,3.49.23-.82.36-1.57.42-2.26.48-1.12.71-2.13.76-3.04.11-.1.22-.2.33-.31,1.04,1.97,3.21,3.44,5.34,4.2-.11-1.64-.48-2.93-.97-3.96.88.67,1.89,1.2,2.89,1.59-1.42,3.6.52,7.89,3.1,10.75,3.96-8.78-1.87-12.77-1.87-12.77-.45.52-.8,1.06-1.07,1.63-.18-1.67-.61-2.97-1.18-3.97.28.24.58.45.89.64.14.28.19.59.13.95.18-.21.38-.4.59-.57ZM717.89,101.92s0-.05,0-.07c.64-.69,1.09-1.4,1.38-2.07,0,.3.06.6.1.9-.54.35-1.04.76-1.48,1.24ZM722.87,99.59c0-.07.01-.14.01-.2.04.07.1.13.14.2-.05,0-.1,0-.15,0ZM727.54,93.97s-.03-.07-.04-.11c.03,0,.05-.02.08-.03-.01.04-.02.09-.03.13ZM767.41,124.13c-.14.01-.28.03-.42.05.18-.24.36-.47.5-.71-.04.21-.07.43-.09.65ZM795.28,133.96c-.31.01-.62.04-.91.09.02-.14.03-.29.04-.42.03-.02.06-.05.08-.07.28-.08.58-.16.87-.24-.04.21-.06.43-.08.64ZM801.51,134c-.01-.37-.04-.72-.1-1.04.16.08.31.17.45.27-.14.25-.26.51-.35.77ZM831.18,148.3c-.04-.07-.08-.13-.12-.2.07.03.14.06.21.09-.03.03-.06.07-.09.11Z"/>
    </g>
  </g>
</svg>