<?xml version="1.0" encoding="UTF-8"?>
<svg id="Layer_2" data-name="Layer 2" xmlns="http://www.w3.org/2000/svg" viewBox="0 0 957.11 497.04">
  <defs>
    <style>
      .cls-1 {
        fill: #ced4b1;
      }
    </style>
  </defs>
  <g id="Background">
    <g id="TR_L3_2">
      <path class="cls-1" d="M775.98,112.8c9.27-2.62,8.59-9.65,8.59-9.65-5.17-.11-7.95,5.09-8.59,9.65ZM754.58,17.04c.13.36.27.7.43,1-.5-.28-1.04-.52-1.59-.71-.03-.1-.08-.19-.11-.3h-2.51c.15.41.3.8.47,1.15-.63,1.13-.93,2.18-1.02,3.12-.22-1.6-1.17-3.07-2.39-4.27h-2.32c0,.88.11,1.67.28,2.36-.75-.84-1.65-1.57-2.57-2.14.04-.08.07-.15.1-.22h-5.92c-.23.29-.45.59-.66.91-.38-.33-.8-.63-1.23-.91h-2.19c.17,1.13.48,2.06.85,2.85-.09-.06-.18-.12-.27-.17-.02.14-.02.26-.03.39-2.01-1.23-4.82-1.23-7.14-.6.43.54.87.98,1.3,1.38-.73.06-1.45.19-2.12.37,1.2,1.49,2.4,2.4,3.52,2.95-1.15-.11-2.34.12-3.48.58-.76-.31-1.55-.54-2.33-.69.14.6.31,1.13.49,1.63-.48.3-.93.64-1.35.99.8.39,1.54.66,2.24.85.37.6.78,1.09,1.2,1.5-3.98-1.22-8.17,1.54-10.68,4.74,3.5.91,6.11.56,7.99-.21.04.19.07.38.11.56-.54.33-1.04.69-1.5,1.08.77.37,1.49.64,2.16.83.3.62.64,1.14,1.01,1.58-2.03-1.46-5.05-1.5-7.5-.83,1.04,1.29,2.08,2.14,3.08,2.71-1.19-.05-2.42.09-3.52.4,1.19,1.48,2.39,2.4,3.51,2.95-1.15-.11-2.34.13-3.47.58-.76-.31-1.55-.54-2.32-.69.14.6.31,1.13.49,1.63-.48.3-.93.64-1.35.99.8.39,1.55.66,2.25.85.24.38.5.72.76,1.02-.16.21-.31.43-.45.65-1.33-.11-2.71.04-3.95.38.84,1.05,1.69,1.81,2.51,2.36-.09.22-.18.44-.25.65.4-.03.76-.08,1.14-.13.45.23.89.41,1.31.53-1.44.44-2.83,1.25-3.94,2.2.64.31,1.23.53,1.81.71-1.07.44-2.09,1.05-2.95,1.75,2.39,1.23,4.34,1.43,5.85,1.19-2.3.99-3.88,3.56-4.58,6,1.64-.23,2.91-.68,3.9-1.25-.66,1-1.16,2.12-1.47,3.22,1.89-.26,3.29-.82,4.34-1.5-.69.93-1.1,2.08-1.29,3.28-.66.49-1.26,1.05-1.79,1.64.58.19,1.13.32,1.65.42.01.57.06,1.13.15,1.67.75-.48,1.36-.98,1.89-1.49.95-.02,1.76-.18,2.46-.43-.33.33-.63.7-.91,1.09-1.5.12-3.02.61-4.3,1.29.68.54,1.33.95,1.95,1.28-1.06,1.46-1.56,3.32-1.65,5.23-.16.26-.31.53-.45.79.15,0,.29,0,.43,0,.02,1.31.2,2.63.53,3.84.6-.48,1.12-.96,1.59-1.44.8.01,1.53-.03,2.18-.14-2.24,1.19-4.12,3.34-5.32,5.55,1.79.16,3.3.04,4.59-.24-.03.27-.05.54-.06.81.83-.33,1.53-.7,2.14-1.1.93.16,1.77.16,2.5.04-1.45.98-2.65,2.5-3.43,4.03,2.59.15,4.41-.41,5.68-1.2-.64,1.36-.97,2.93-1.01,4.4,1.9-.76,3.17-1.72,4.03-2.71.05.07.11.14.16.21-1.23,1.13-2.27,2.5-3.03,3.91.2.02.37.01.56.02-.32.94-.52,1.94-.6,2.89,2.38-.82,3.82-1.99,4.71-3.17.05-.01.09-.03.14-.04-.76,2.31-.01,5.12,1.24,7.25.97-1.34,1.51-2.57,1.79-3.68.27,1.16.73,2.3,1.32,3.28,1.11-1.54,1.67-2.94,1.91-4.17.2,1.14.74,2.22,1.48,3.2-.1.82-.11,1.64-.05,2.42.54-.29,1.01-.6,1.44-.91.42.38.86.73,1.31,1.04.16-.87.23-1.67.23-2.39.64-.7,1.08-1.4,1.38-2.07.04,1.36.44,2.76,1.03,4.02.02,1.75.39,3.53.98,5.11,2.25-2.19,3.35-4.28,3.81-6.12.24-.13.46-.26.68-.39.09.07.18.14.27.2.03-.14.04-.27.06-.41.69-.45,1.27-.94,1.76-1.43.24,1.32.76,2.62,1.41,3.73.96-1.34,1.51-2.56,1.79-3.67.27,1.16.74,2.29,1.32,3.27,1.11-1.55,1.68-2.95,1.91-4.17.2,1.14.74,2.23,1.48,3.2-.1.82-.11,1.64-.05,2.42.54-.29,1.01-.6,1.44-.91.11.1.22.19.34.29-1.08,1.72-1.74,3.78-2.02,5.74,8.02-2.26,8.59-7.83,8.6-9.29.77,1.04,1.74,1.96,2.76,2.66.36-1.89.27-3.42-.05-4.64.6.64,1.28,1.21,1.97,1.68.16-.85.22-1.61.22-2.32.55-.36,1-.73,1.41-1.11.04.75.16,1.51.33,2.26.03.28.06.56.1.83.03-.02.06-.05.1-.07.31,1.06.73,2.09,1.23,3.02.69-.88,1.24-1.73,1.67-2.55.02.12.03.25.05.37,1.27-.82,2.17-1.68,2.83-2.52.06.96.3,1.94.67,2.87-.38.72-.7,1.47-.92,2.22.68-.08,1.29-.21,1.85-.36.1.16.19.31.3.46.14-.23.26-.45.38-.67,1.39-.48,2.39-1.16,3.12-1.88-.59,1.65-.67,3.57-.39,5.28.5-.32.93-.65,1.32-.98.25.7.53,1.37.86,2,1.02-1.27,1.74-2.47,2.23-3.6.32.83.73,1.62,1.2,2.32-.23,1.27-.22,2.62-.02,3.85.27-.17.51-.35.75-.53-.64,3.29,1.09,6.95,3.33,9.51,2.02-4.31,1.64-7.48.73-9.59.65-.6,1.16-1.21,1.53-1.81-.23,1.13-.12,2.34.21,3.52-.39.72-.71,1.48-.93,2.24.61-.08,1.16-.19,1.67-.32.25.51.53,1,.84,1.45.47-.76.82-1.47,1.09-2.15.85-.42,1.52-.92,2.05-1.44-.6,1.65-.67,3.58-.4,5.28,1.68-1.09,2.74-2.24,3.4-3.35-.25,1.15-.14,2.39.2,3.58-1.73.96-3.15,2.72-4.01,4.5,1.93.08,3.43-.24,4.59-.73-.12.73-.2,1.47-.21,2.19-.38,1.47-.41,3.08-.18,4.53,1.39-.89,2.34-1.84,3.01-2.77-.11.75-.13,1.53-.09,2.28-2.54,1.87-3.91,5.39-4.25,8.57,3.86-1.22,5.93-3.16,7.04-5.01-.03.09-.07.17-.09.26.61-.08,1.16-.19,1.67-.32.25.51.53,1,.84,1.45.47-.75.82-1.47,1.08-2.14.06-.03.11-.06.17-.09-.11,2.78,1.15,5.75,2.82,8,1.64-2.87,2.08-5.29,1.95-7.23.25-.39.45-.78.61-1.16.07.35.16.69.26,1.03-.19,1.21-.17,2.47.02,3.63.35-.23.66-.45.95-.68.03.11.06.22.1.33.12-.11.23-.22.35-.32.03.05.06.1.09.15.11-.18.22-.36.32-.54.43-.43.82-.85,1.16-1.27-.04.36-.06.72-.06,1.08-3.41,1.44-5.26,5.56-5.72,9.25,8.06-2.41,8.48-8.06,8.46-9.46.18-.22.35-.43.5-.65.03.08.08.16.11.24-.11.98.02,2,.3,2.99-.39.72-.71,1.48-.93,2.23.61-.07,1.16-.18,1.68-.31.25.51.53.99.84,1.44.47-.76.83-1.47,1.09-2.15.67-.33,1.24-.71,1.7-1.11.07.02.15.04.22.06-.48,1.56-.53,3.33-.27,4.9,1.46-.94,2.44-1.93,3.11-2.9.38-.1.73-.2,1.06-.32,0,.02.02.05.02.07-2.4,1.88-3.74,5.23-4.12,8.3,5.88-1.76,7.69-5.24,8.23-7.54.18,1.1.53,2.18.98,3.14.71-.82,1.22-1.6,1.61-2.36.18,1.11.52,2.2.98,3.17,1.24-1.44,1.93-2.78,2.28-3.98.1,1.15.54,2.28,1.19,3.31-.17.8-.26,1.62-.27,2.41.56-.24,1.07-.5,1.52-.77.08.08.16.16.24.24-.84,1.63-1.34,3.49-1.53,5.25,1.38-.44,2.53-.97,3.49-1.56V17.04h-98.86ZM720.32,59.7c.06-.11.13-.22.19-.32.02.04.03.09.05.13,0,.02.01.03.02.05-.09.04-.17.1-.25.14ZM724.91,40.74c-.14-.1-.29-.18-.44-.27.23,0,.45-.01.66-.03-.08.1-.15.2-.22.3ZM725.68,33.15c-.21-.13-.43-.25-.65-.37.05-.03.11-.06.16-.1.3.13.6.25.89.34-.13.04-.27.08-.4.13ZM741.14,19.92c.86-.75,1.47-1.54,1.91-2.31-.15,1.67.01,3.03.37,4.12-.6-.75-1.39-1.34-2.28-1.81ZM765.48,101.97s0-.05,0-.07c.64-.69,1.08-1.4,1.38-2.07,0,.3.06.6.1.9-.54.35-1.04.76-1.48,1.24ZM770.47,99.64c0-.07.01-.14.01-.2.04.07.1.13.14.2-.05,0-.1,0-.15,0ZM775.13,94.02s-.03-.07-.04-.11c.03,0,.05-.02.08-.03-.01.04-.02.09-.03.13ZM814.98,124.2c-.14.01-.28.03-.42.05.18-.24.36-.47.5-.71-.04.21-.07.44-.09.66ZM842.85,134.03c-.31.01-.62.04-.91.09.02-.14.03-.29.04-.42.03-.02.06-.05.08-.07.28-.08.58-.16.87-.24-.04.21-.06.43-.08.64ZM849.07,134.06c-.01-.37-.04-.72-.1-1.04.16.08.31.17.45.27-.14.25-.26.51-.35.77ZM707.38,75.62c9.61.68,11.35-6.17,11.35-6.17-4.83-1.86-9.21,2.09-11.35,6.17Z"/>
    </g>
  </g>
</svg>